<svg width="808" height="964" viewBox="0 0 808 964" fill="none" xmlns="http://www.w3.org/2000/svg">
<path opacity="0.563035" fill-rule="evenodd" clip-rule="evenodd" d="M131.5 5.69434L895.075 1.91797V924.482C895.075 924.482 946.903 1111.12 697.289 846.7C447.675 582.284 171.89 806.403 28.8231 687.395C-114.244 568.388 339.584 116.393 177.5 31.1943C131.41 5.63126 131.5 5.69434 131.5 5.69434Z" fill="url(#paint0_linear_64_104)"/>
<path fill-rule="evenodd" clip-rule="evenodd" d="M133.5 6L823.4 0.0107422L823.416 876.502C823.416 876.502 901.338 1052.15 669.554 784.558C437.77 516.972 199.483 685.606 76.0548 584.186C-47.3736 482.766 339.217 94.9877 199.382 22.3796C170.5 1.69434 133.5 6 133.5 6Z" fill="url(#paint1_linear_64_104)"/>
<g opacity="0.240676">
<ellipse cx="535.172" cy="367.009" rx="16.1787" ry="15.2182" stroke="white" stroke-width="8"/>
<ellipse cx="723.373" cy="46.599" rx="26.084" ry="24.5355" stroke="white" stroke-width="8"/>
<path d="M723 14C741.225 14 756 28.7746 756 47C756 65.2254 741.225 80 723 80C704.775 80 690 65.2254 690 47C690 28.7746 704.775 14 723 14ZM723 32.6523C715.076 32.6523 708.652 39.0759 708.652 47C708.652 54.924 715.076 61.3477 723 61.3477C730.924 61.3475 737.348 54.9239 737.348 47C737.348 39.076 730.924 32.6525 723 32.6523Z" fill="white"/>
<ellipse cx="297.445" cy="386.161" rx="9.57514" ry="9.0067" stroke="white" stroke-width="8"/>
<path d="M577.056 195.389C576.141 193.992 575.227 191.214 577.056 188.073C578.884 184.933 581.628 184.848 583.457 185.33C585.285 185.812 593.748 194.042 597.173 194.042C600.597 194.042 609.974 185.813 609.974 185.813C609.974 185.813 613.631 183.984 615.46 185.813C617.289 187.642 635.577 199.529 635.577 201.789C635.578 204.05 631.005 208.673 628.262 209.105C625.519 209.536 616.375 199.529 612.717 199.961C609.06 200.392 602.659 207.758 597.173 207.758C591.686 207.758 577.97 196.785 577.056 195.389Z" fill="white"/>
<path d="M577.056 237.451C576.141 236.055 575.227 233.277 577.056 230.136C578.884 226.995 581.628 226.911 583.457 227.393C585.285 227.875 593.748 236.105 597.173 236.105C600.597 236.105 609.974 227.875 609.974 227.875C609.974 227.875 613.631 226.046 615.46 227.875C617.289 229.704 635.577 241.591 635.577 243.852C635.578 246.112 631.005 250.735 628.262 251.167C625.519 251.599 616.375 241.591 612.717 242.023C609.06 242.455 602.659 249.82 597.173 249.82C591.686 249.82 577.97 238.847 577.056 237.451Z" fill="white"/>
<path d="M577.056 217.334C576.141 215.938 575.227 213.16 577.056 210.019C578.884 206.878 581.628 206.794 583.457 207.276C585.285 207.757 593.748 215.988 597.173 215.988C600.597 215.988 609.974 207.758 609.974 207.758C609.974 207.758 613.631 205.929 615.46 207.758C617.289 209.587 635.577 221.474 635.577 223.735C635.578 225.995 631.005 230.618 628.262 231.05C625.519 231.482 616.375 221.474 612.717 221.906C609.06 222.338 602.659 229.703 597.173 229.703C591.686 229.703 577.97 218.73 577.056 217.334Z" fill="white"/>
<rect x="5.32138" y="2.1487" width="24.8206" height="23.9086" transform="matrix(0.926032 -0.377445 0.404313 0.914621 552.671 576.395)" stroke="white" stroke-width="8"/>
<rect x="5.32138" y="2.1487" width="11.6924" height="11.1451" transform="matrix(0.926032 -0.377445 0.404313 0.914621 383.034 465.618)" stroke="white" stroke-width="8"/>
<path d="M207.216 284.105L205.507 277.98L206.712 277.67L208.421 283.795L214.77 282.161L215.093 283.318L208.744 284.952L210.445 291.049L209.24 291.359L207.539 285.262L201.16 286.903L200.837 285.746L207.216 284.105Z" fill="white"/>
<path d="M570.411 525.06L568.702 518.935L569.907 518.625L571.616 524.75L577.965 523.116L578.288 524.273L571.939 525.907L573.64 532.004L572.435 532.314L570.734 526.217L564.355 527.858L564.032 526.701L570.411 525.06Z" fill="white"/>
<path d="M391.433 347.136L388.159 335.403L390.467 334.809L393.741 346.542L405.904 343.413L406.523 345.63L394.36 348.759L397.619 360.438L395.31 361.032L392.051 349.353L379.832 352.497L379.214 350.28L391.433 347.136Z" fill="white"/>
<path d="M270.5 21C281.27 21 290.001 29.7304 290.001 40.5C290.001 51.2697 281.27 60.001 270.5 60.001C259.73 60.0008 251 51.2696 251 40.5C251 29.7305 259.731 21.0001 270.5 21ZM270.5 32.0215C265.818 32.0217 262.023 35.8177 262.022 40.5C262.022 45.1823 265.818 48.9783 270.5 48.9785C275.182 48.9785 278.979 45.1825 278.979 40.5C278.978 35.8176 275.182 32.0215 270.5 32.0215Z" fill="white"/>
<path d="M365 209.866C365 208.208 365 204.339 365.553 202.128C366.106 199.917 367.554 197.554 368.869 194.39C370.031 191.594 369.422 189.968 369.975 188.31C370.528 186.651 371.08 186.099 373.291 186.099C375.502 186.099 376.055 187.204 376.608 188.31C377.16 189.415 377.16 191.073 376.608 193.837C376.055 196.6 374.397 199.364 373.844 202.68C373.291 205.997 373.291 207.102 373.844 210.419C374.397 213.735 376.608 215.393 376.608 218.157C376.608 220.92 377.713 226.448 373.291 226.448C368.869 226.448 369.422 221.473 368.869 219.262C368.317 217.051 365 211.524 365 209.866Z" fill="white"/>
<path d="M390.979 210.419C390.979 208.76 390.979 204.891 391.531 202.68C392.084 200.47 393.532 198.107 394.848 194.942C396.01 192.147 395.4 190.52 395.953 188.862C396.506 187.204 397.059 186.651 399.269 186.651C401.48 186.651 402.033 187.757 402.586 188.862C403.139 189.968 403.139 191.626 402.586 194.39C402.033 197.153 400.375 199.917 399.822 203.233C399.269 206.55 399.269 207.655 399.822 210.971C400.375 214.288 402.586 215.946 402.586 218.71C402.586 221.473 403.691 227 399.269 227C394.848 227 395.4 222.026 394.848 219.815C394.295 217.604 390.979 212.077 390.979 210.419Z" fill="white"/>
<path d="M377.713 210.419C377.713 208.76 377.713 204.891 378.266 202.68C378.818 200.47 380.266 198.107 381.582 194.942C382.744 192.147 382.135 190.52 382.687 188.862C383.24 187.204 383.793 186.651 386.004 186.651C388.215 186.651 388.767 187.757 389.32 188.862C389.873 189.968 389.873 191.626 389.32 194.39C388.767 197.153 387.109 199.917 386.557 203.233C386.004 206.55 386.004 207.655 386.557 210.971C387.109 214.288 389.32 215.946 389.32 218.71C389.32 221.473 390.426 227 386.004 227C381.582 227 382.135 222.026 381.582 219.815C381.029 217.604 377.713 212.077 377.713 210.419Z" fill="white"/>
<path d="M766.935 338H712.738C712.738 338 709 338.966 709 344.763C709 350.559 712.738 351.525 712.738 351.525H766.935C766.935 351.525 770.672 349.593 770.672 344.763C770.672 339.932 766.935 338 766.935 338Z" fill="white"/>
<path d="M767.869 381.475H713.672C713.672 381.475 709.934 382.441 709.934 388.237C709.934 394.034 713.672 395 713.672 395H767.869C767.869 395 771.606 393.068 771.606 388.237C771.606 383.407 767.869 381.475 767.869 381.475Z" fill="white"/>
<path d="M767.869 360.221H713.672C713.672 360.221 709.934 361.187 709.934 366.983C709.934 372.78 713.672 373.746 713.672 373.746H767.869C767.869 373.746 771.606 371.814 771.606 366.983C771.606 362.153 767.869 360.221 767.869 360.221Z" fill="white"/>
</g>
<defs>
<linearGradient id="paint0_linear_64_104" x1="177.597" y1="-914.387" x2="1228.05" y2="-711.367" gradientUnits="userSpaceOnUse">
<stop stop-color="#0D70DF"/>
<stop offset="1" stop-color="#E63637"/>
</linearGradient>
<linearGradient id="paint1_linear_64_104" x1="205.92" y1="-866.668" x2="1127.66" y2="-702.285" gradientUnits="userSpaceOnUse">
<stop stop-color="#0D70DF"/>
<stop offset="1" stop-color="#E63637"/>
</linearGradient>
</defs>
</svg>
