<svg width="63" height="70" viewBox="0 0 63 70" fill="none" xmlns="http://www.w3.org/2000/svg">
<path d="M1.20576 10.9236C0.245953 9.45787 -0.713994 6.54134 1.20576 3.24406C3.12552 -0.0532094 6.00579 -0.141601 7.9254 0.36422C9.84501 0.870041 18.7293 9.51019 22.3246 9.51019C25.92 9.51019 35.7636 0.870865 35.7636 0.870865C35.7636 0.870865 39.6034 -1.04924 41.5233 0.870865C43.4432 2.79097 62.6421 15.2701 62.6424 17.6433C62.6427 20.0165 57.8424 24.8696 54.9628 25.3229C52.0833 25.7762 42.4832 15.2701 38.6437 15.7234C34.8042 16.1767 28.084 23.9088 22.3246 23.9088C16.5652 23.9088 2.16557 12.3894 1.20576 10.9236Z" fill="url(#paint0_linear_215_8097)" fill-opacity="0.66"/>
<path d="M1.20576 55.0809C0.245953 53.6151 -0.713994 50.6986 1.20576 47.4013C3.12552 44.104 6.00579 44.0156 7.9254 44.5214C9.84501 45.0273 18.7293 53.6674 22.3246 53.6674C25.92 53.6674 35.7636 45.0281 35.7636 45.0281C35.7636 45.0281 39.6034 43.108 41.5233 45.0281C43.4432 46.9482 62.6421 59.4273 62.6424 61.8005C62.6427 64.1737 57.8424 69.0268 54.9628 69.4801C52.0833 69.9334 42.4832 59.4273 38.6437 59.8806C34.8042 60.3339 28.084 68.066 22.3246 68.066C16.5652 68.066 2.16557 56.5467 1.20576 55.0809Z" fill="url(#paint1_linear_215_8097)" fill-opacity="0.66"/>
<path d="M1.20576 33.9617C0.245953 32.496 -0.713994 29.5794 1.20576 26.2821C3.12552 22.9849 6.00579 22.8965 7.9254 23.4023C9.84501 23.9081 18.7293 32.5483 22.3246 32.5483C25.92 32.5483 35.7636 23.909 35.7636 23.909C35.7636 23.909 39.6034 21.9888 41.5233 23.909C43.4432 25.8291 62.6421 38.3082 62.6424 40.6814C62.6427 43.0546 57.8424 47.9076 54.9628 48.3609C52.0833 48.8142 42.4832 38.3082 38.6437 38.7615C34.8042 39.2148 28.084 46.9469 22.3246 46.9469C16.5652 46.9469 2.16557 35.4275 1.20576 33.9617Z" fill="url(#paint2_linear_215_8097)" fill-opacity="0.66"/>
<defs>
<linearGradient id="paint0_linear_215_8097" x1="12.4176" y1="-23.5001" x2="71.9019" y2="7.66202" gradientUnits="userSpaceOnUse">
<stop stop-color="#0D70DF"/>
<stop offset="1" stop-color="#E63637"/>
</linearGradient>
<linearGradient id="paint1_linear_215_8097" x1="12.4176" y1="20.6572" x2="71.9019" y2="51.8193" gradientUnits="userSpaceOnUse">
<stop stop-color="#0D70DF"/>
<stop offset="1" stop-color="#E63637"/>
</linearGradient>
<linearGradient id="paint2_linear_215_8097" x1="12.4176" y1="-0.461968" x2="71.9019" y2="30.7001" gradientUnits="userSpaceOnUse">
<stop stop-color="#0D70DF"/>
<stop offset="1" stop-color="#E63637"/>
</linearGradient>
</defs>
</svg>
