<svg width="16" height="16" viewBox="0 0 16 16" fill="none" xmlns="http://www.w3.org/2000/svg">
    <path d="M15.0294 11.8L12.9294 9.7C12.1294 8.9 10.9294 9.2 10.5294 10.2L10.0294 11.5C7.52939 10.5 5.52939 8.5 4.52939 6L5.82939 5.5C6.82939 5.1 7.12939 3.9 6.32939 3.1L4.22939 1C3.62939 0.4 2.72939 0.4 2.12939 1L0.829394 2.3C0.429394 2.7 0.229394 3.2 0.229394 3.8C0.229394 9.5 4.82939 14 10.4294 14C11.0294 14 11.5294 13.8 11.9294 13.4L13.2294 12.1C13.8294 11.5 13.8294 10.6 13.2294 10L15.0294 11.8Z" fill="#0D70DF"/>
</svg> 