<svg width="16" height="16" viewBox="0 0 16 16" fill="none" xmlns="http://www.w3.org/2000/svg">
    <path d="M15.9683 1.68422C15.9557 1.62517 15.9276 1.57057 15.8868 1.52673C15.846 1.48289 15.794 1.45137 15.7363 1.43555C15.3205 1.31285 14.8777 1.38063 14.5183 1.62322L1.29983 9.83222C0.965829 10.0529 0.748329 10.4116 0.708829 10.8116C0.669329 11.2116 0.811329 11.6023 1.09683 11.8743C1.2793 12.0628 1.52797 12.1743 1.78883 12.1876L4.97883 12.3636V14.7896C4.97883 15.2456 5.23283 15.6556 5.64683 15.8416C6.06083 16.0286 6.5543 15.9506 6.89283 15.6376L8.4233 14.2029L11.031 16.5303C11.2099 16.6869 11.4416 16.7756 11.6823 16.7823C11.8031 16.7841 11.9228 16.761 12.033 16.7143C12.2558 16.6259 12.4475 16.4743 12.5858 16.2769C12.7241 16.0794 12.8035 15.8443 12.8143 15.6009L13.9503 2.42222C13.9699 2.1576 13.9182 1.89245 13.8023 1.68422H15.9683ZM4.97883 10.9369L2.30053 10.7896C2.2473 10.7869 2.2041 10.7516 2.18883 10.7023C2.17429 10.6705 2.17429 10.6343 2.18883 10.6023C2.19916 10.5704 2.2221 10.5469 2.25053 10.5383L12.1428 4.35088L4.97883 10.9369ZM6.4543 14.0263V12.3249L7.7503 13.4876L6.4543 14.0263ZM11.6558 15.3636C11.6256 15.4337 11.5637 15.4829 11.4903 15.4943C11.4308 15.5024 11.3704 15.4837 11.3263 15.4436L6.88683 11.5849L15.489 3.80355L12.4998 15.0263C12.4937 15.1508 12.4457 15.2689 12.365 15.3636H11.6558Z" fill="#0D70DF"/>
</svg> 