<svg width="608" height="170" viewBox="0 0 608 170" fill="none" xmlns="http://www.w3.org/2000/svg">
<path d="M305.118 57.5002V107.883H291.303V78.5557L271.661 107.883H258.222V57.5002H272.037V86.9216L291.679 57.5002H305.118Z" fill="black"/>
<path d="M243.556 57.5002V107.883H229.271V69.7199H212.072V107.883H197.787V57.5002H243.556Z" fill="black"/>
<path d="M149.807 95.6634H167.006V69.7199H153.567V70.8479C153.441 81.689 152.188 89.9608 149.807 95.6634ZM174.43 107.883H142.853L141.819 119.727H129.79V95.6634H135.24C138.498 88.7075 140.127 77.4278 140.127 61.8241V57.5002H181.291V95.6634H188.152L186.46 119.727H174.43V107.883Z" fill="black"/>
<path d="M115.216 101.397C110.016 106.473 103.531 109.011 95.762 109.011C87.993 109.011 81.5083 106.505 76.308 101.491C71.1704 96.4154 68.6016 90.1802 68.6016 82.7857C68.6016 75.4538 71.2017 69.25 76.402 64.1741C81.6649 59.0982 88.1809 56.5602 95.95 56.5602C103.719 56.5602 110.172 59.0982 115.31 64.1741C120.51 69.1873 123.11 75.3912 123.11 82.7857C123.11 90.1175 120.479 96.3214 115.216 101.397ZM95.95 96.6974C99.8972 96.6974 103.061 95.3814 105.442 92.7495C107.823 90.0549 109.013 86.7336 109.013 82.7857C109.013 78.9631 107.76 75.7045 105.254 73.0099C102.811 70.2526 99.6466 68.874 95.762 68.874C91.8148 68.874 88.6508 70.2213 86.27 72.9159C83.8891 75.5478 82.6987 78.8378 82.6987 82.7857C82.6987 86.6083 83.9204 89.8982 86.364 92.6555C88.8701 95.3501 92.0655 96.6974 95.95 96.6974Z" fill="black"/>
<path d="M0 107.883V42.0847H54.8849V107.883H40.4118V55.1504H14.4731V107.883H0Z" fill="black"/>
<path d="M608 57.8269V108.21H593.715V88.9402H576.141V108.21H561.855V57.8269H576.141V77.1905H593.715V57.8269H608Z" fill="#F79900"/>
<path d="M541.738 101.724C536.537 106.8 530.053 109.338 522.284 109.338C514.514 109.338 508.03 106.831 502.829 101.818C497.692 96.7421 495.123 90.5069 495.123 83.1124C495.123 75.7806 497.723 69.5767 502.923 64.5008C508.186 59.4249 514.702 56.887 522.471 56.887C530.241 56.887 536.694 59.4249 541.832 64.5008C547.032 69.514 549.632 75.7179 549.632 83.1124C549.632 90.4443 547.001 96.6481 541.738 101.724ZM522.471 97.0241C526.419 97.0241 529.583 95.7081 531.964 93.0762C534.344 90.3816 535.535 87.0603 535.535 83.1124C535.535 79.2898 534.282 76.0312 531.776 73.3366C529.332 70.5793 526.168 69.2007 522.284 69.2007C518.336 69.2007 515.172 70.548 512.791 73.2426C510.411 75.8746 509.22 79.1645 509.22 83.1124C509.22 86.935 510.442 90.2249 512.885 92.9822C515.392 95.6768 518.587 97.0241 522.471 97.0241Z" fill="#F79900"/>
<path d="M442.413 57.8269H482.919V108.21H468.634V70.0466H455.852C455.852 76.6892 455.602 82.2977 455.101 86.8723C454.599 91.4469 453.91 95.1755 453.033 98.0581C452.156 100.941 450.934 103.165 449.368 104.732C447.801 106.299 446.11 107.364 444.293 107.928C442.476 108.492 440.22 108.774 437.526 108.774C434.957 108.774 432.545 108.492 430.29 107.928L431.229 96.3661C432.357 96.5541 433.36 96.6481 434.237 96.6481C435.74 96.6481 436.931 96.3034 437.808 95.6141C438.685 94.8621 439.5 93.2328 440.252 90.7262C441.066 88.1569 441.63 84.2403 441.943 78.9765C442.256 73.6499 442.413 66.6001 442.413 57.8269Z" fill="#F79900"/>
<path d="M402.923 118.683C398.121 99.1824 392.408 88.747 379.374 72.7812C368.661 81.4299 361.416 83.6692 346.55 83.9884C350.219 87.746 354.402 88.3302 363.763 87.991C356.83 105.914 350.762 110.994 334.942 111.606C337.507 113.044 338.587 114.109 342.733 114.106C362.033 126.203 383.623 127.184 402.923 118.683Z" fill="#F79900"/>
<path d="M314.927 60.7734C319.96 -6.90779 399.49 -19.5418 430.212 30.3537H423.807L436.616 58.3719L393.385 85.1892L386.179 50.767L398.188 75.9833L430.212 56.3706L408.996 12.7423C394.725 24.9305 388.984 30.9246 383.377 39.96C383.566 34.2162 385.025 30.4319 388.981 23.1491L379.374 24.7501C374.512 25.9148 372.226 25.8138 368.567 24.7501C358.326 30.23 354.157 34.1952 349.352 42.7618C342.011 55.0224 340.67 64.896 343.348 87.991V91.5934C344.949 105.602 332.94 107.204 326.936 98.7981C320.932 90.3926 315.92 79.0375 314.927 64.3758V60.7734Z" fill="#F79900"/>
<path d="M368.567 54.3693V47.9651C364.152 49.0211 360.961 54.3693 360.961 54.3693C363.684 52.8131 365.273 52.7769 368.567 54.3693Z" fill="#F79900"/>
<path d="M391.381 43.8519L406.957 27.401L409.345 31.6926L392.438 45.9977L391.381 43.8519Z" fill="#F79900"/>
<path d="M412.33 38.1299L395.256 51.7198L396.665 54.5808L414.276 42.0161L412.33 38.1299Z" fill="#F79900"/>
<path d="M416.986 47.4282L399.483 60.3029L400.539 62.4487L418.777 51.0045L416.986 47.4282Z" fill="#F79900"/>
<path d="M220.624 160.52C219.393 160.52 218.223 160.329 217.114 159.948C216.022 159.549 215.121 159.003 214.41 158.31L215.502 155.658C216.282 156.317 217.079 156.802 217.894 157.114C218.709 157.409 219.584 157.556 220.52 157.556C222.271 157.556 223.64 157.045 224.628 156.022C225.633 154.982 226.179 153.465 226.266 151.472L227.254 152.252H217.894V149.6H227.202L226.24 150.432C226.136 148.577 225.599 147.147 224.628 146.142C223.675 145.137 222.392 144.634 220.78 144.634C219.844 144.634 218.96 144.781 218.128 145.076C217.296 145.353 216.421 145.839 215.502 146.532L214.41 143.88C215.259 143.169 216.239 142.623 217.348 142.242C218.475 141.861 219.653 141.67 220.884 141.67C222.704 141.67 224.273 142.06 225.59 142.84C226.925 143.603 227.947 144.686 228.658 146.09C229.386 147.494 229.75 149.158 229.75 151.082C229.75 153.006 229.386 154.679 228.658 156.1C227.93 157.504 226.881 158.596 225.512 159.376C224.16 160.139 222.531 160.52 220.624 160.52ZM232.043 164.55V157.608H233.863C234.417 156.915 234.877 156.057 235.241 155.034C235.605 154.011 235.873 152.807 236.047 151.42C236.22 150.033 236.307 148.465 236.307 146.714V141.93H249.281V157.608H251.881V164.55H248.917V160.26H235.007V164.55H232.043ZM237.243 157.608H245.927V144.582H239.401V147.026C239.401 148.69 239.323 150.181 239.167 151.498C239.011 152.798 238.768 153.951 238.439 154.956C238.127 155.961 237.728 156.845 237.243 157.608ZM263.706 160.52C262.372 160.52 261.158 160.303 260.066 159.87C258.992 159.419 258.064 158.778 257.284 157.946C256.522 157.114 255.932 156.117 255.516 154.956C255.1 153.795 254.892 152.503 254.892 151.082C254.892 149.643 255.1 148.352 255.516 147.208C255.932 146.047 256.522 145.059 257.284 144.244C258.064 143.412 258.992 142.779 260.066 142.346C261.158 141.895 262.372 141.67 263.706 141.67C265.041 141.67 266.246 141.895 267.32 142.346C268.412 142.779 269.34 143.403 270.102 144.218C270.882 145.033 271.48 146.021 271.896 147.182C272.312 148.326 272.52 149.617 272.52 151.056C272.52 152.495 272.312 153.795 271.896 154.956C271.48 156.117 270.882 157.114 270.102 157.946C269.34 158.778 268.412 159.419 267.32 159.87C266.246 160.303 265.041 160.52 263.706 160.52ZM263.706 157.66C264.833 157.66 265.786 157.4 266.566 156.88C267.364 156.36 267.97 155.606 268.386 154.618C268.82 153.63 269.036 152.451 269.036 151.082C269.036 149.695 268.828 148.517 268.412 147.546C267.996 146.558 267.39 145.813 266.592 145.31C265.795 144.79 264.833 144.53 263.706 144.53C262.597 144.53 261.644 144.79 260.846 145.31C260.049 145.813 259.434 146.558 259 147.546C258.584 148.517 258.376 149.695 258.376 151.082C258.376 152.451 258.584 153.63 259 154.618C259.434 155.606 260.049 156.36 260.846 156.88C261.644 157.4 262.597 157.66 263.706 157.66ZM283.666 163.64V157.712H285.122C285.469 157.175 285.737 156.603 285.928 155.996C286.136 155.372 286.283 154.67 286.37 153.89C286.474 153.093 286.526 152.183 286.526 151.16V147.546H296.432V157.712H298.512V163.64H295.756V160.26H286.422V163.64H283.666ZM288.06 157.712H293.39V150.042H289.308V151.914C289.308 153.006 289.195 154.063 288.97 155.086C288.762 156.109 288.459 156.984 288.06 157.712ZM301.61 160.624L300.596 158.05C301.151 157.859 301.61 157.608 301.974 157.296C302.356 156.967 302.659 156.551 302.884 156.048C303.11 155.528 303.274 154.895 303.378 154.15C303.482 153.405 303.534 152.512 303.534 151.472V147.546H313.778V160.26H310.528V150.094H306.524V151.576C306.524 152.945 306.429 154.15 306.238 155.19C306.048 156.23 305.753 157.114 305.354 157.842C304.973 158.57 304.47 159.168 303.846 159.636C303.222 160.087 302.477 160.416 301.61 160.624ZM317.41 160.26L319.308 156.984C319.637 156.395 320.053 155.927 320.556 155.58C321.059 155.216 321.579 155.034 322.116 155.034H322.636V155.32C321.648 155.32 320.807 155.173 320.114 154.878C319.421 154.583 318.892 154.15 318.528 153.578C318.181 153.006 318.008 152.313 318.008 151.498C318.008 150.267 318.424 149.305 319.256 148.612C320.088 147.901 321.31 147.546 322.922 147.546H329.396V160.26H326.38V155.866H325.028C324.508 155.866 324.057 156.005 323.676 156.282C323.295 156.559 322.983 156.906 322.74 157.322L321.076 160.26H317.41ZM323.598 153.734H326.38V149.678H323.598C322.749 149.678 322.116 149.86 321.7 150.224C321.284 150.571 321.076 151.056 321.076 151.68C321.076 152.321 321.284 152.824 321.7 153.188C322.116 153.552 322.749 153.734 323.598 153.734ZM342.32 160.26V141.93H350.328C352.252 141.93 353.743 142.355 354.8 143.204C355.857 144.036 356.386 145.197 356.386 146.688C356.386 147.797 356.065 148.733 355.424 149.496C354.783 150.259 353.907 150.77 352.798 151.03V150.64C353.647 150.761 354.375 151.021 354.982 151.42C355.589 151.819 356.048 152.33 356.36 152.954C356.689 153.578 356.854 154.306 356.854 155.138C356.854 156.213 356.603 157.14 356.1 157.92C355.615 158.683 354.904 159.263 353.968 159.662C353.032 160.061 351.914 160.26 350.614 160.26H342.32ZM345.518 157.738H350.198C350.666 157.738 351.082 157.703 351.446 157.634C351.827 157.565 352.148 157.461 352.408 157.322C352.685 157.166 352.911 156.975 353.084 156.75C353.275 156.525 353.413 156.265 353.5 155.97C353.587 155.675 353.63 155.346 353.63 154.982C353.63 154.601 353.587 154.263 353.5 153.968C353.413 153.673 353.275 153.422 353.084 153.214C352.911 152.989 352.685 152.807 352.408 152.668C352.148 152.512 351.827 152.399 351.446 152.33C351.082 152.261 350.666 152.226 350.198 152.226H345.518V157.738ZM345.518 149.704H349.756C350.9 149.704 351.749 149.487 352.304 149.054C352.876 148.603 353.162 147.945 353.162 147.078C353.162 146.211 352.876 145.561 352.304 145.128C351.749 144.677 350.9 144.452 349.756 144.452H345.518V149.704ZM361.338 160.26V157.79L367.266 151.472C367.804 150.9 368.228 150.371 368.54 149.886C368.87 149.401 369.112 148.933 369.268 148.482C369.424 148.031 369.502 147.581 369.502 147.13C369.502 146.263 369.225 145.605 368.67 145.154C368.133 144.703 367.344 144.478 366.304 144.478C365.49 144.478 364.692 144.634 363.912 144.946C363.15 145.241 362.413 145.709 361.702 146.35L360.584 143.854C361.312 143.195 362.222 142.667 363.314 142.268C364.406 141.869 365.542 141.67 366.72 141.67C368.038 141.67 369.147 141.869 370.048 142.268C370.95 142.667 371.634 143.247 372.102 144.01C372.57 144.773 372.804 145.7 372.804 146.792C372.804 147.347 372.735 147.893 372.596 148.43C372.475 148.95 372.276 149.47 371.998 149.99C371.738 150.51 371.4 151.047 370.984 151.602C370.586 152.139 370.1 152.703 369.528 153.292L364.64 158.388V157.504H373.506V160.26H361.338ZM386.418 160.52C384.512 160.52 382.874 160.139 381.504 159.376C380.152 158.596 379.112 157.504 378.384 156.1C377.656 154.679 377.292 153.006 377.292 151.082C377.292 149.158 377.656 147.494 378.384 146.09C379.112 144.686 380.152 143.603 381.504 142.84C382.874 142.06 384.512 141.67 386.418 141.67C387.649 141.67 388.81 141.861 389.902 142.242C391.012 142.623 391.922 143.169 392.632 143.88L391.54 146.532C390.76 145.873 389.963 145.397 389.148 145.102C388.334 144.79 387.458 144.634 386.522 144.634C384.668 144.634 383.255 145.197 382.284 146.324C381.314 147.433 380.828 149.019 380.828 151.082C380.828 153.145 381.314 154.739 382.284 155.866C383.255 156.993 384.668 157.556 386.522 157.556C387.458 157.556 388.334 157.409 389.148 157.114C389.963 156.802 390.76 156.317 391.54 155.658L392.632 158.31C391.922 159.003 391.012 159.549 389.902 159.948C388.81 160.329 387.649 160.52 386.418 160.52Z" fill="black"/>
</svg>
