<svg width="910" height="911" viewBox="0 0 910 911" fill="none" xmlns="http://www.w3.org/2000/svg">
<path d="M549.043 130.566C553.771 131.945 558.456 133.426 563.096 135.004L562.775 135.95C567.422 137.531 572.024 139.21 576.577 140.986L576.94 140.056C581.525 141.844 586.061 143.73 590.547 145.711L590.144 146.625C594.632 148.607 599.068 150.685 603.45 152.854L603.892 151.959C608.301 154.142 612.655 156.418 616.952 158.785L616.469 159.661C620.764 162.028 625.003 164.485 629.18 167.031L629.7 166.178C633.899 168.737 638.039 171.386 642.115 174.121L641.558 174.95C645.629 177.682 649.637 180.5 653.58 183.402L654.172 182.597C658.13 185.511 662.024 188.509 665.848 191.589L665.222 192.368C669.038 195.442 672.786 198.597 676.463 201.831L677.123 201.08C680.812 204.325 684.43 207.65 687.974 211.052L687.283 211.773C690.817 215.165 694.278 218.633 697.662 222.175L698.383 221.483C701.776 225.035 705.093 228.66 708.331 232.357L707.58 233.017C710.806 236.7 713.953 240.455 717.018 244.278L717.797 243.653C720.868 247.484 723.858 251.383 726.763 255.348L725.959 255.939C728.852 259.888 731.662 263.902 734.385 267.979L735.216 267.423C737.942 271.505 740.583 275.649 743.135 279.854H743.135L742.281 280.373C744.819 284.556 747.268 288.798 749.627 293.098L750.502 292.616C752.861 296.917 755.129 301.275 757.304 305.688L756.409 306.13C758.571 310.516 760.641 314.955 762.616 319.446L763.529 319.044C765.503 323.532 767.382 328.072 769.164 332.66L768.233 333.022C770.002 337.578 771.675 342.182 773.25 346.831L774.195 346.511C775.767 351.153 777.242 355.839 778.615 360.569H778.616L777.655 360.849C779.017 365.54 780.281 370.273 781.442 375.047L782.414 374.811V374.81C783.572 379.57 784.63 384.369 785.585 389.206V389.207L784.604 389.4C785.55 394.192 786.394 399.02 787.135 403.883L788.123 403.732C788.859 408.568 789.494 413.438 790.023 418.339H790.024L789.03 418.446C789.554 423.293 789.974 428.171 790.291 433.078L791.288 433.014C791.602 437.892 791.812 442.799 791.918 447.732L790.921 447.753C790.973 450.204 791 452.662 791 455.125C791 457.589 790.973 460.046 790.921 462.497L791.918 462.518C791.812 467.45 791.602 472.357 791.288 477.235L790.291 477.172C789.974 482.079 789.554 486.957 789.03 491.804L790.023 491.91C789.494 496.811 788.859 501.681 788.123 506.517L787.135 506.367C786.394 511.23 785.55 516.058 784.604 520.85L785.585 521.043C784.63 525.88 783.572 530.679 782.414 535.439L781.442 535.203C780.281 539.977 779.017 544.71 777.655 549.401L778.615 549.68C777.242 554.41 775.767 559.096 774.195 563.738L773.25 563.419C771.675 568.068 770.002 572.672 768.233 577.228L769.164 577.589C767.382 582.177 765.503 586.717 763.529 591.205L762.616 590.804C760.641 595.295 758.571 599.734 756.409 604.12L757.304 604.562C755.129 608.974 752.861 613.332 750.502 617.633L749.627 617.152C747.268 621.452 744.819 625.694 742.281 629.877L743.135 630.395C740.583 634.6 737.942 638.744 735.216 642.826L734.385 642.271C731.662 646.348 728.852 650.362 725.959 654.311L726.764 654.9C723.859 658.866 720.868 662.765 717.797 666.596L717.018 665.972C713.953 669.795 710.806 673.55 707.58 677.233L708.331 677.892C705.093 681.589 701.776 685.214 698.383 688.766L697.662 688.075C694.278 691.617 690.817 695.085 687.283 698.477L687.974 699.197C684.43 702.599 680.812 705.924 677.123 709.169L676.464 708.419C672.787 711.653 669.039 714.808 665.222 717.882L665.848 718.659C662.024 721.74 658.131 724.738 654.172 727.652L653.58 726.848C649.637 729.75 645.629 732.568 641.558 735.3L642.115 736.128C638.039 738.863 633.899 741.512 629.7 744.071L629.18 743.219C625.003 745.765 620.765 748.223 616.47 750.589L616.952 751.464C612.655 753.831 608.301 756.107 603.892 758.29L603.45 757.396C599.068 759.565 594.632 761.643 590.144 763.625L590.547 764.538C586.061 766.519 581.525 768.405 576.94 770.193L576.577 769.264C572.024 771.04 567.422 772.719 562.775 774.3L563.096 775.245C558.456 776.823 553.771 778.304 549.043 779.683L548.764 778.724C544.075 780.092 539.342 781.36 534.57 782.526L534.806 783.497C530.047 784.66 525.249 785.723 520.413 786.682L520.219 785.701C515.429 786.651 510.601 787.499 505.739 788.243L505.89 789.231C501.055 789.971 496.186 790.608 491.285 791.14L491.177 790.146C486.331 790.673 481.452 791.095 476.546 791.413L476.61 792.41C471.731 792.726 466.824 792.937 461.891 793.043L461.871 792.046C459.42 792.099 456.963 792.125 454.5 792.125C452.036 792.125 449.579 792.099 447.128 792.046L447.106 793.043C442.173 792.937 437.267 792.726 432.388 792.41L432.453 791.413C427.547 791.095 422.669 790.673 417.822 790.146L417.714 791.14C412.813 790.608 407.944 789.971 403.108 789.231L403.26 788.243C398.399 787.499 393.571 786.651 388.78 785.701L388.586 786.682C383.75 785.723 378.951 784.66 374.192 783.497L374.429 782.526C369.657 781.36 364.925 780.092 360.235 778.724L359.956 779.683C355.227 778.304 350.542 776.823 345.902 775.245L346.224 774.3C341.577 772.719 336.976 771.04 332.423 769.264L332.058 770.193C327.473 768.405 322.937 766.519 318.452 764.538L318.855 763.625C314.368 761.643 309.932 759.565 305.55 757.396L305.106 758.29C300.698 756.107 296.344 753.831 292.047 751.464L292.53 750.589C288.235 748.222 283.997 745.765 279.819 743.219L279.299 744.071C275.099 741.512 270.96 738.863 266.884 736.128L267.441 735.3C263.37 732.568 259.362 729.75 255.42 726.848L254.827 727.652C250.868 724.738 246.975 721.74 243.15 718.66L243.778 717.882C239.962 714.808 236.214 711.653 232.537 708.419L231.876 709.169C228.186 705.924 224.568 702.599 221.024 699.197L221.717 698.477C218.182 695.085 214.722 691.617 211.338 688.075L210.616 688.766C207.223 685.214 203.905 681.589 200.668 677.892L201.42 677.233C198.194 673.55 195.047 669.795 191.981 665.972L191.202 666.596C188.13 662.765 185.141 658.866 182.235 654.901L183.041 654.311C180.147 650.362 177.337 646.348 174.614 642.271L173.783 642.826C171.056 638.744 168.415 634.6 165.864 630.395L166.719 629.877C164.181 625.694 161.731 621.452 159.373 617.152L158.497 617.633C156.138 613.332 153.869 608.974 151.694 604.562L152.591 604.12C150.428 599.734 148.358 595.295 146.384 590.804L145.469 591.205C143.496 586.717 141.616 582.177 139.835 577.589L140.766 577.228C138.997 572.672 137.324 568.068 135.75 563.419L134.803 563.738C133.232 559.096 131.757 554.41 130.384 549.68L131.344 549.401C129.982 544.71 128.719 539.977 127.557 535.203L126.585 535.439C125.426 530.679 124.369 525.88 123.414 521.043L124.395 520.85C123.449 516.058 122.606 511.23 121.865 506.367L120.876 506.517C120.139 501.681 119.505 496.811 118.975 491.91L119.969 491.804C119.446 486.957 119.025 482.079 118.709 477.172L117.711 477.235C117.396 472.357 117.186 467.45 117.081 462.517L118.079 462.497C118.026 460.046 118 457.588 118 455.125C118 452.661 118.026 450.204 118.079 447.753L117.081 447.731C117.187 442.799 117.396 437.892 117.711 433.014L118.709 433.078C119.025 428.171 119.446 423.293 119.969 418.446L118.975 418.339C119.505 413.438 120.139 408.568 120.876 403.732L121.865 403.883C122.606 399.02 123.449 394.192 124.395 389.4L123.415 389.207L123.414 389.206C124.369 384.369 125.426 379.57 126.585 374.81L126.586 374.811L127.557 375.047C128.719 370.273 129.982 365.54 131.344 360.849L130.384 360.569C131.757 355.839 133.232 351.153 134.803 346.511L135.75 346.831C137.324 342.182 138.997 337.578 140.766 333.022L139.835 332.66C141.616 328.072 143.496 323.532 145.469 319.044L146.384 319.446C148.358 314.955 150.428 310.516 152.591 306.13L151.694 305.688C153.869 301.275 156.138 296.917 158.497 292.616L159.373 293.098C161.731 288.798 164.181 284.556 166.719 280.373L165.864 279.854C168.415 275.649 171.056 271.505 173.783 267.423L174.614 267.979C177.337 263.902 180.147 259.888 183.041 255.939L182.234 255.349C185.14 251.383 188.13 247.484 191.202 243.653L191.981 244.278C195.047 240.455 198.194 236.7 201.42 233.017L200.668 232.357C203.905 228.66 207.223 225.035 210.616 221.483L211.338 222.175C214.722 218.633 218.182 215.165 221.717 211.773L221.024 211.052C224.568 207.65 228.186 204.325 231.876 201.08L232.536 201.831C236.213 198.597 239.961 195.442 243.777 192.368L243.15 191.59C246.975 188.509 250.868 185.511 254.827 182.597L255.42 183.402C259.362 180.5 263.37 177.682 267.441 174.95L266.884 174.121C270.96 171.386 275.099 168.737 279.299 166.178L279.819 167.031C283.997 164.485 288.234 162.027 292.529 159.661L292.047 158.785C296.344 156.418 300.698 154.142 305.106 151.959L305.55 152.854C309.932 150.685 314.368 148.607 318.855 146.625L318.452 145.711C322.937 143.73 327.473 141.844 332.058 140.056L332.423 140.986C336.976 139.21 341.577 137.531 346.224 135.95L345.902 135.004C349.938 133.631 354.008 132.333 358.111 131.11L359.956 130.566L360.235 131.526C364.925 130.158 369.657 128.89 374.429 127.724L374.192 126.752C378.951 125.589 383.75 124.526 388.586 123.567L388.78 124.549C393.571 123.599 398.399 122.751 403.26 122.007L403.109 121.019L403.108 121.018C407.944 120.278 412.813 119.641 417.714 119.109L417.822 120.104C422.669 119.577 427.547 119.155 432.454 118.837L432.388 117.839C437.267 117.523 442.174 117.312 447.107 117.206L447.129 118.204C449.579 118.151 452.036 118.125 454.5 118.125C456.963 118.125 459.421 118.151 461.872 118.204L461.892 117.206C466.825 117.312 471.732 117.523 476.61 117.839L476.547 118.837C481.453 119.155 486.331 119.577 491.177 120.104L491.285 119.109C496.186 119.641 501.055 120.278 505.89 121.018V121.019L505.739 122.007C510.601 122.751 515.429 123.599 520.219 124.549L520.413 123.567C525.249 124.526 530.047 125.589 534.806 126.752L534.57 127.724C539.342 128.89 544.075 130.158 548.764 131.526L549.043 130.566Z" stroke="url(#paint0_linear_523_1706)" stroke-opacity="0.39" stroke-width="2" stroke-dasharray="15 15"/>
<circle cx="455" cy="455.125" r="454" stroke="url(#paint1_linear_523_1706)" stroke-opacity="0.24" stroke-width="2" stroke-dasharray="15 15"/>
<circle cx="454.5" cy="455.625" r="222.5" stroke="url(#paint2_linear_523_1706)" stroke-opacity="0.77" stroke-width="2" stroke-dasharray="15 15"/>
<defs>
<linearGradient id="paint0_linear_523_1706" x1="249.962" y1="-510.766" x2="1033" y2="-344.95" gradientUnits="userSpaceOnUse">
<stop stop-color="#0D70DF"/>
<stop offset="1" stop-color="#E63637"/>
</linearGradient>
<linearGradient id="paint1_linear_523_1706" x1="179.253" y1="-845.113" x2="1234.77" y2="-621.266" gradientUnits="userSpaceOnUse">
<stop stop-color="#0D70DF"/>
<stop offset="1" stop-color="#E63637"/>
</linearGradient>
<linearGradient id="paint2_linear_523_1706" x1="319.05" y1="-183.063" x2="837.529" y2="-73.1077" gradientUnits="userSpaceOnUse">
<stop stop-color="#0D70DF"/>
<stop offset="1" stop-color="#E63637"/>
</linearGradient>
</defs>
</svg>
