<?xml version="1.0" encoding="UTF-8"?>
<svg id="Layer_2" data-name="Layer 2" xmlns="http://www.w3.org/2000/svg" viewBox="0 0 290.08 268.7">
  <defs>
    <style>
      .cls-1 {
        fill: none;
        stroke: #fff;
        stroke-linecap: round;
        stroke-linejoin: round;
        stroke-width: 2px;
      }

      .cls-2 {
        fill: #fff;
        stroke-width: 0px;
      }
    </style>
  </defs>
  <g id="_Слой_1" data-name="Слой 1">
    <g>
      <polygon class="cls-2" points="12.68 226.1 12.68 229.38 6.64 229.38 6.64 241.71 2.84 241.71 2.84 226.1 12.68 226.1"/>
      <path class="cls-2" d="M30.99,233.83c0,1.23-.21,2.36-.64,3.38-.43,1.02-1.02,1.9-1.78,2.62-.76.73-1.66,1.29-2.7,1.69-1.04.4-2.18.59-3.4.59s-2.35-.2-3.38-.59c-1.03-.4-1.93-.96-2.69-1.69-.76-.73-1.35-1.6-1.78-2.62s-.64-2.15-.64-3.38.21-2.38.64-3.38c.43-1.01,1.02-1.86,1.78-2.57.76-.71,1.65-1.25,2.69-1.63,1.04-.38,2.16-.57,3.38-.57s2.35.19,3.4.57c1.04.38,1.94.93,2.7,1.63.76.71,1.35,1.56,1.78,2.57.42,1.01.64,2.14.64,3.38M26.96,233.83c0-.68-.11-1.31-.33-1.9-.22-.59-.53-1.09-.92-1.51-.39-.42-.86-.75-1.41-.99-.55-.24-1.16-.36-1.82-.36s-1.26.12-1.81.36c-.54.24-1.01.57-1.41.99-.4.42-.7.92-.91,1.51-.21.59-.32,1.22-.32,1.9s.11,1.36.33,1.95.53,1.1.92,1.53c.39.43.86.76,1.4,1,.54.24,1.15.36,1.81.36s1.26-.12,1.81-.36c.54-.24,1.02-.58,1.41-1,.4-.43.71-.94.93-1.53s.33-1.25.33-1.95"/>
      <path class="cls-2" d="M34.93,241.71v3.07h-3.09v-6.24h2.69l4.72-12.43h3.66l4.67,12.43h2.78v6.24h-3.09v-3.07h-12.35ZM38.41,238.53h5.16l-2.58-8.2-2.58,8.2Z"/>
      <path class="cls-2" d="M59.18,241.71v3.07h-3.09v-6.24h2.69l4.72-12.43h3.66l4.67,12.43h2.78v6.24h-3.09v-3.07h-12.35ZM62.66,238.53h5.16l-2.58-8.2-2.58,8.2Z"/>
      <polygon class="cls-2" points="76.39 241.71 76.39 226.1 86.89 226.1 86.89 229.27 80.03 229.27 80.03 232.23 86.51 232.23 86.51 235.25 80.03 235.25 80.03 238.49 87.28 238.49 87.28 241.71 76.39 241.71"/>
      <polygon class="cls-2" points="96.78 229.32 96.78 241.71 93.01 241.71 93.01 229.32 88.6 229.32 88.6 226.1 101.19 226.1 101.19 229.32 96.78 229.32"/>
      <path class="cls-2" d="M114.06,241.43c-1.02.46-2.18.7-3.51.7-1.2,0-2.32-.2-3.34-.59-1.02-.4-1.91-.96-2.66-1.69-.75-.73-1.34-1.6-1.76-2.61-.43-1.01-.64-2.13-.64-3.35s.22-2.38.65-3.39c.43-1.02,1.03-1.88,1.8-2.59.76-.71,1.66-1.26,2.69-1.64,1.03-.38,2.14-.57,3.33-.57,1.1,0,2.19.19,3.25.58,1.07.39,1.93.96,2.59,1.71l-2.56,2.56c-.35-.49-.81-.85-1.39-1.08-.57-.24-1.16-.35-1.76-.35-.66,0-1.27.12-1.82.36-.55.24-1.02.58-1.42,1-.4.43-.71.93-.93,1.51-.22.58-.33,1.22-.33,1.91s.11,1.35.33,1.94c.22.59.53,1.09.92,1.51.39.42.86.75,1.4.98.54.24,1.14.35,1.79.35.75,0,1.4-.15,1.96-.44.56-.29,1-.68,1.34-1.15l2.62,2.47c-.69.79-1.54,1.42-2.56,1.88"/>
      <path class="cls-2" d="M118.45,241.71v-15.61h3.75v5.66c.2,0,.41,0,.61.01.2,0,.39.02.58.03l4.78-5.71h4.1l-5.23,6.59c.66.32,1.27.74,1.83,1.25.56.51,1.07,1.13,1.52,1.86.45.73.85,1.59,1.19,2.57.34.98.63,2.09.86,3.34h-4.1c-.22-1.19-.5-2.22-.83-3.09-.33-.87-.74-1.58-1.22-2.13-.49-.55-1.07-.95-1.74-1.21-.68-.26-1.46-.37-2.36-.34v6.77h-3.75Z"/>
      <path class="cls-2" d="M150.08,233.83c0,1.23-.21,2.36-.64,3.38-.43,1.02-1.02,1.9-1.78,2.62-.76.73-1.66,1.29-2.7,1.69-1.04.4-2.18.59-3.4.59s-2.35-.2-3.38-.59c-1.03-.4-1.93-.96-2.69-1.69-.76-.73-1.35-1.6-1.78-2.62s-.64-2.15-.64-3.38.21-2.38.64-3.38c.43-1.01,1.02-1.86,1.78-2.57.76-.71,1.65-1.25,2.69-1.63,1.04-.38,2.16-.57,3.38-.57s2.35.19,3.4.57c1.04.38,1.94.93,2.7,1.63.76.71,1.35,1.56,1.78,2.57.42,1.01.64,2.14.64,3.38M146.05,233.83c0-.68-.11-1.31-.33-1.9-.22-.59-.53-1.09-.92-1.51-.39-.42-.86-.75-1.41-.99-.55-.24-1.16-.36-1.82-.36s-1.26.12-1.81.36c-.54.24-1.01.57-1.41.99-.4.42-.7.92-.91,1.51-.21.59-.32,1.22-.32,1.9s.11,1.36.33,1.95.53,1.1.92,1.53c.39.43.86.76,1.4,1,.54.24,1.15.36,1.81.36s1.26-.12,1.81-.36c.54-.24,1.02-.58,1.41-1,.4-.43.71-.94.93-1.53s.33-1.25.33-1.95"/>
      <polygon class="cls-2" points="162.33 226.1 162.33 229.38 156.28 229.38 156.28 241.71 152.49 241.71 152.49 226.1 162.33 226.1"/>
      <path class="cls-2" d="M180.64,233.83c0,1.23-.21,2.36-.64,3.38-.43,1.02-1.02,1.9-1.78,2.62-.76.73-1.66,1.29-2.7,1.69-1.04.4-2.18.59-3.4.59s-2.35-.2-3.38-.59c-1.03-.4-1.93-.96-2.69-1.69-.76-.73-1.35-1.6-1.78-2.62s-.64-2.15-.64-3.38.21-2.38.64-3.38c.43-1.01,1.02-1.86,1.78-2.57.76-.71,1.65-1.25,2.69-1.63,1.04-.38,2.16-.57,3.38-.57s2.35.19,3.4.57c1.04.38,1.94.93,2.7,1.63.76.71,1.35,1.56,1.78,2.57.42,1.01.64,2.14.64,3.38M176.6,233.83c0-.68-.11-1.31-.33-1.9-.22-.59-.53-1.09-.92-1.51-.39-.42-.86-.75-1.41-.99-.55-.24-1.16-.36-1.82-.36s-1.26.12-1.81.36c-.54.24-1.01.57-1.41.99-.4.42-.7.92-.91,1.51-.21.59-.32,1.22-.32,1.9s.11,1.36.33,1.95.53,1.1.92,1.53c.39.43.86.76,1.4,1,.54.24,1.15.36,1.81.36s1.26-.12,1.81-.36c.54-.24,1.02-.58,1.41-1,.4-.43.71-.94.93-1.53s.33-1.25.33-1.95"/>
      <path class="cls-2" d="M205.35,233.83c0,1.23-.21,2.36-.64,3.38-.43,1.02-1.02,1.9-1.78,2.62-.76.73-1.66,1.29-2.7,1.69-1.04.4-2.18.59-3.4.59s-2.35-.2-3.38-.59c-1.03-.4-1.93-.96-2.69-1.69-.76-.73-1.35-1.6-1.78-2.62s-.64-2.15-.64-3.38.21-2.38.64-3.38c.43-1.01,1.02-1.86,1.78-2.57.76-.71,1.65-1.25,2.69-1.63,1.04-.38,2.16-.57,3.38-.57s2.35.19,3.4.57c1.04.38,1.94.93,2.7,1.63.76.71,1.35,1.56,1.78,2.57.42,1.01.64,2.14.64,3.38M201.32,233.83c0-.68-.11-1.31-.33-1.9-.22-.59-.53-1.09-.92-1.51-.39-.42-.86-.75-1.41-.99-.55-.24-1.16-.36-1.82-.36s-1.26.12-1.81.36c-.54.24-1.01.57-1.41.99-.4.42-.7.92-.91,1.51-.21.59-.32,1.22-.32,1.9s.11,1.36.33,1.95.53,1.1.92,1.53c.39.43.86.76,1.4,1,.54.24,1.15.36,1.81.36s1.26-.12,1.81-.36c.54-.24,1.02-.58,1.41-1,.4-.43.71-.94.93-1.53s.33-1.25.33-1.95"/>
      <polygon class="cls-2" points="214.51 229.32 214.51 241.71 210.74 241.71 210.74 229.32 206.33 229.32 206.33 226.1 218.92 226.1 218.92 229.32 214.51 229.32"/>
      <path class="cls-2" d="M220.81,241.71v3.07h-3.09v-6.24h2.69l4.72-12.43h3.66l4.67,12.43h2.78v6.24h-3.09v-3.07h-12.35ZM224.29,238.53h5.16l-2.58-8.2-2.58,8.2Z"/>
      <path class="cls-2" d="M241.77,226.1v5.69h.97c.9,0,1.74.07,2.54.22.8.15,1.5.4,2.08.76.59.36,1.05.84,1.4,1.44.35.6.52,1.35.52,2.25s-.17,1.68-.52,2.34c-.35.66-.82,1.21-1.42,1.63-.6.43-1.31.75-2.1.96-.8.21-1.66.32-2.57.32h-4.65v-15.61h3.75ZM241.77,238.53h1.26c.94,0,1.58-.17,1.93-.51.34-.34.52-.79.52-1.34,0-.25-.04-.48-.12-.68-.08-.2-.21-.39-.4-.54-.19-.16-.43-.28-.75-.36-.32-.09-.71-.13-1.18-.13h-1.26v3.57ZM254,241.7h-3.75v-15.61h3.75v15.61Z"/>
      <polygon class="cls-2" points="266.95 241.71 263.53 236.19 260.25 241.71 255.75 241.71 261.22 233.46 256.19 226.1 260.73 226.1 263.64 230.95 266.51 226.1 270.9 226.1 265.96 233.46 271.6 241.71 266.95 241.71"/>
      <path class="cls-2" d="M276.5,241.71h-4.1l6.55-15.61h3.66l6.48,15.61h-4.19l-1.21-3.06h-6.04l-1.15,3.06ZM278.72,235.62h3.92l-1.94-5.36-1.98,5.36Z"/>
      <path class="cls-2" d="M2.85,253.36h4.84c.56,0,1.14.06,1.72.18.58.12,1.11.32,1.58.61.46.29.85.68,1.14,1.17s.44,1.11.44,1.86c0,.8-.24,1.49-.71,2.07-.47.58-1.1.97-1.89,1.16v.04c.48.06.92.18,1.32.37.4.19.75.44,1.05.75.3.31.53.68.7,1.11.17.43.25.91.25,1.43,0,.68-.14,1.28-.41,1.8-.27.52-.66.96-1.16,1.32-.5.36-1.1.63-1.79.81-.69.18-1.44.27-2.26.27H2.85v-14.96ZM4.87,259.76h2.78c.35,0,.7-.04,1.05-.13.35-.08.66-.22.93-.4.27-.18.48-.42.65-.73s.25-.67.25-1.11-.08-.78-.24-1.07c-.16-.29-.39-.53-.68-.72-.29-.19-.64-.33-1.03-.41s-.82-.13-1.28-.13h-2.42v4.69ZM4.87,266.61h2.63c.48,0,.94-.05,1.39-.14.45-.09.85-.24,1.19-.45.34-.21.62-.48.82-.81.2-.33.3-.74.3-1.24,0-.89-.31-1.54-.94-1.97-.63-.42-1.48-.63-2.58-.63h-2.82v5.24Z"/>
      <path class="cls-2" d="M34.88,266c-.27.38-.59.73-.97,1.06-.38.32-.81.61-1.28.86-.47.25-.99.44-1.56.58-.57.14-1.19.21-1.85.21-1.14,0-2.19-.19-3.15-.58-.96-.39-1.79-.93-2.48-1.63-.7-.7-1.24-1.53-1.64-2.49s-.59-2.02-.59-3.16.2-2.21.6-3.17c.4-.96.95-1.78,1.66-2.48s1.54-1.24,2.49-1.63c.96-.39,2-.58,3.13-.58.54,0,1.07.05,1.59.16.53.11,1.03.26,1.5.46.47.2.91.44,1.3.73.39.29.73.62.99.98l-1.56,1.31c-.32-.48-.82-.9-1.49-1.27-.67-.37-1.43-.55-2.29-.55s-1.68.16-2.39.49c-.7.32-1.3.76-1.8,1.31-.49.55-.87,1.19-1.14,1.92-.27.73-.4,1.51-.4,2.32s.13,1.61.4,2.34c.27.73.65,1.36,1.14,1.91.49.55,1.09.98,1.8,1.3.7.32,1.49.48,2.37.48s1.6-.17,2.31-.5c.71-.33,1.3-.84,1.76-1.53l1.54,1.16Z"/>
      <polygon class="cls-2" points="39.31 265.39 47.39 253.36 49.84 253.36 49.84 268.32 47.81 268.32 47.81 256.23 47.77 256.23 39.69 268.32 37.24 268.32 37.24 253.36 39.27 253.36 39.27 265.39 39.31 265.39"/>
      <path class="cls-2" d="M66.18,266c-.27.38-.59.73-.97,1.06-.38.32-.81.61-1.28.86-.47.25-.99.44-1.56.58-.57.14-1.19.21-1.85.21-1.14,0-2.19-.19-3.15-.58-.96-.39-1.79-.93-2.48-1.63-.7-.7-1.24-1.53-1.64-2.49s-.59-2.02-.59-3.16.2-2.21.6-3.17c.4-.96.95-1.78,1.66-2.48s1.54-1.24,2.49-1.63c.96-.39,2-.58,3.13-.58.54,0,1.07.05,1.59.16.53.11,1.03.26,1.5.46.47.2.91.44,1.3.73.39.29.73.62.99.98l-1.56,1.31c-.32-.48-.82-.9-1.49-1.27-.67-.37-1.43-.55-2.29-.55s-1.68.16-2.39.49c-.7.32-1.3.76-1.8,1.31-.49.55-.87,1.19-1.14,1.92-.27.73-.4,1.51-.4,2.32s.13,1.61.4,2.34c.27.73.65,1.36,1.14,1.91.49.55,1.09.98,1.8,1.3.7.32,1.49.48,2.37.48s1.6-.17,2.31-.5c.71-.33,1.3-.84,1.76-1.53l1.54,1.16Z"/>
      <polygon class="cls-2" points="74.43 268.32 72.4 268.32 72.4 255.16 67.58 255.16 67.58 253.36 79.25 253.36 79.25 255.16 74.43 255.16 74.43 268.32"/>
      <polygon class="cls-2" points="83.52 266.53 91.28 266.53 91.28 268.32 81.49 268.32 81.49 253.36 90.98 253.36 90.98 255.16 83.52 255.16 83.52 259.7 90.52 259.7 90.52 261.43 83.52 261.43 83.52 266.53"/>
      <polygon class="cls-2" points="101.54 265.03 101.58 265.03 106.14 253.36 109.21 253.36 109.21 268.32 107.18 268.32 107.2 255.94 107.14 255.94 102.13 268.32 100.88 268.32 95.9 255.94 95.83 255.94 95.85 268.32 93.86 268.32 93.86 253.36 96.91 253.36 101.54 265.03"/>
      <polygon class="cls-2" points="114.86 266.53 122.62 266.53 122.62 268.32 112.83 268.32 112.83 253.36 122.32 253.36 122.32 255.16 114.86 255.16 114.86 259.7 121.86 259.7 121.86 261.43 114.86 261.43 114.86 266.53"/>
      <path class="cls-2" d="M146.12,260.82c0,1.16-.2,2.22-.59,3.18s-.94,1.8-1.65,2.49c-.71.7-1.54,1.24-2.51,1.63-.97.39-2.01.58-3.14.58s-2.17-.19-3.14-.58c-.97-.39-1.8-.93-2.5-1.63-.7-.7-1.25-1.53-1.65-2.49-.39-.97-.59-2.02-.59-3.18s.2-2.21.59-3.17c.39-.96.94-1.78,1.65-2.47.7-.69,1.54-1.23,2.5-1.62.97-.39,2.01-.58,3.14-.58s2.17.19,3.14.58c.97.39,1.8.93,2.51,1.62.7.69,1.25,1.51,1.65,2.47.39.96.59,2.02.59,3.17M143.94,260.82c0-.82-.13-1.59-.4-2.31-.27-.73-.65-1.36-1.14-1.91-.49-.55-1.09-.99-1.8-1.31-.71-.32-1.49-.49-2.37-.49s-1.66.16-2.37.49c-.71.32-1.3.76-1.8,1.31-.49.55-.87,1.19-1.14,1.91-.27.73-.4,1.5-.4,2.31s.13,1.61.4,2.35c.27.73.65,1.37,1.14,1.92.49.55,1.09.98,1.8,1.3.7.32,1.49.48,2.37.48s1.66-.16,2.37-.48c.7-.32,1.3-.75,1.8-1.3.49-.55.87-1.19,1.14-1.92.27-.73.4-1.51.4-2.35"/>
      <path class="cls-2" d="M148.93,268.32v-14.96h9.02v1.82h-7v4.42h2.8c.78,0,1.49.09,2.14.27.64.18,1.2.46,1.67.82.47.37.83.82,1.08,1.35s.38,1.16.38,1.88-.13,1.35-.4,1.9c-.27.55-.64,1.01-1.11,1.39-.47.37-1.03.65-1.68.83-.65.18-1.36.27-2.12.27h-4.79ZM153.56,266.51c1.06,0,1.9-.22,2.51-.68.62-.45.92-1.08.92-1.9,0-.86-.31-1.49-.94-1.9-.63-.41-1.45-.61-2.47-.61h-2.63v5.09h2.61Z"/>
      <path class="cls-2" d="M161.76,253.36h4.54c.78,0,1.49.08,2.14.24.65.16,1.2.41,1.67.75.47.34.82.77,1.08,1.29.25.52.38,1.14.38,1.86s-.14,1.34-.4,1.87c-.27.53-.64.97-1.11,1.31-.47.34-1.04.6-1.7.77-.66.17-1.37.25-2.13.25h-2.44v6.62h-2.03v-14.96ZM163.79,260.04h2.31c1.06,0,1.89-.2,2.49-.62.6-.41.9-1.04.9-1.89s-.3-1.51-.91-1.89-1.43-.57-2.46-.57h-2.33v4.97Z"/>
      <path class="cls-2" d="M173.43,268.32h-2.24l6.42-14.96h1.99l6.38,14.96h-2.3l-1.52-3.68h-7.23l-1.5,3.68ZM175.6,262.87h5.88l-2.92-7.23-2.96,7.23Z"/>
      <path class="cls-2" d="M190.55,259.72h1.08c.48,0,.93-.05,1.36-.15.43-.1.8-.25,1.12-.45.32-.2.57-.46.75-.78.18-.32.27-.69.27-1.13,0-.8-.26-1.42-.79-1.85-.53-.43-1.22-.64-2.08-.64-.68,0-1.26.17-1.74.52-.49.35-.86.81-1.11,1.41l-1.69-.93c.44-.89,1.06-1.56,1.86-2.03.8-.46,1.75-.7,2.85-.7.69,0,1.33.09,1.92.26.59.18,1.11.43,1.54.77.44.34.77.76,1.01,1.27s.36,1.09.36,1.75c0,.45-.09.87-.27,1.25-.18.38-.42.71-.7.99-.28.28-.6.52-.96.72-.36.2-.72.34-1.07.42v.04c.41.04.83.14,1.27.29.44.15.84.37,1.2.66.37.29.67.65.91,1.1.24.44.36.99.36,1.64,0,.71-.14,1.34-.43,1.9-.29.56-.69,1.04-1.19,1.44-.51.39-1.1.7-1.79.91-.68.21-1.41.32-2.19.32-.7,0-1.33-.08-1.89-.24-.56-.16-1.05-.39-1.47-.69-.42-.3-.79-.65-1.09-1.06-.3-.41-.56-.86-.77-1.35l1.8-.85c.31.76.74,1.36,1.28,1.8.54.44,1.3.66,2.27.66,1.08,0,1.92-.26,2.51-.78.59-.52.89-1.2.89-2.05,0-.52-.1-.96-.32-1.31-.21-.35-.51-.64-.9-.87-.39-.23-.85-.39-1.38-.49-.54-.1-1.13-.15-1.78-.15h-1.02v-1.61Z"/>
      <path class="cls-2" d="M215.98,260.82c0,1.16-.2,2.22-.59,3.18s-.94,1.8-1.65,2.49c-.71.7-1.54,1.24-2.51,1.63-.97.39-2.01.58-3.14.58s-2.17-.19-3.14-.58c-.97-.39-1.8-.93-2.5-1.63-.7-.7-1.25-1.53-1.65-2.49-.39-.97-.59-2.02-.59-3.18s.2-2.21.59-3.17c.39-.96.94-1.78,1.65-2.47.7-.69,1.54-1.23,2.5-1.62.97-.39,2.01-.58,3.14-.58s2.17.19,3.14.58c.97.39,1.8.93,2.51,1.62.7.69,1.25,1.51,1.65,2.47.39.96.59,2.02.59,3.17M213.8,260.82c0-.82-.13-1.59-.4-2.31-.27-.73-.65-1.36-1.14-1.91-.49-.55-1.09-.99-1.8-1.31-.71-.32-1.49-.49-2.37-.49s-1.66.16-2.37.49c-.71.32-1.3.76-1.8,1.31-.49.55-.87,1.19-1.14,1.91-.27.73-.4,1.5-.4,2.31s.13,1.61.4,2.35c.27.73.65,1.37,1.14,1.92.49.55,1.09.98,1.8,1.3.7.32,1.49.48,2.37.48s1.66-.16,2.37-.48c.7-.32,1.3-.75,1.8-1.3.49-.55.87-1.19,1.14-1.92.27-.73.4-1.51.4-2.35"/>
      <path class="cls-2" d="M218.79,253.36h4.84c.56,0,1.14.06,1.72.18.58.12,1.11.32,1.58.61.46.29.85.68,1.14,1.17s.44,1.11.44,1.86c0,.8-.24,1.49-.71,2.07-.47.58-1.1.97-1.89,1.16v.04c.48.06.92.18,1.32.37.4.19.75.44,1.05.75.3.31.53.68.7,1.11.17.43.25.91.25,1.43,0,.68-.14,1.28-.41,1.8-.27.52-.66.96-1.16,1.32-.5.36-1.1.63-1.79.81-.69.18-1.44.27-2.26.27h-4.82v-14.96ZM220.82,259.76h2.78c.35,0,.7-.04,1.05-.13.35-.08.66-.22.93-.4.27-.18.48-.42.65-.73s.25-.67.25-1.11-.08-.78-.24-1.07c-.16-.29-.39-.53-.68-.72-.29-.19-.64-.33-1.03-.41s-.82-.13-1.28-.13h-2.42v4.69ZM220.82,266.61h2.63c.48,0,.94-.05,1.39-.14.45-.09.85-.24,1.19-.45.34-.21.62-.48.82-.81.2-.33.3-.74.3-1.24,0-.89-.31-1.54-.94-1.97-.63-.42-1.48-.63-2.58-.63h-2.82v5.24Z"/>
      <path class="cls-2" d="M232.71,268.32h-2.24l6.42-14.96h1.99l6.38,14.96h-2.3l-1.52-3.68h-7.23l-1.5,3.68ZM234.88,262.87h5.88l-2.92-7.23-2.96,7.23Z"/>
      <polygon class="cls-2" points="247.42 253.36 249.45 253.36 249.45 259.64 257.04 259.64 257.04 253.36 259.07 253.36 259.07 268.32 257.04 268.32 257.04 261.45 249.45 261.45 249.45 268.32 247.42 268.32 247.42 253.36"/>
      <polygon class="cls-2" points="264.77 265.39 272.84 253.36 275.3 253.36 275.3 268.32 273.27 268.32 273.27 256.23 273.22 256.23 265.15 268.32 262.7 268.32 262.7 253.36 264.73 253.36 264.73 265.39 264.77 265.39"/>
      <path class="cls-2" d="M281.92,260.99c-1.02-.17-1.83-.54-2.43-1.12-.61-.58-.92-1.37-.93-2.37,0-1.37.52-2.4,1.56-3.1,1.04-.7,2.47-1.05,4.28-1.05h4.68v14.96h-2.03v-6.57h-1.61c-.75,0-1.43.12-2.04.35-.61.23-1.15.61-1.6,1.13-.45.52-.82,1.2-1.11,2.04-.29.84-.49,1.86-.6,3.05h-2.24c.06-.89.2-1.72.42-2.51.22-.78.52-1.49.88-2.11.36-.63.77-1.16,1.24-1.62.47-.45.97-.8,1.52-1.06v-.04ZM287.06,255.18h-2.45c-1.27,0-2.23.19-2.87.56-.65.37-.97.98-.97,1.81,0,.75.32,1.33.96,1.75.64.42,1.6.63,2.88.63h2.45v-4.75Z"/>
      <path class="cls-2" d="M134.61,193.32h-7.16v-1.19l4.59-4.64c.17-.17.34-.35.5-.55.16-.19.31-.4.44-.61.13-.21.23-.44.3-.67.07-.24.11-.48.11-.74,0-.33-.06-.62-.17-.89-.12-.26-.28-.49-.48-.67-.2-.18-.44-.33-.71-.43-.27-.1-.55-.15-.85-.15-.6,0-1.11.19-1.52.56-.41.37-.68.85-.79,1.43l-1.12-.22c.07-.39.21-.75.42-1.09.2-.34.46-.63.76-.87.3-.24.64-.43,1.02-.57.38-.14.79-.21,1.24-.21s.88.07,1.29.2c.41.13.76.33,1.06.59.3.26.55.58.73.97.18.39.27.83.27,1.34,0,.36-.05.69-.15,1-.1.31-.23.6-.4.87-.16.28-.36.54-.58.78-.22.25-.45.49-.7.74l-4.04,4.01h5.94v1.01Z"/>
      <path class="cls-2" d="M140.41,181.83c.69,0,1.28.17,1.75.52.47.34.85.79,1.13,1.35.28.55.49,1.19.61,1.89.12.71.18,1.42.18,2.15s-.06,1.44-.18,2.15c-.12.7-.32,1.33-.61,1.88-.29.55-.66,1-1.13,1.34-.47.34-1.05.51-1.75.51s-1.29-.17-1.76-.51c-.47-.34-.85-.78-1.13-1.34-.28-.56-.48-1.18-.6-1.88-.12-.7-.17-1.42-.17-2.15s.06-1.45.17-2.15c.12-.71.32-1.34.6-1.89.29-.56.66-1,1.13-1.35.47-.34,1.06-.52,1.76-.52M140.41,182.79c-.5,0-.91.15-1.24.46-.33.31-.59.7-.78,1.17-.19.47-.32,1.01-.4,1.59-.07.59-.11,1.16-.11,1.72s.04,1.13.11,1.71c.07.58.21,1.11.4,1.58.19.47.45.86.78,1.16.33.3.74.45,1.24.45s.9-.15,1.22-.45c.33-.3.59-.69.78-1.16.19-.47.33-1,.41-1.58.08-.58.12-1.15.12-1.71s-.04-1.13-.12-1.72c-.08-.59-.21-1.12-.41-1.59-.19-.47-.45-.86-.78-1.17-.33-.31-.74-.46-1.22-.46"/>
      <path class="cls-2" d="M152.98,193.32h-7.16v-1.19l4.59-4.64c.17-.17.34-.35.5-.55.16-.19.31-.4.44-.61.13-.21.23-.44.3-.67.07-.24.11-.48.11-.74,0-.33-.06-.62-.17-.89-.12-.26-.28-.49-.48-.67-.2-.18-.44-.33-.71-.43-.27-.1-.55-.15-.85-.15-.6,0-1.11.19-1.52.56-.41.37-.68.85-.79,1.43l-1.12-.22c.07-.39.21-.75.42-1.09.2-.34.46-.63.76-.87.3-.24.64-.43,1.02-.57.38-.14.79-.21,1.24-.21s.88.07,1.29.2c.41.13.76.33,1.06.59.3.26.55.58.73.97.18.39.27.83.27,1.34,0,.36-.05.69-.15,1-.1.31-.23.6-.4.87-.16.28-.36.54-.58.78-.22.25-.45.49-.7.74l-4.04,4.01h5.94v1.01Z"/>
      <path class="cls-2" d="M161.72,183.12h-4.67l-.08,3.47c.24-.08.5-.15.77-.19.27-.04.53-.06.78-.06.53,0,1.01.08,1.45.25.44.17.83.41,1.15.72.33.31.58.68.76,1.12.18.43.27.91.27,1.42s-.09,1.04-.27,1.5c-.18.46-.43.85-.75,1.19-.32.33-.72.59-1.18.78-.46.19-.96.28-1.51.28-.81,0-1.5-.18-2.06-.55-.56-.37-.99-.87-1.3-1.49l1.03-.46c.2.47.51.83.91,1.11.41.27.86.41,1.35.41.38,0,.73-.07,1.05-.2.32-.13.6-.32.83-.55.23-.24.41-.52.55-.85.13-.33.2-.68.2-1.06,0-.41-.07-.78-.21-1.12-.14-.33-.34-.61-.59-.85s-.54-.41-.88-.54c-.34-.13-.71-.19-1.11-.19s-.8.05-1.19.17c-.4.11-.77.26-1.13.45l.11-5.78h5.72v1.01Z"/>
      <path class="cls-2" d="M143.22,0v141.61c-1.2-1.66-2.59-2.84-4.17-3.8-2.99-1.81-6.25-3.02-9.53-4.17-4.89-1.72-9.81-3.37-14.66-5.18-2.67-1-5.16-2.38-7.36-4.24-3.74-3.17-4.7-7.09-3.25-11.7.86-2.72,2.41-5.07,3.81-7.51,3.06-5.34,6.17-10.64,9.11-16.05,2.47-4.55,3.93-9.52,5.48-14.44,3.2-10.14,6.5-20.26,9.49-30.46,4.18-14.26,7.66-28.7,10.83-43.22.05-.21.12-.41.24-.84M136.5,44.72s-.08,0-.13-.02c-1.24,4.99-2.37,10-3.74,14.95-1.37,4.97-2.81,9.92-4.51,14.78-1.71,4.86-3.66,9.64-5.75,14.35-2.06,4.67-4.42,9.22-6.65,13.82.28-.15.46-.36.61-.58,1.23-1.83,2.49-3.65,3.69-5.5,2.82-4.36,5.55-8.77,7.7-13.51,2.45-5.4,4.06-11.08,5.23-16.87,1.21-6,2.14-12.05,3.17-18.08.19-1.1.26-2.23.38-3.34"/>
      <path class="cls-2" d="M146.81,141.54V39.31c.3.57.52.97.73,1.37,4.43,8.58,8.1,17.51,11.76,26.44,4.01,9.78,8.16,19.5,13.6,28.58,2.81,4.68,5.93,9.17,8.89,13.77,1.45,2.26,2.69,4.62,3.09,7.33.4,2.76-.53,4.99-2.58,6.79-2.24,1.96-4.94,3.1-7.71,4.08-4.68,1.65-9.41,3.15-14.07,4.85-3.83,1.39-7.47,3.18-10.57,5.89-1.11.97-2.09,2.08-3.14,3.13M156.41,73.9c-.09.03-.17.07-.25.11,0,.16,0,.33.03.48,1.11,4.58,2.07,9.19,3.38,13.71,1.42,4.91,3.36,9.64,6.42,13.82,3.36,4.59,7.36,8.59,11.42,12.55.07.07.16.11.25.16.07-.05.14-.09.21-.14-10.02-12.06-16.97-25.72-21.44-40.69"/>
      <path class="cls-2" d="M72.41,67.63c1.37,1.77,2.71,3.48,4.02,5.21,6.1,8.03,12.11,16.12,17.29,24.79,1.52,2.53,3,5.1,3.85,7.95,1.34,4.53.74,8.93-1.19,13.15-.85,1.87-2.01,3.61-3.14,5.33-1.67,2.56-2.49,5.38-2.76,8.39-.49,5.43,1.75,9.88,4.91,14.02,3.05,4,6.69,7.42,10.61,10.55.24.19.47.38.64.73-3.15-1.03-6.31-2.01-9.44-3.09-9.75-3.36-18.34-8.8-26.34-15.17-5.86-4.67-9.29-10.85-10.29-18.31-.52-3.94.33-7.68,2.38-11.04,1.98-3.25,4.2-6.35,6.29-9.53,2.1-3.2,3.9-6.58,4.41-10.43.3-2.23.41-4.51.36-6.76-.12-5.22-.79-10.4-1.7-15.54,0-.04.03-.09.07-.24"/>
      <path class="cls-2" d="M250.41,192.79c-2.98-1.28-5.83-2.58-8.73-3.75-10.98-4.43-22.32-7.65-33.92-9.93-6.49-1.28-13.03-2.35-19.57-3.28-5.02-.71-10.09-1.12-15.15-1.57-10.83-.96-21.68-1.23-32.54-.91-7.34.21-14.68.66-21.99,1.26-15.75,1.31-31.28,4-46.52,8.27-9.76,2.74-19.27,6.16-28.36,10.69-.14.07-.29.14-.43.2-.04-.06-.08-.11-.12-.17,1.85-1.55,3.64-3.17,5.55-4.65,7.06-5.47,14.89-9.57,23.12-12.95,10.57-4.34,21.53-7.37,32.75-9.5,7.19-1.36,14.43-2.35,21.71-2.99,8.54-.75,17.1-1.17,25.66-.87,6.95.25,13.91.61,20.83,1.31,14.53,1.47,28.78,4.4,42.6,9.21,9.49,3.3,18.61,7.4,26.92,13.13,2.72,1.88,5.23,4.05,7.84,6.1.12.09.21.22.37.4"/>
      <path class="cls-2" d="M182.27,156.69c1.93-1.43,3.88-2.79,5.74-4.26,3.24-2.57,6.2-5.41,8.45-8.92,3.05-4.74,3.37-9.77,1.36-14.95-.53-1.35-1.4-2.56-2.03-3.87-1.31-2.71-2.05-5.57-2.11-8.61-.08-3.72,1.25-6.94,3.24-9.98,3.08-4.7,6.58-9.08,10.26-13.31,4.22-4.85,8.56-9.6,12.85-14.4.2-.22.34-.5.51-.75l.18.18c-.54,2.41-1.18,4.8-1.61,7.23-.56,3.17-1.07,6.36-1.38,9.57-.46,4.66.91,8.95,3.14,12.99,1.44,2.61,2.93,5.19,4.38,7.79,3.2,5.74,2.85,11.48.06,17.28-2.47,5.14-6.43,8.84-11.19,11.78-9.67,5.97-20,10.25-31.26,12.1-.19.03-.37.09-.58.14"/>
      <path class="cls-2" d="M289.09,158.04c-3.87,2.11-7.51,4.24-11.28,6.12-4.24,2.12-8.53,4.14-12.9,5.97-5.63,2.36-10.74.84-15.46-2.61-.15-.11-.29-.25-.41-.41-2.37-3.04-5.54-3.97-9.21-3.36-4.35.73-8.17,2.78-11.89,5.02-1.08.65-2.14,1.36-3.29,2.1.02-.17,0-.29.04-.4,1.25-4.12,2.62-8.22,4.89-11.9,4.13-6.69,10.1-10.92,17.81-12.56,2.04-.44,4.14-.63,6.23-.81,3.77-.32,7.04,1.02,10.01,3.24,1.48,1.11,2.95,2.23,4.39,3.39,3.29,2.64,7.04,4.18,11.2,4.77,3.22.45,6.44.94,9.88,1.45"/>
      <path class="cls-2" d="M1,161c2.4-.47,4.81-.9,7.19-1.43,3.36-.74,6.8-1.32,9.81-3.11,2.22-1.33,4.29-2.9,6.46-4.31,2.1-1.37,4.18-2.78,6.37-3.98,1.83-1,3.9-1.31,6-1.36,3.97-.1,7.9.11,11.68,1.44,6.92,2.44,11.53,7.14,13.75,14.15.56,1.78,1.11,3.56,1.63,5.21-3.03-1.31-5.99-2.69-9.04-3.88-2.32-.9-4.77-1.36-7.29-1.23-2.64.13-5.02,1.01-6.86,2.88-2.18,2.21-4.82,3.53-7.67,4.57-3.91,1.43-7.75.88-11.58-.38-6.24-2.05-12.26-4.64-18.23-7.36-.75-.34-1.49-.69-2.24-1.03,0-.05.02-.11.03-.16"/>
      <path class="cls-2" d="M176.63,142.48c-2.57,1.81-5.09,3.56-7.58,5.34-3.26,2.32-6.83,3.85-10.77,4.62-4.35.85-8.7,1.53-13.13,1.37-5.92-.21-11.76-1-17.35-3.09-4.12-1.54-7.72-3.9-10.68-7.19-.27-.3-.52-.63-.94-1.13,20.28,3.17,40.36,2.89,60.45.07"/>
      <line class="cls-1" x1="1" y1="210.37" x2="289.08" y2="210.37"/>
    </g>
  </g>
</svg>