<?xml version="1.0" encoding="UTF-8"?>
<svg id="Layer_2" data-name="Layer 2" xmlns="http://www.w3.org/2000/svg" xmlns:xlink="http://www.w3.org/1999/xlink" viewBox="0 0 288.58 63.1">
  <defs>
    <style>
      .cls-1 {
        fill: url(#_Безымянный_градиент_94-10);
      }

      .cls-1, .cls-2, .cls-3, .cls-4, .cls-5, .cls-6, .cls-7, .cls-8, .cls-9, .cls-10, .cls-11, .cls-12, .cls-13, .cls-14, .cls-15, .cls-16, .cls-17, .cls-18, .cls-19, .cls-20, .cls-21, .cls-22, .cls-23, .cls-24, .cls-25, .cls-26, .cls-27, .cls-28, .cls-29, .cls-30, .cls-31, .cls-32, .cls-33, .cls-34, .cls-35, .cls-36, .cls-37, .cls-38, .cls-39, .cls-40, .cls-41, .cls-42, .cls-43, .cls-44, .cls-45, .cls-46, .cls-47, .cls-48 {
        stroke-width: 0px;
      }

      .cls-2 {
        fill: url(#_Безымянный_градиент_94-13);
      }

      .cls-3 {
        fill: url(#_Безымянный_градиент_94-11);
      }

      .cls-4 {
        fill: url(#_Безымянный_градиент_94-14);
      }

      .cls-5 {
        fill: url(#_Безымянный_градиент_94-12);
      }

      .cls-6 {
        fill: url(#_Безымянный_градиент_94-19);
      }

      .cls-7 {
        fill: url(#_Безымянный_градиент_94-16);
      }

      .cls-8 {
        fill: url(#_Безымянный_градиент_94-18);
      }

      .cls-9 {
        fill: url(#_Безымянный_градиент_94-17);
      }

      .cls-10 {
        fill: url(#_Безымянный_градиент_94-15);
      }

      .cls-11 {
        fill: url(#_Безымянный_градиент_94-24);
      }

      .cls-12 {
        fill: url(#_Безымянный_градиент_94-22);
      }

      .cls-13 {
        fill: url(#_Безымянный_градиент_94-40);
      }

      .cls-14 {
        fill: url(#_Безымянный_градиент_94-20);
      }

      .cls-15 {
        fill: url(#_Безымянный_градиент_94-28);
      }

      .cls-16 {
        fill: url(#_Безымянный_градиент_94-23);
      }

      .cls-17 {
        fill: url(#_Безымянный_градиент_94-26);
      }

      .cls-18 {
        fill: url(#_Безымянный_градиент_94-34);
      }

      .cls-19 {
        fill: url(#_Безымянный_градиент_94-35);
      }

      .cls-20 {
        fill: url(#_Безымянный_градиент_94-27);
      }

      .cls-21 {
        fill: url(#_Безымянный_градиент_94-29);
      }

      .cls-22 {
        fill: url(#_Безымянный_градиент_94-25);
      }

      .cls-23 {
        fill: url(#_Безымянный_градиент_94-21);
      }

      .cls-24 {
        fill: url(#_Безымянный_градиент_94-30);
      }

      .cls-25 {
        fill: url(#_Безымянный_градиент_94-31);
      }

      .cls-26 {
        fill: url(#_Безымянный_градиент_94-32);
      }

      .cls-27 {
        fill: url(#_Безымянный_градиент_94-39);
      }

      .cls-28 {
        fill: url(#_Безымянный_градиент_94-38);
      }

      .cls-29 {
        fill: url(#_Безымянный_градиент_94-37);
      }

      .cls-30 {
        fill: url(#_Безымянный_градиент_94-36);
      }

      .cls-31 {
        fill: url(#_Безымянный_градиент_94-33);
      }

      .cls-32 {
        fill: #be1622;
      }

      .cls-49 {
        clip-path: url(#clippath);
      }

      .cls-33 {
        fill: none;
      }

      .cls-34 {
        fill: url(#_Безымянный_градиент_94-4);
      }

      .cls-35 {
        fill: url(#_Безымянный_градиент_94-2);
      }

      .cls-36 {
        fill: url(#_Безымянный_градиент_94-8);
      }

      .cls-37 {
        fill: url(#_Безымянный_градиент_94-3);
      }

      .cls-38 {
        fill: url(#_Безымянный_градиент_94-5);
      }

      .cls-39 {
        fill: url(#_Безымянный_градиент_94-7);
      }

      .cls-40 {
        fill: url(#_Безымянный_градиент_94-9);
      }

      .cls-41 {
        fill: url(#_Безымянный_градиент_94-6);
      }

      .cls-42 {
        fill: url(#_Безымянный_градиент_56-5);
      }

      .cls-43 {
        fill: url(#_Безымянный_градиент_56-6);
      }

      .cls-44 {
        fill: url(#_Безымянный_градиент_56-4);
      }

      .cls-45 {
        fill: url(#_Безымянный_градиент_56-3);
      }

      .cls-46 {
        fill: url(#_Безымянный_градиент_56-2);
      }

      .cls-50 {
        clip-path: url(#clippath-1);
      }

      .cls-51 {
        clip-path: url(#clippath-4);
      }

      .cls-52 {
        clip-path: url(#clippath-3);
      }

      .cls-53 {
        clip-path: url(#clippath-2);
      }

      .cls-54 {
        clip-path: url(#clippath-7);
      }

      .cls-55 {
        clip-path: url(#clippath-8);
      }

      .cls-56 {
        clip-path: url(#clippath-6);
      }

      .cls-57 {
        clip-path: url(#clippath-5);
      }

      .cls-58 {
        clip-path: url(#clippath-9);
      }

      .cls-59 {
        clip-path: url(#clippath-20);
      }

      .cls-60 {
        clip-path: url(#clippath-21);
      }

      .cls-61 {
        clip-path: url(#clippath-24);
      }

      .cls-62 {
        clip-path: url(#clippath-23);
      }

      .cls-63 {
        clip-path: url(#clippath-22);
      }

      .cls-64 {
        clip-path: url(#clippath-25);
      }

      .cls-65 {
        clip-path: url(#clippath-44);
      }

      .cls-66 {
        clip-path: url(#clippath-45);
      }

      .cls-67 {
        clip-path: url(#clippath-40);
      }

      .cls-68 {
        clip-path: url(#clippath-42);
      }

      .cls-69 {
        clip-path: url(#clippath-41);
      }

      .cls-70 {
        clip-path: url(#clippath-43);
      }

      .cls-71 {
        clip-path: url(#clippath-27);
      }

      .cls-72 {
        clip-path: url(#clippath-28);
      }

      .cls-73 {
        clip-path: url(#clippath-26);
      }

      .cls-74 {
        clip-path: url(#clippath-29);
      }

      .cls-75 {
        clip-path: url(#clippath-34);
      }

      .cls-76 {
        clip-path: url(#clippath-35);
      }

      .cls-77 {
        clip-path: url(#clippath-36);
      }

      .cls-78 {
        clip-path: url(#clippath-37);
      }

      .cls-79 {
        clip-path: url(#clippath-39);
      }

      .cls-80 {
        clip-path: url(#clippath-33);
      }

      .cls-81 {
        clip-path: url(#clippath-32);
      }

      .cls-82 {
        clip-path: url(#clippath-30);
      }

      .cls-83 {
        clip-path: url(#clippath-38);
      }

      .cls-84 {
        clip-path: url(#clippath-31);
      }

      .cls-85 {
        clip-path: url(#clippath-14);
      }

      .cls-86 {
        clip-path: url(#clippath-13);
      }

      .cls-87 {
        clip-path: url(#clippath-12);
      }

      .cls-88 {
        clip-path: url(#clippath-10);
      }

      .cls-89 {
        clip-path: url(#clippath-15);
      }

      .cls-90 {
        clip-path: url(#clippath-17);
      }

      .cls-91 {
        clip-path: url(#clippath-16);
      }

      .cls-92 {
        clip-path: url(#clippath-19);
      }

      .cls-93 {
        clip-path: url(#clippath-11);
      }

      .cls-94 {
        clip-path: url(#clippath-18);
      }

      .cls-47 {
        fill: url(#_Безымянный_градиент_56);
      }

      .cls-48 {
        fill: url(#_Безымянный_градиент_94);
      }
    </style>
    <clipPath id="clippath">
      <path class="cls-33" d="M38.45,56.92c-.11.04-.22.1-.3.17-.09.07-.17.16-.23.26-.06.1-.1.21-.13.32l.34.07c.03-.17.11-.32.23-.43.12-.11.27-.17.45-.17.09,0,.17.02.25.05.08.03.15.07.21.13.06.06.11.12.14.2s.05.17.05.26c0,.08-.01.15-.03.22-.02.07-.05.14-.09.2-.04.06-.08.12-.13.18-.05.06-.1.11-.15.16l-1.37,1.38v.35h2.13v-.3h-1.77l1.2-1.19c.07-.07.14-.15.21-.22.07-.08.12-.15.17-.24.05-.08.09-.17.12-.26.03-.09.05-.19.05-.3,0-.15-.03-.28-.08-.4-.05-.12-.13-.21-.22-.29-.09-.08-.2-.14-.32-.17-.12-.04-.25-.06-.39-.06s-.25.02-.37.06"/>
    </clipPath>
    <linearGradient id="_Безымянный_градиент_94" data-name="Безымянный градиент 94" x1="-458.27" y1="266.35" x2="-456.75" y2="266.35" gradientTransform="translate(-25841.22 -15010.78) rotate(-180) scale(56.58 -56.58)" gradientUnits="userSpaceOnUse">
      <stop offset="0" stop-color="#0575d3"/>
      <stop offset="1" stop-color="#053e8d"/>
    </linearGradient>
    <clipPath id="clippath-1">
      <path class="cls-33" d="M41.2,59.95c-.1-.09-.18-.2-.23-.35-.06-.14-.1-.3-.12-.47-.02-.17-.03-.34-.03-.51s.01-.34.03-.51c.02-.18.06-.33.12-.48.06-.14.13-.26.23-.35.1-.09.22-.14.37-.14s.27.05.36.14c.1.09.17.21.23.35.06.14.1.3.12.48.02.17.03.34.03.51s-.01.34-.03.51c-.02.17-.06.33-.12.47-.06.14-.14.26-.23.35-.1.09-.22.13-.36.13s-.27-.04-.37-.13M41.05,57.02c-.14.1-.25.24-.34.4s-.14.35-.18.56c-.03.21-.05.42-.05.64s.02.43.05.64c.03.21.09.4.18.56s.2.3.34.4.32.15.53.15.38-.05.52-.15c.14-.1.25-.23.34-.4.08-.17.14-.35.18-.56.04-.21.06-.42.06-.64s-.02-.43-.06-.64c-.03-.21-.09-.4-.18-.56-.09-.17-.2-.3-.34-.4-.14-.1-.31-.15-.52-.15s-.39.05-.53.15"/>
    </clipPath>
    <linearGradient id="_Безымянный_градиент_94-2" data-name="Безымянный градиент 94" x1="-458.27" y1="266.35" x2="-456.75" y2="266.35" gradientTransform="translate(-25841.22 -15010.75) rotate(-180) scale(56.58 -56.58)" xlink:href="#_Безымянный_градиент_94"/>
    <clipPath id="clippath-2">
      <path class="cls-33" d="M43.93,56.92c-.11.04-.21.1-.31.17-.09.07-.16.16-.23.26-.06.1-.1.21-.13.32l.34.07c.03-.17.11-.32.24-.43.12-.11.27-.17.45-.17.09,0,.17.02.25.05.08.03.15.07.21.13.06.06.11.12.15.2.03.08.05.17.05.26,0,.08-.01.15-.03.22-.02.07-.05.14-.09.2-.04.06-.08.12-.13.18-.05.06-.1.11-.15.16l-1.37,1.38v.35h2.13v-.3h-1.77l1.2-1.19c.07-.07.14-.15.21-.22.07-.08.12-.15.17-.24.05-.08.09-.17.12-.26.03-.09.05-.19.05-.3,0-.15-.03-.28-.08-.4-.05-.12-.13-.21-.22-.29-.09-.08-.2-.14-.32-.17-.12-.04-.25-.06-.38-.06s-.25.02-.37.06"/>
    </clipPath>
    <linearGradient id="_Безымянный_градиент_94-3" data-name="Безымянный градиент 94" x1="-458.27" x2="-456.75" xlink:href="#_Безымянный_градиент_94"/>
    <clipPath id="clippath-3">
      <path class="cls-33" d="M46.22,56.95l-.03,1.72c.11-.06.22-.1.34-.13.12-.03.24-.05.36-.05s.23.02.33.06c.1.04.19.09.26.16.07.07.13.15.18.25.04.1.06.21.06.33,0,.11-.02.22-.06.32-.04.1-.09.18-.16.25-.07.07-.15.12-.25.17-.1.04-.2.06-.31.06-.15,0-.28-.04-.4-.12-.12-.08-.21-.19-.27-.33l-.31.14c.09.19.22.33.39.44.17.11.37.16.61.16.16,0,.31-.03.45-.08.14-.06.25-.13.35-.23.1-.1.17-.22.23-.35.05-.14.08-.29.08-.45s-.03-.3-.08-.42c-.05-.13-.13-.24-.23-.33-.1-.09-.21-.16-.34-.21-.13-.05-.28-.08-.43-.08-.07,0-.15,0-.23.02-.08.01-.15.03-.23.06l.02-1.03h1.39v-.3h-1.7Z"/>
    </clipPath>
    <linearGradient id="_Безымянный_градиент_94-4" data-name="Безымянный градиент 94" x1="-458.27" y1="266.35" x2="-456.75" y2="266.35" gradientTransform="translate(-25841.22 -15010.73) rotate(-180) scale(56.58 -56.58)" xlink:href="#_Безымянный_градиент_94"/>
    <clipPath id="clippath-4">
      <path class="cls-33" d="M52.6,36.81c-1.21-1.18-2.4-2.37-3.4-3.74-.91-1.24-1.49-2.66-1.91-4.12-.39-1.35-.68-2.73-1.01-4.09-.01-.05,0-.1,0-.14.02-.01.05-.02.07-.03,1.34,4.46,3.41,8.54,6.39,12.13-.02.01-.04.03-.06.04-.02-.02-.05-.03-.07-.05M43.48,44.85c.31-.31.61-.64.93-.93.93-.81,2.01-1.34,3.15-1.76,1.39-.51,2.8-.95,4.19-1.44.82-.29,1.63-.63,2.3-1.22.61-.54.89-1.2.77-2.02-.12-.81-.49-1.51-.92-2.19-.88-1.37-1.81-2.71-2.65-4.1-1.62-2.71-2.86-5.61-4.05-8.52-1.09-2.66-2.19-5.32-3.51-7.88-.06-.12-.13-.24-.22-.41v30.48Z"/>
    </clipPath>
    <linearGradient id="_Безымянный_градиент_56" data-name="Безымянный градиент 56" x1="-458.27" y1="266.17" x2="-456.75" y2="266.17" gradientTransform="translate(-25841.22 -15029.87) rotate(-180) scale(56.58 -56.58)" gradientUnits="userSpaceOnUse">
      <stop offset="0" stop-color="#053e8d"/>
      <stop offset="1" stop-color="#0575d3"/>
    </linearGradient>
    <clipPath id="clippath-5">
      <path class="cls-33" d="M21.28,22.89c.27,1.53.47,3.08.51,4.63.02.67-.02,1.35-.11,2.02-.15,1.15-.69,2.15-1.31,3.11-.62.95-1.29,1.87-1.88,2.84-.61,1-.87,2.12-.71,3.29.29,2.22,1.32,4.06,3.07,5.46,2.38,1.9,4.94,3.52,7.85,4.53.93.32,1.88.61,2.81.92-.05-.11-.12-.16-.19-.22-1.17-.93-2.25-1.95-3.16-3.15-.94-1.23-1.61-2.56-1.46-4.18.08-.9.32-1.74.82-2.5.34-.51.68-1.03.94-1.59.57-1.26.75-2.57.35-3.92-.25-.85-.7-1.61-1.15-2.37-1.54-2.58-3.34-4.99-5.15-7.39-.39-.52-.79-1.03-1.2-1.55-.01.04-.02.06-.02.07"/>
    </clipPath>
    <linearGradient id="_Безымянный_градиент_56-2" data-name="Безымянный градиент 56" x1="-458.27" y1="266.21" x2="-456.75" y2="266.21" gradientTransform="translate(-25841.22 -15025.49) rotate(-180) scale(56.58 -56.58)" xlink:href="#_Безымянный_градиент_56"/>
    <clipPath id="clippath-6">
      <path class="cls-33" d="M37.33,51.41c-2.17.19-4.33.48-6.47.89-3.34.64-6.61,1.54-9.76,2.83-2.45,1.01-4.79,2.23-6.89,3.86-.57.44-1.1.92-1.65,1.39.01.02.03.03.04.05.04-.02.08-.04.13-.06,2.71-1.35,5.54-2.37,8.46-3.19,4.54-1.27,9.17-2.08,13.87-2.47,2.18-.18,4.37-.31,6.56-.38,3.24-.09,6.47-.01,9.7.27,1.51.13,3.02.25,4.52.47,1.95.28,3.9.6,5.84.98,3.46.68,6.84,1.64,10.11,2.96.87.35,1.71.74,2.6,1.12-.05-.05-.08-.09-.11-.12-.78-.61-1.53-1.26-2.34-1.82-2.48-1.71-5.19-2.93-8.03-3.91-4.12-1.43-8.37-2.31-12.7-2.75-2.06-.21-4.14-.32-6.21-.39-.57-.02-1.14-.03-1.7-.03-1.98,0-3.97.12-5.95.29"/>
    </clipPath>
    <linearGradient id="_Безымянный_градиент_56-3" data-name="Безымянный градиент 56" y1="266.33" x2="-456.75" y2="266.33" gradientTransform="translate(-25841.22 -15012.63) rotate(-180) scale(56.58 -56.58)" xlink:href="#_Безымянный_градиент_56"/>
    <clipPath id="clippath-7">
      <path class="cls-33" d="M65.31,26.03c-1.28,1.43-2.57,2.85-3.83,4.29-1.1,1.26-2.14,2.57-3.06,3.97-.59.91-.99,1.87-.97,2.98.02.9.24,1.76.63,2.56.19.39.45.75.61,1.16.6,1.55.5,3.04-.4,4.46-.67,1.05-1.56,1.9-2.52,2.66-.55.44-1.13.84-1.71,1.27.06-.02.12-.03.17-.04,3.36-.55,6.44-1.83,9.32-3.61,1.42-.88,2.6-1.98,3.34-3.51.83-1.73.93-3.44-.02-5.15-.43-.78-.88-1.55-1.31-2.32-.66-1.2-1.07-2.48-.94-3.87.09-.95.25-1.91.41-2.85.13-.72.32-1.44.48-2.16-.02-.02-.04-.03-.05-.05-.05.08-.09.16-.15.22"/>
    </clipPath>
    <linearGradient id="_Безымянный_градиент_56-4" data-name="Безымянный градиент 56" x1="-458.27" y1="266.22" x2="-456.75" y2="266.22" gradientTransform="translate(-25841.22 -15024.61) rotate(-180) scale(56.58 -56.58)" xlink:href="#_Безымянный_градиент_56"/>
    <clipPath id="clippath-8">
      <path class="cls-33" d="M75.32,45.94c-.62.05-1.25.11-1.86.24-2.3.49-4.08,1.75-5.31,3.75-.68,1.1-1.08,2.32-1.46,3.55,0,.03,0,.07-.01.12.34-.22.66-.43.98-.63,1.11-.67,2.25-1.28,3.54-1.5,1.1-.18,2.04.1,2.75,1,.03.05.08.09.12.12,1.41,1.03,2.93,1.48,4.61.78,1.3-.54,2.58-1.15,3.85-1.78,1.12-.56,2.21-1.2,3.36-1.82-1.03-.15-1.98-.3-2.94-.43-1.24-.17-2.36-.63-3.34-1.42-.43-.34-.87-.68-1.31-1.01-.8-.59-1.67-.98-2.66-.98-.11,0-.22,0-.33.02"/>
    </clipPath>
    <linearGradient id="_Безымянный_градиент_56-5" data-name="Безымянный градиент 56" y1="266.3" x2="-456.75" y2="266.3" gradientTransform="translate(-25841.22 -15016.55) rotate(-180) scale(56.58 -56.58)" xlink:href="#_Безымянный_градиент_56"/>
    <clipPath id="clippath-9">
      <path class="cls-33" d="M10.69,46.42c-.63.02-1.24.11-1.79.41-.66.36-1.27.78-1.9,1.19-.65.42-1.27.89-1.93,1.29-.9.54-1.92.71-2.92.93-.71.16-1.43.29-2.14.43,0,.02,0,.03,0,.05l.67.31c1.78.81,3.58,1.58,5.44,2.19,1.14.38,2.29.54,3.45.11.85-.31,1.64-.7,2.29-1.36.55-.56,1.26-.82,2.05-.86.75-.04,1.48.1,2.17.37.91.35,1.79.77,2.7,1.16-.15-.49-.32-1.02-.49-1.55-.66-2.09-2.04-3.49-4.1-4.22-.98-.34-1.99-.43-3.01-.43-.16,0-.32,0-.48,0"/>
    </clipPath>
    <linearGradient id="_Безымянный_градиент_56-6" data-name="Безымянный градиент 56" x1="-458.27" y1="266.3" x2="-456.75" y2="266.3" gradientTransform="translate(-25841.22 -15016.44) rotate(-180) scale(56.58 -56.58)" xlink:href="#_Безымянный_градиент_56"/>
    <clipPath id="clippath-10">
      <polygon class="cls-33" points="121.99 20.05 121.99 28.76 124.1 28.76 124.1 21.88 127.47 21.88 127.47 20.05 121.99 20.05"/>
    </clipPath>
    <linearGradient id="_Безымянный_градиент_94-5" data-name="Безымянный градиент 94" x1="-446.82" y1="269.42" x2="-445.31" y2="269.42" gradientTransform="translate(50559.06 30437.47) scale(112.88 -112.88)" xlink:href="#_Безымянный_градиент_94"/>
    <clipPath id="clippath-11">
      <path class="cls-33" d="M131.92,26.87c-.3-.14-.56-.32-.78-.56-.22-.24-.39-.52-.51-.86-.12-.33-.19-.7-.19-1.09s.06-.73.18-1.06c.12-.33.29-.61.51-.84.22-.23.48-.42.79-.55.3-.14.64-.2,1.01-.2s.71.07,1.02.2c.31.14.57.32.79.55.22.23.39.52.51.84.12.33.19.68.19,1.06s-.06.76-.19,1.09c-.12.33-.3.62-.52.86-.22.24-.48.42-.79.56-.3.14-.64.2-1.01.2s-.71-.07-1.01-.2M131.04,20.14c-.58.21-1.08.52-1.5.91-.42.39-.75.87-.99,1.43-.24.56-.36,1.19-.36,1.89s.12,1.32.36,1.89c.24.57.57,1.06.99,1.46.42.41.92.72,1.5.94.58.22,1.21.33,1.89.33s1.31-.11,1.89-.33c.58-.22,1.08-.54,1.51-.94.42-.41.75-.89.99-1.46.24-.57.36-1.2.36-1.89s-.12-1.33-.36-1.89c-.24-.56-.57-1.04-.99-1.43-.42-.39-.92-.7-1.51-.91-.58-.21-1.21-.32-1.89-.32s-1.31.11-1.89.32"/>
    </clipPath>
    <linearGradient id="_Безымянный_градиент_94-6" data-name="Безымянный градиент 94" x1="-446.82" y1="269.42" x2="-445.31" y2="269.42" gradientTransform="translate(50559.06 30437.47) scale(112.88 -112.88)" xlink:href="#_Безымянный_градиент_94"/>
    <clipPath id="clippath-12">
      <path class="cls-33" d="M143.25,22.41l1.44,4.58h-2.88l1.44-4.58ZM142.27,20.05l-2.63,6.94h-1.5v3.48h1.72v-1.71h6.89v1.71h1.72v-3.48h-1.55l-2.61-6.94h-2.04Z"/>
    </clipPath>
    <linearGradient id="_Безымянный_градиент_94-7" data-name="Безымянный градиент 94" x1="-446.82" y1="269.42" x2="-445.31" y2="269.42" gradientTransform="translate(50559.06 30438.03) scale(112.88 -112.88)" xlink:href="#_Безымянный_градиент_94"/>
    <clipPath id="clippath-13">
      <path class="cls-33" d="M156.78,22.41l1.44,4.58h-2.88l1.44-4.58ZM155.81,20.05l-2.63,6.94h-1.5v3.48h1.72v-1.71h6.89v1.71h1.72v-3.48h-1.55l-2.61-6.94h-2.04Z"/>
    </clipPath>
    <linearGradient id="_Безымянный_градиент_94-8" data-name="Безымянный градиент 94" x1="-446.82" y1="269.42" x2="-445.31" y2="269.42" gradientTransform="translate(50559.06 30438.03) scale(112.88 -112.88)" xlink:href="#_Безымянный_градиент_94"/>
    <clipPath id="clippath-14">
      <polygon class="cls-33" points="162.99 20.05 162.99 28.76 169.06 28.76 169.06 26.96 165.02 26.96 165.02 25.16 168.63 25.16 168.63 23.47 165.02 23.47 165.02 21.82 168.84 21.82 168.84 20.05 162.99 20.05"/>
    </clipPath>
    <linearGradient id="_Безымянный_градиент_94-9" data-name="Безымянный градиент 94" x1="-446.82" y1="269.42" x2="-445.31" y2="269.42" gradientTransform="translate(50559.06 30437.47) scale(112.88 -112.88)" xlink:href="#_Безымянный_градиент_94"/>
    <clipPath id="clippath-15">
      <polygon class="cls-33" points="169.79 20.05 169.79 21.85 172.25 21.85 172.25 28.76 174.35 28.76 174.35 21.85 176.81 21.85 176.81 20.05 169.79 20.05"/>
    </clipPath>
    <linearGradient id="_Безымянный_градиент_94-10" data-name="Безымянный градиент 94" x1="-446.82" y1="269.42" x2="-445.31" y2="269.42" gradientTransform="translate(50559.06 30437.47) scale(112.88 -112.88)" xlink:href="#_Безымянный_градиент_94"/>
    <clipPath id="clippath-16">
      <path class="cls-33" d="M180.21,20.14c-.57.21-1.07.52-1.5.92-.42.4-.76.88-1,1.45s-.36,1.2-.36,1.89.12,1.31.36,1.87c.24.57.57,1.05.98,1.46.42.41.91.72,1.48.94.57.22,1.19.33,1.86.33.74,0,1.39-.13,1.96-.39.57-.26,1.04-.61,1.43-1.05l-1.46-1.38c-.19.26-.44.47-.75.64-.31.17-.68.25-1.09.25-.36,0-.69-.06-1-.2-.3-.13-.56-.31-.78-.55-.22-.23-.39-.51-.51-.84-.12-.33-.18-.69-.18-1.08s.06-.74.18-1.06c.12-.32.3-.6.52-.84.22-.24.49-.42.79-.56.31-.14.65-.2,1.02-.2.34,0,.66.07.98.2.32.13.58.33.78.6l1.43-1.43c-.37-.42-.85-.74-1.44-.95-.59-.22-1.2-.33-1.81-.33-.66,0-1.28.11-1.86.32"/>
    </clipPath>
    <linearGradient id="_Безымянный_градиент_94-11" data-name="Безымянный градиент 94" x1="-446.82" y1="269.42" x2="-445.31" y2="269.42" gradientTransform="translate(50559.06 30437.47) scale(112.88 -112.88)" xlink:href="#_Безымянный_градиент_94"/>
    <clipPath id="clippath-17">
      <path class="cls-33" d="M191.85,20.05l-2.67,3.19c-.11,0-.22-.01-.33-.02-.11,0-.22,0-.34,0v-3.16h-2.09v8.71h2.09v-3.78c.5-.02.94.05,1.32.19.38.14.7.37.97.68.27.31.5.7.68,1.19.18.48.34,1.06.46,1.72h2.29c-.13-.7-.29-1.32-.48-1.86-.19-.54-.41-1.02-.67-1.43-.25-.41-.54-.76-.85-1.04-.31-.28-.65-.51-1.02-.7l2.92-3.68h-2.29Z"/>
    </clipPath>
    <linearGradient id="_Безымянный_градиент_94-12" data-name="Безымянный градиент 94" x1="-446.82" y1="269.42" x2="-445.31" y2="269.42" gradientTransform="translate(50559.06 30437.47) scale(112.88 -112.88)" xlink:href="#_Безымянный_градиент_94"/>
    <clipPath id="clippath-18">
      <path class="cls-33" d="M198.3,26.87c-.3-.14-.56-.32-.78-.56-.22-.24-.39-.52-.51-.86-.12-.33-.18-.7-.18-1.09s.06-.73.18-1.06c.12-.33.29-.61.51-.84.22-.23.48-.42.79-.55.3-.14.64-.2,1.01-.2s.71.07,1.02.2c.31.14.57.32.79.55.22.23.39.52.51.84.12.33.19.68.19,1.06s-.06.76-.19,1.09c-.12.33-.3.62-.52.86-.22.24-.49.42-.79.56-.3.14-.64.2-1.01.2s-.71-.07-1.01-.2M197.42,20.14c-.58.21-1.08.52-1.5.91-.42.39-.75.87-.99,1.43-.24.56-.36,1.19-.36,1.89s.12,1.32.36,1.89c.24.57.57,1.06.99,1.46.42.41.92.72,1.5.94.58.22,1.21.33,1.89.33s1.31-.11,1.89-.33c.58-.22,1.08-.54,1.51-.94.42-.41.75-.89.99-1.46.24-.57.36-1.2.36-1.89s-.12-1.33-.36-1.89c-.24-.56-.57-1.04-.99-1.43-.42-.39-.92-.7-1.51-.91-.58-.21-1.21-.32-1.89-.32s-1.31.11-1.89.32"/>
    </clipPath>
    <linearGradient id="_Безымянный_градиент_94-13" data-name="Безымянный градиент 94" x1="-446.82" y1="269.42" x2="-445.31" y2="269.42" gradientTransform="translate(50559.06 30437.47) scale(112.88 -112.88)" xlink:href="#_Безымянный_градиент_94"/>
    <clipPath id="clippath-19">
      <polygon class="cls-33" points="205.39 20.05 205.39 28.76 207.51 28.76 207.51 21.88 210.88 21.88 210.88 20.05 205.39 20.05"/>
    </clipPath>
    <linearGradient id="_Безымянный_градиент_94-14" data-name="Безымянный градиент 94" x1="-446.82" y1="269.42" x2="-445.31" y2="269.42" gradientTransform="translate(50559.06 30437.47) scale(112.88 -112.88)" xlink:href="#_Безымянный_градиент_94"/>
    <clipPath id="clippath-20">
      <path class="cls-33" d="M215.32,26.87c-.3-.14-.56-.32-.78-.56-.22-.24-.39-.52-.51-.86-.12-.33-.19-.7-.19-1.09s.06-.73.18-1.06c.12-.33.29-.61.51-.84.22-.23.48-.42.79-.55.3-.14.64-.2,1.01-.2s.71.07,1.02.2c.31.14.57.32.79.55s.39.52.51.84c.12.33.18.68.18,1.06s-.06.76-.18,1.09c-.12.33-.29.62-.52.86-.22.24-.49.42-.79.56-.3.14-.64.2-1.01.2s-.71-.07-1.01-.2M214.45,20.14c-.58.21-1.08.52-1.5.91-.42.39-.75.87-.99,1.43-.24.56-.36,1.19-.36,1.89s.12,1.32.36,1.89c.24.57.57,1.06.99,1.46.42.41.92.72,1.5.94.58.22,1.21.33,1.89.33s1.31-.11,1.9-.33c.58-.22,1.08-.54,1.51-.94s.75-.89.99-1.46c.24-.57.36-1.2.36-1.89s-.12-1.33-.36-1.89c-.24-.56-.57-1.04-.99-1.43-.42-.39-.92-.7-1.51-.91-.58-.21-1.21-.32-1.9-.32s-1.31.11-1.89.32"/>
    </clipPath>
    <linearGradient id="_Безымянный_градиент_94-15" data-name="Безымянный градиент 94" x1="-446.82" y1="269.42" x2="-445.31" y2="269.42" gradientTransform="translate(50559.06 30437.47) scale(112.88 -112.88)" xlink:href="#_Безымянный_градиент_94"/>
    <clipPath id="clippath-21">
      <path class="cls-33" d="M229.12,26.87c-.3-.14-.56-.32-.78-.56-.22-.24-.39-.52-.51-.86-.12-.33-.18-.7-.18-1.09s.06-.73.18-1.06c.12-.33.29-.61.51-.84.22-.23.48-.42.79-.55.3-.14.64-.2,1.01-.2s.71.07,1.01.2c.31.14.57.32.79.55.22.23.39.52.51.84.12.33.19.68.19,1.06s-.06.76-.19,1.09c-.12.33-.3.62-.52.86-.22.24-.48.42-.79.56-.31.14-.64.2-1.01.2s-.71-.07-1.01-.2M228.24,20.14c-.58.21-1.08.52-1.5.91-.42.39-.75.87-.99,1.43-.24.56-.36,1.19-.36,1.89s.12,1.32.36,1.89c.24.57.57,1.06.99,1.46.42.41.92.72,1.5.94.58.22,1.21.33,1.89.33s1.31-.11,1.89-.33c.58-.22,1.08-.54,1.51-.94.42-.41.75-.89.99-1.46.24-.57.36-1.2.36-1.89s-.12-1.33-.36-1.89c-.24-.56-.57-1.04-.99-1.43-.42-.39-.92-.7-1.51-.91-.58-.21-1.21-.32-1.89-.32s-1.31.11-1.89.32"/>
    </clipPath>
    <linearGradient id="_Безымянный_градиент_94-16" data-name="Безымянный градиент 94" x1="-446.82" y1="269.42" x2="-445.31" y2="269.42" gradientTransform="translate(50559.06 30437.47) scale(112.88 -112.88)" xlink:href="#_Безымянный_градиент_94"/>
    <clipPath id="clippath-22">
      <polygon class="cls-33" points="235.41 20.05 235.41 21.85 237.87 21.85 237.87 28.76 239.97 28.76 239.97 21.85 242.43 21.85 242.43 20.05 235.41 20.05"/>
    </clipPath>
    <linearGradient id="_Безымянный_градиент_94-17" data-name="Безымянный градиент 94" x1="-446.82" y1="269.42" x2="-445.31" y2="269.42" gradientTransform="translate(50559.06 30437.47) scale(112.88 -112.88)" xlink:href="#_Безымянный_градиент_94"/>
    <clipPath id="clippath-23">
      <path class="cls-33" d="M246.85,22.41l1.44,4.58h-2.88l1.44-4.58ZM245.88,20.05l-2.63,6.94h-1.5v3.48h1.72v-1.71h6.89v1.71h1.72v-3.48h-1.55l-2.61-6.94h-2.04Z"/>
    </clipPath>
    <linearGradient id="_Безымянный_градиент_94-18" data-name="Безымянный градиент 94" x1="-446.82" y1="269.42" x2="-445.31" y2="269.42" gradientTransform="translate(50559.06 30438.03) scale(112.88 -112.88)" xlink:href="#_Безымянный_градиент_94"/>
    <clipPath id="clippath-24">
      <path class="cls-33" d="M255.15,25h.7c.26,0,.48.03.66.07.18.05.32.12.42.2.1.09.18.19.22.3.04.11.07.24.07.38,0,.31-.1.56-.29.75-.19.19-.55.28-1.08.28h-.7v-1.99ZM253.06,20.05v8.71h2.6c.51,0,.99-.06,1.43-.18.45-.12.84-.3,1.17-.54.34-.24.6-.54.79-.91.19-.37.29-.8.29-1.3s-.1-.92-.29-1.25-.45-.61-.78-.81c-.33-.2-.71-.34-1.16-.42-.45-.08-.92-.12-1.42-.12h-.54v-3.17h-2.09ZM259.89,28.76h2.09v-8.71h-2.09v8.71Z"/>
    </clipPath>
    <linearGradient id="_Безымянный_градиент_94-19" data-name="Безымянный градиент 94" x1="-446.82" y1="269.42" x2="-445.31" y2="269.42" gradientTransform="translate(50559.06 30437.47) scale(112.88 -112.88)" xlink:href="#_Безымянный_градиент_94"/>
    <clipPath id="clippath-25">
      <polygon class="cls-33" points="268.94 20.05 267.34 22.76 265.72 20.05 263.19 20.05 265.99 24.16 262.94 28.76 265.45 28.76 267.28 25.69 269.19 28.76 271.79 28.76 268.64 24.16 271.39 20.05 268.94 20.05"/>
    </clipPath>
    <linearGradient id="_Безымянный_градиент_94-20" data-name="Безымянный градиент 94" x1="-446.82" y1="269.42" x2="-445.31" y2="269.42" gradientTransform="translate(50559.06 30437.47) scale(112.88 -112.88)" xlink:href="#_Безымянный_градиент_94"/>
    <clipPath id="clippath-26">
      <path class="cls-33" d="M276.86,22.38l1.08,2.99h-2.19l1.11-2.99ZM275.87,20.05l-3.66,8.71h2.29l.64-1.71h3.37l.68,1.71h2.34l-3.62-8.71h-2.04Z"/>
    </clipPath>
    <linearGradient id="_Безымянный_градиент_94-21" data-name="Безымянный градиент 94" x1="-446.82" y1="269.42" x2="-445.31" y2="269.42" gradientTransform="translate(50559.06 30437.47) scale(112.88 -112.88)" xlink:href="#_Безымянный_градиент_94"/>
    <clipPath id="clippath-27">
      <path class="cls-33" d="M123.37,39.48h1.64c.64,0,1.14.12,1.5.37.36.25.55.63.55,1.14,0,.29-.06.53-.18.72-.12.19-.28.35-.48.47-.2.12-.43.21-.69.26-.26.05-.53.08-.81.08h-1.53v-3.05ZM123.37,35.81h1.41c.27,0,.52.03.75.07.23.05.43.13.6.24.17.11.3.25.4.42.09.17.14.37.14.62s-.05.47-.15.65c-.1.18-.22.32-.38.42-.16.11-.34.19-.54.24-.2.05-.41.07-.61.07h-1.62v-2.73ZM122.18,34.81v8.71h2.81c.47,0,.91-.05,1.31-.16.4-.11.75-.26,1.04-.47.29-.21.52-.47.68-.77.16-.3.24-.65.24-1.04,0-.31-.05-.58-.15-.83-.1-.25-.24-.46-.41-.65-.17-.18-.37-.32-.61-.44-.23-.11-.49-.18-.77-.22v-.02c.46-.12.83-.34,1.1-.68.27-.34.41-.74.41-1.21,0-.44-.09-.79-.26-1.08-.17-.29-.39-.52-.66-.68-.27-.17-.58-.29-.92-.36-.34-.07-.67-.11-1-.11h-2.82Z"/>
    </clipPath>
    <linearGradient id="_Безымянный_градиент_94-22" data-name="Безымянный градиент 94" x1="-446.82" y1="269.38" x2="-445.31" y2="269.38" gradientTransform="translate(50559.06 30447.2) scale(112.88 -112.88)" xlink:href="#_Безымянный_градиент_94"/>
    <clipPath id="clippath-28">
      <path class="cls-33" d="M135.73,34.93c-.56.22-1.04.54-1.45.95-.41.41-.73.89-.97,1.44-.23.56-.35,1.17-.35,1.85s.12,1.28.34,1.84c.23.56.55,1.05.95,1.45.41.41.89.72,1.44.95.56.23,1.17.34,1.83.34.39,0,.74-.04,1.08-.12.33-.08.64-.2.91-.34.27-.14.52-.31.75-.5.22-.19.41-.39.57-.62l-.9-.68c-.27.4-.61.7-1.03.89-.41.19-.86.29-1.35.29s-.97-.09-1.38-.28c-.41-.18-.76-.44-1.04-.76-.29-.32-.51-.69-.67-1.11-.15-.42-.23-.88-.23-1.36s.08-.93.23-1.35c.16-.43.38-.8.67-1.12.29-.32.63-.58,1.04-.76.41-.19.87-.28,1.39-.28s.95.11,1.34.32c.39.21.68.46.87.74l.91-.76c-.15-.21-.35-.41-.58-.57-.23-.17-.48-.31-.76-.42-.27-.12-.56-.2-.87-.26-.31-.06-.62-.09-.93-.09-.66,0-1.26.11-1.82.34"/>
    </clipPath>
    <linearGradient id="_Безымянный_градиент_94-23" data-name="Безымянный градиент 94" x1="-446.82" y1="269.38" x2="-445.31" y2="269.38" gradientTransform="translate(50559.06 30447.2) scale(112.88 -112.88)" xlink:href="#_Безымянный_градиент_94"/>
    <clipPath id="clippath-29">
      <polygon class="cls-33" points="148.1 34.81 143.4 41.81 143.37 41.81 143.37 34.81 142.19 34.81 142.19 43.52 143.62 43.52 148.32 36.49 148.34 36.49 148.34 43.52 149.52 43.52 149.52 34.81 148.1 34.81"/>
    </clipPath>
    <linearGradient id="_Безымянный_градиент_94-24" data-name="Безымянный градиент 94" x1="-446.82" y1="269.38" x2="-445.31" y2="269.38" gradientTransform="translate(50559.06 30447.2) scale(112.88 -112.88)" xlink:href="#_Безымянный_градиент_94"/>
    <clipPath id="clippath-30">
      <path class="cls-33" d="M153.92,34.93c-.56.22-1.04.54-1.45.95-.41.41-.73.89-.97,1.44-.23.56-.35,1.17-.35,1.85s.12,1.28.34,1.84c.23.56.55,1.05.95,1.45.41.41.89.72,1.45.95.56.23,1.17.34,1.83.34.39,0,.74-.04,1.08-.12.33-.08.64-.2.91-.34.27-.14.52-.31.74-.5.22-.19.41-.39.57-.62l-.9-.68c-.27.4-.61.7-1.03.89s-.86.29-1.35.29c-.51,0-.97-.09-1.38-.28-.41-.18-.76-.44-1.05-.76-.29-.32-.51-.69-.66-1.11-.15-.42-.23-.88-.23-1.36s.08-.93.23-1.35c.16-.43.38-.8.66-1.12.29-.32.64-.58,1.05-.76.41-.19.87-.28,1.39-.28s.95.11,1.34.32c.39.21.68.46.87.74l.91-.76c-.15-.21-.35-.41-.58-.57-.23-.17-.48-.31-.76-.42-.28-.12-.57-.2-.87-.26-.31-.06-.62-.09-.93-.09-.66,0-1.26.11-1.82.34"/>
    </clipPath>
    <linearGradient id="_Безымянный_градиент_94-25" data-name="Безымянный градиент 94" x1="-446.82" y1="269.38" x2="-445.31" y2="269.38" gradientTransform="translate(50559.06 30447.2) scale(112.88 -112.88)" xlink:href="#_Безымянный_градиент_94"/>
    <clipPath id="clippath-31">
      <polygon class="cls-33" points="159.83 34.81 159.83 35.86 162.63 35.86 162.63 43.52 163.81 43.52 163.81 35.86 166.62 35.86 166.62 34.81 159.83 34.81"/>
    </clipPath>
    <linearGradient id="_Безымянный_градиент_94-26" data-name="Безымянный градиент 94" x1="-446.82" y1="269.38" x2="-445.31" y2="269.38" gradientTransform="translate(50559.06 30447.2) scale(112.88 -112.88)" xlink:href="#_Безымянный_градиент_94"/>
    <clipPath id="clippath-32">
      <polygon class="cls-33" points="167.91 34.81 167.91 43.52 173.61 43.52 173.61 42.48 169.09 42.48 169.09 39.51 173.16 39.51 173.16 38.5 169.09 38.5 169.09 35.86 173.43 35.86 173.43 34.81 167.91 34.81"/>
    </clipPath>
    <linearGradient id="_Безымянный_градиент_94-27" data-name="Безымянный градиент 94" x1="-446.82" y1="269.38" x2="-445.31" y2="269.38" gradientTransform="translate(50559.06 30447.2) scale(112.88 -112.88)" xlink:href="#_Безымянный_градиент_94"/>
    <clipPath id="clippath-33">
      <polygon class="cls-33" points="182.24 34.81 179.59 41.6 179.56 41.6 176.87 34.81 175.1 34.81 175.1 43.52 176.25 43.52 176.24 36.32 176.28 36.32 179.18 43.52 179.91 43.52 182.82 36.32 182.86 36.32 182.85 43.52 184.03 43.52 184.03 34.81 182.24 34.81"/>
    </clipPath>
    <linearGradient id="_Безымянный_градиент_94-28" data-name="Безымянный градиент 94" x1="-446.82" y1="269.38" x2="-445.31" y2="269.38" gradientTransform="translate(50559.06 30447.2) scale(112.88 -112.88)" xlink:href="#_Безымянный_градиент_94"/>
    <clipPath id="clippath-34">
      <polygon class="cls-33" points="186.12 34.81 186.12 43.52 191.82 43.52 191.82 42.48 187.3 42.48 187.3 39.51 191.38 39.51 191.38 38.5 187.3 38.5 187.3 35.86 191.65 35.86 191.65 34.81 186.12 34.81"/>
    </clipPath>
    <linearGradient id="_Безымянный_градиент_94-29" data-name="Безымянный градиент 94" x1="-446.82" y1="269.38" x2="-445.31" y2="269.38" gradientTransform="translate(50559.06 30447.2) scale(112.88 -112.88)" xlink:href="#_Безымянный_градиент_94"/>
    <clipPath id="clippath-35">
      <path class="cls-33" d="M199.53,42.4c-.41-.18-.76-.44-1.05-.76-.29-.32-.51-.69-.66-1.12-.16-.43-.24-.88-.24-1.37s.08-.92.24-1.35c.15-.42.38-.79.66-1.11.29-.32.64-.58,1.05-.76.41-.19.87-.28,1.38-.28s.97.09,1.38.28c.41.19.76.44,1.05.76.29.32.51.69.66,1.11.15.42.23.87.23,1.35s-.08.94-.23,1.37c-.16.42-.38.8-.66,1.12-.29.32-.63.57-1.05.76-.41.19-.87.28-1.38.28s-.97-.09-1.38-.28M199.08,34.93c-.56.22-1.05.54-1.46.94-.41.4-.73.88-.96,1.44-.23.56-.34,1.17-.34,1.84s.11,1.29.34,1.85c.23.56.55,1.05.96,1.45.41.41.9.72,1.46.95.56.23,1.17.34,1.83.34s1.26-.11,1.83-.34c.56-.22,1.05-.54,1.46-.95.41-.41.73-.89.96-1.45.23-.56.34-1.18.34-1.85s-.12-1.29-.34-1.84c-.23-.56-.55-1.04-.96-1.44-.41-.4-.9-.72-1.46-.94-.56-.23-1.17-.34-1.83-.34s-1.27.11-1.83.34"/>
    </clipPath>
    <linearGradient id="_Безымянный_градиент_94-30" data-name="Безымянный градиент 94" x1="-446.82" y1="269.38" x2="-445.31" y2="269.38" gradientTransform="translate(50559.06 30447.2) scale(112.88 -112.88)" xlink:href="#_Безымянный_градиент_94"/>
    <clipPath id="clippath-36">
      <path class="cls-33" d="M208.3,39.5h1.53c.59,0,1.07.12,1.44.36s.55.61.55,1.11-.18.85-.54,1.11c-.36.26-.85.39-1.46.39h-1.52v-2.96ZM207.12,34.81v8.71h2.79c.44,0,.85-.05,1.23-.16.38-.11.7-.27.98-.49.27-.22.49-.49.65-.81.15-.32.23-.69.23-1.11s-.07-.78-.22-1.09c-.15-.31-.36-.58-.63-.79-.27-.21-.59-.37-.97-.48-.37-.11-.79-.16-1.24-.16h-1.63v-2.57h4.07v-1.06h-5.25Z"/>
    </clipPath>
    <linearGradient id="_Безымянный_градиент_94-31" data-name="Безымянный градиент 94" x1="-446.82" y1="269.38" x2="-445.31" y2="269.38" gradientTransform="translate(50559.06 30447.2) scale(112.88 -112.88)" xlink:href="#_Безымянный_градиент_94"/>
    <clipPath id="clippath-37">
      <path class="cls-33" d="M215.76,35.81h1.36c.6,0,1.08.11,1.43.33.35.22.53.59.53,1.1s-.17.86-.52,1.1c-.35.24-.83.36-1.45.36h-1.34v-2.89ZM214.57,34.81v8.71h1.18v-3.85h1.42c.44,0,.86-.05,1.24-.15.38-.1.71-.25.99-.45.27-.2.49-.45.65-.76.16-.31.24-.67.24-1.09s-.07-.78-.22-1.08c-.15-.3-.36-.55-.63-.75-.27-.2-.59-.34-.97-.44-.38-.09-.79-.14-1.24-.14h-2.64Z"/>
    </clipPath>
    <linearGradient id="_Безымянный_градиент_94-32" data-name="Безымянный градиент 94" x1="-446.82" y1="269.38" x2="-445.31" y2="269.38" gradientTransform="translate(50559.06 30447.2) scale(112.88 -112.88)" xlink:href="#_Безымянный_градиент_94"/>
    <clipPath id="clippath-38">
      <path class="cls-33" d="M224.34,36.14l1.7,4.21h-3.42l1.72-4.21ZM223.78,34.81l-3.74,8.71h1.3l.87-2.14h4.21l.89,2.14h1.34l-3.72-8.71h-1.16Z"/>
    </clipPath>
    <linearGradient id="_Безымянный_градиент_94-33" data-name="Безымянный градиент 94" x1="-446.82" y1="269.38" x2="-445.31" y2="269.38" gradientTransform="translate(50559.06 30447.2) scale(112.88 -112.88)" xlink:href="#_Безымянный_градиент_94"/>
    <clipPath id="clippath-39">
      <path class="cls-33" d="M230.73,35c-.47.27-.83.66-1.08,1.18l.98.54c.15-.34.36-.62.65-.82.28-.2.62-.3,1.02-.3.5,0,.9.13,1.21.37.31.25.46.61.46,1.08,0,.25-.05.47-.16.66-.11.19-.25.34-.44.46-.19.12-.4.21-.65.27-.25.06-.51.08-.79.08h-.63v.93h.59c.38,0,.72.03,1.03.09.31.06.58.15.81.28.22.13.4.3.52.5s.19.46.19.76c0,.49-.17.89-.52,1.19-.34.3-.83.45-1.46.45-.57,0-1.01-.13-1.32-.38-.32-.25-.56-.6-.75-1.05l-1.04.49c.12.29.27.55.45.79.18.24.39.44.63.62.25.17.53.31.85.4.32.09.69.14,1.1.14.45,0,.88-.06,1.27-.18.4-.12.75-.3,1.04-.53.29-.23.53-.51.69-.84.17-.33.25-.7.25-1.11,0-.38-.07-.69-.21-.95-.14-.26-.32-.47-.53-.64-.21-.17-.45-.3-.7-.38-.25-.09-.5-.14-.74-.17v-.02c.2-.05.41-.13.62-.25.21-.12.4-.25.56-.42.16-.16.3-.36.41-.58.11-.22.16-.46.16-.73,0-.39-.07-.73-.21-1.02-.14-.29-.34-.54-.59-.74-.26-.2-.56-.35-.9-.45-.34-.1-.72-.15-1.12-.15-.64,0-1.19.14-1.66.41"/>
    </clipPath>
    <linearGradient id="_Безымянный_градиент_94-34" data-name="Безымянный градиент 94" x1="-446.82" y1="269.38" x2="-445.31" y2="269.38" gradientTransform="translate(50559.06 30447.2) scale(112.88 -112.88)" xlink:href="#_Безымянный_градиент_94"/>
    <clipPath id="clippath-40">
      <path class="cls-33" d="M240.12,42.4c-.41-.18-.76-.44-1.05-.76-.29-.32-.51-.69-.66-1.12-.16-.43-.23-.88-.23-1.37s.08-.92.23-1.35c.15-.42.38-.79.66-1.11.29-.32.64-.58,1.05-.76.41-.19.87-.28,1.38-.28s.97.09,1.38.28c.41.19.76.44,1.04.76.29.32.51.69.66,1.11.16.42.23.87.23,1.35s-.08.94-.23,1.37c-.15.42-.38.8-.66,1.12-.29.32-.63.57-1.04.76-.41.19-.87.28-1.38.28s-.97-.09-1.38-.28M239.67,34.93c-.56.22-1.05.54-1.46.94-.41.4-.73.88-.96,1.44-.23.56-.34,1.17-.34,1.84s.12,1.29.34,1.85c.23.56.55,1.05.96,1.45.41.41.9.72,1.46.95.56.23,1.17.34,1.83.34s1.27-.11,1.83-.34c.56-.22,1.05-.54,1.46-.95.41-.41.73-.89.96-1.45.23-.56.34-1.18.34-1.85s-.11-1.29-.34-1.84c-.23-.56-.55-1.04-.96-1.44s-.9-.72-1.46-.94c-.56-.23-1.17-.34-1.83-.34s-1.27.11-1.83.34"/>
    </clipPath>
    <linearGradient id="_Безымянный_градиент_94-35" data-name="Безымянный градиент 94" x1="-446.82" y1="269.38" x2="-445.31" y2="269.38" gradientTransform="translate(50559.06 30447.2) scale(112.88 -112.88)" xlink:href="#_Безымянный_градиент_94"/>
    <clipPath id="clippath-41">
      <path class="cls-33" d="M248.89,39.48h1.64c.64,0,1.14.12,1.5.37.36.25.54.63.54,1.14,0,.29-.06.53-.18.72-.12.19-.28.35-.48.47s-.43.21-.69.26c-.26.05-.53.08-.81.08h-1.53v-3.05ZM248.89,35.81h1.41c.27,0,.52.03.75.07.23.05.43.13.6.24.17.11.3.25.4.42.09.17.14.37.14.62s-.05.47-.15.65c-.1.18-.22.32-.38.42-.16.11-.34.19-.54.24-.2.05-.41.07-.61.07h-1.62v-2.73ZM247.71,34.81v8.71h2.8c.48,0,.92-.05,1.32-.16.4-.11.75-.26,1.04-.47s.52-.47.68-.77c.16-.3.24-.65.24-1.04,0-.31-.05-.58-.15-.83-.1-.25-.23-.46-.41-.65-.17-.18-.37-.32-.61-.44-.23-.11-.49-.18-.77-.22v-.02c.46-.12.83-.34,1.1-.68s.41-.74.41-1.21c0-.44-.08-.79-.26-1.08-.17-.29-.39-.52-.66-.68-.27-.17-.58-.29-.92-.36-.34-.07-.67-.11-1-.11h-2.82Z"/>
    </clipPath>
    <linearGradient id="_Безымянный_градиент_94-36" data-name="Безымянный градиент 94" x1="-446.82" y1="269.38" x2="-445.31" y2="269.38" gradientTransform="translate(50559.06 30447.2) scale(112.88 -112.88)" xlink:href="#_Безымянный_градиент_94"/>
    <clipPath id="clippath-42">
      <path class="cls-33" d="M258.79,36.14l1.7,4.21h-3.42l1.72-4.21ZM258.23,34.81l-3.74,8.71h1.31l.87-2.14h4.21l.88,2.14h1.34l-3.71-8.71h-1.16Z"/>
    </clipPath>
    <linearGradient id="_Безымянный_градиент_94-37" data-name="Безымянный градиент 94" x1="-446.82" y1="269.38" x2="-445.31" y2="269.38" gradientTransform="translate(50559.06 30447.2) scale(112.88 -112.88)" xlink:href="#_Безымянный_градиент_94"/>
    <clipPath id="clippath-43">
      <polygon class="cls-33" points="269.95 34.81 269.95 38.47 265.53 38.47 265.53 34.81 264.35 34.81 264.35 43.52 265.53 43.52 265.53 39.53 269.95 39.53 269.95 43.52 271.13 43.52 271.13 34.81 269.95 34.81"/>
    </clipPath>
    <linearGradient id="_Безымянный_градиент_94-38" data-name="Безымянный градиент 94" x1="-446.82" y1="269.38" x2="-445.31" y2="269.38" gradientTransform="translate(50559.06 30447.2) scale(112.88 -112.88)" xlink:href="#_Безымянный_градиент_94"/>
    <clipPath id="clippath-44">
      <polygon class="cls-33" points="279.13 34.81 274.43 41.81 274.41 41.81 274.41 34.81 273.23 34.81 273.23 43.52 274.66 43.52 279.35 36.49 279.38 36.49 279.38 43.52 280.56 43.52 280.56 34.81 279.13 34.81"/>
    </clipPath>
    <linearGradient id="_Безымянный_градиент_94-39" data-name="Безымянный градиент 94" x1="-446.82" y1="269.38" x2="-445.31" y2="269.38" gradientTransform="translate(50559.06 30447.2) scale(112.88 -112.88)" xlink:href="#_Безымянный_градиент_94"/>
    <clipPath id="clippath-45">
      <path class="cls-33" d="M284.29,38.27c-.37-.25-.56-.59-.56-1.02,0-.48.19-.83.56-1.05.38-.22.94-.33,1.67-.33h1.43v2.77h-1.43c-.75,0-1.31-.12-1.68-.37M285.85,34.81c-1.05,0-1.89.2-2.49.61-.61.41-.91,1.01-.91,1.8,0,.58.19,1.04.54,1.38.35.34.82.55,1.41.65v.03c-.32.15-.61.35-.88.61-.27.26-.51.58-.72.94-.21.36-.38.77-.51,1.23-.13.46-.21.94-.25,1.46h1.31c.07-.7.18-1.29.35-1.78.17-.49.38-.88.65-1.19.26-.3.57-.52.93-.66.36-.14.75-.2,1.19-.2h.93v3.83h1.18v-8.71h-2.73Z"/>
    </clipPath>
    <linearGradient id="_Безымянный_градиент_94-40" data-name="Безымянный градиент 94" x1="-446.82" y1="269.38" x2="-445.31" y2="269.38" gradientTransform="translate(50559.06 30447.2) scale(112.88 -112.88)" xlink:href="#_Безымянный_градиент_94"/>
  </defs>
  <g id="_Слой_1" data-name="Слой 1">
    <g>
      <g class="cls-49">
        <rect class="cls-48" x="37.71" y="56.86" width="2.13" height="3.43"/>
      </g>
      <g class="cls-50">
        <rect class="cls-35" x="40.48" y="56.86" width="2.19" height="3.51"/>
      </g>
      <g class="cls-53">
        <rect class="cls-37" x="43.18" y="56.86" width="2.13" height="3.43"/>
      </g>
      <g class="cls-52">
        <rect class="cls-34" x="45.95" y="56.95" width="2.11" height="3.43"/>
      </g>
      <path class="cls-32" d="M42.41,2.66v42.22c-.36-.49-.77-.85-1.24-1.13-.89-.54-1.86-.9-2.84-1.24-1.46-.51-2.92-1-4.37-1.54-.8-.3-1.54-.71-2.19-1.27-1.12-.94-1.4-2.11-.97-3.49.25-.81.72-1.51,1.14-2.24.91-1.59,1.84-3.17,2.71-4.78.74-1.36,1.17-2.84,1.63-4.3.95-3.02,1.94-6.04,2.83-9.08,1.25-4.25,2.28-8.56,3.23-12.88.01-.06.03-.12.07-.25M40.41,15.99s-.02,0-.04,0c-.37,1.49-.71,2.98-1.11,4.46-.41,1.48-.84,2.96-1.35,4.41-.51,1.45-1.09,2.87-1.71,4.28-.61,1.39-1.32,2.75-1.98,4.12.08-.04.14-.11.18-.17.37-.54.74-1.09,1.1-1.64.84-1.3,1.65-2.61,2.29-4.03.73-1.61,1.21-3.31,1.56-5.03.36-1.79.64-3.59.94-5.39.06-.33.08-.66.11-1"/>
      <g class="cls-51">
        <rect class="cls-47" x="43.48" y="14.37" width="11.47" height="30.48"/>
      </g>
      <g class="cls-57">
        <rect class="cls-46" x="17.62" y="22.82" width="13.89" height="26.87"/>
      </g>
      <g class="cls-56">
        <rect class="cls-45" x="12.55" y="51.12" width="61.81" height="9.31"/>
      </g>
      <g class="cls-54">
        <rect class="cls-44" x="54.05" y="25.8" width="13.76" height="23.57"/>
      </g>
      <g class="cls-55">
        <rect class="cls-42" x="66.69" y="45.93" width="19.21" height="8.15"/>
      </g>
      <g class="cls-58">
        <rect class="cls-43" y="46.42" width="18.76" height="7.33"/>
      </g>
      <path class="cls-32" d="M52.37,45.13c-.77.54-1.52,1.06-2.26,1.59-.97.69-2.04,1.15-3.21,1.38-1.3.25-2.59.46-3.92.41-1.76-.06-3.51-.3-5.17-.92-1.23-.46-2.3-1.16-3.19-2.14-.08-.09-.16-.19-.28-.34,6.05.95,12.03.86,18.02.02"/>
      <g class="cls-88">
        <rect class="cls-38" x="121.99" y="20.05" width="5.49" height="8.71"/>
      </g>
      <g class="cls-93">
        <rect class="cls-41" x="128.2" y="19.82" width="9.48" height="9.18"/>
      </g>
      <g class="cls-87">
        <rect class="cls-39" x="138.14" y="20.05" width="10.33" height="10.42"/>
      </g>
      <g class="cls-86">
        <rect class="cls-36" x="151.67" y="20.05" width="10.33" height="10.42"/>
      </g>
      <g class="cls-85">
        <rect class="cls-40" x="162.99" y="20.05" width="6.08" height="8.71"/>
      </g>
      <g class="cls-89">
        <rect class="cls-1" x="169.79" y="20.05" width="7.02" height="8.71"/>
      </g>
      <g class="cls-91">
        <rect class="cls-3" x="177.34" y="19.82" width="8.07" height="9.18"/>
      </g>
      <g class="cls-90">
        <rect class="cls-5" x="186.42" y="20.05" width="7.81" height="8.71"/>
      </g>
      <g class="cls-94">
        <rect class="cls-2" x="194.57" y="19.82" width="9.48" height="9.18"/>
      </g>
      <g class="cls-92">
        <rect class="cls-4" x="205.39" y="20.05" width="5.49" height="8.71"/>
      </g>
      <g class="cls-59">
        <rect class="cls-10" x="211.6" y="19.82" width="9.49" height="9.18"/>
      </g>
      <g class="cls-60">
        <rect class="cls-7" x="225.39" y="19.82" width="9.49" height="9.18"/>
      </g>
      <g class="cls-63">
        <rect class="cls-9" x="235.41" y="20.05" width="7.02" height="8.71"/>
      </g>
      <g class="cls-62">
        <rect class="cls-8" x="241.75" y="20.05" width="10.33" height="10.42"/>
      </g>
      <g class="cls-61">
        <rect class="cls-6" x="253.06" y="20.05" width="8.92" height="8.71"/>
      </g>
      <g class="cls-64">
        <rect class="cls-14" x="262.94" y="20.05" width="8.85" height="8.71"/>
      </g>
      <g class="cls-73">
        <rect class="cls-23" x="272.22" y="20.05" width="9.31" height="8.71"/>
      </g>
      <g class="cls-71">
        <rect class="cls-12" x="122.18" y="34.81" width="6.08" height="8.71"/>
      </g>
      <g class="cls-72">
        <rect class="cls-16" x="132.96" y="34.59" width="7.87" height="9.15"/>
      </g>
      <g class="cls-74">
        <rect class="cls-11" x="142.19" y="34.81" width="7.33" height="8.71"/>
      </g>
      <g class="cls-82">
        <rect class="cls-22" x="151.15" y="34.59" width="7.87" height="9.15"/>
      </g>
      <g class="cls-84">
        <rect class="cls-17" x="159.83" y="34.81" width="6.79" height="8.71"/>
      </g>
      <g class="cls-81">
        <rect class="cls-20" x="167.91" y="34.81" width="5.7" height="8.71"/>
      </g>
      <g class="cls-80">
        <rect class="cls-15" x="175.1" y="34.81" width="8.93" height="8.71"/>
      </g>
      <g class="cls-75">
        <rect class="cls-21" x="186.12" y="34.81" width="5.7" height="8.71"/>
      </g>
      <g class="cls-76">
        <rect class="cls-24" x="196.32" y="34.59" width="9.18" height="9.15"/>
      </g>
      <g class="cls-77">
        <rect class="cls-25" x="207.12" y="34.81" width="5.88" height="8.71"/>
      </g>
      <g class="cls-78">
        <rect class="cls-26" x="214.57" y="34.81" width="5.71" height="8.71"/>
      </g>
      <g class="cls-83">
        <rect class="cls-31" x="220.04" y="34.81" width="8.61" height="8.71"/>
      </g>
      <g class="cls-79">
        <rect class="cls-18" x="229.34" y="34.59" width="6.3" height="9.15"/>
      </g>
      <g class="cls-67">
        <rect class="cls-19" x="236.91" y="34.59" width="9.18" height="9.15"/>
      </g>
      <g class="cls-69">
        <rect class="cls-30" x="247.71" y="34.81" width="6.08" height="8.71"/>
      </g>
      <g class="cls-68">
        <rect class="cls-29" x="254.49" y="34.81" width="8.61" height="8.71"/>
      </g>
      <g class="cls-70">
        <rect class="cls-28" x="264.35" y="34.81" width="6.78" height="8.71"/>
      </g>
      <g class="cls-65">
        <rect class="cls-27" x="273.23" y="34.81" width="7.33" height="8.71"/>
      </g>
      <g class="cls-66">
        <rect class="cls-13" x="282.04" y="34.81" width="6.53" height="8.71"/>
      </g>
    </g>
  </g>
</svg>