<?xml version="1.0" encoding="UTF-8"?>
<svg id="Layer_2" data-name="Layer 2" xmlns="http://www.w3.org/2000/svg" xmlns:xlink="http://www.w3.org/1999/xlink" viewBox="0 0 289.6 268.7">
  <defs>
    <style>
      .cls-1 {
        fill: url(#_Безымянный_градиент_57-41);
      }

      .cls-1, .cls-2, .cls-3, .cls-4, .cls-5, .cls-6, .cls-7, .cls-8, .cls-9, .cls-10, .cls-11, .cls-12, .cls-13, .cls-14, .cls-15, .cls-16, .cls-17, .cls-18, .cls-19, .cls-20, .cls-21, .cls-22, .cls-23, .cls-24, .cls-25, .cls-26, .cls-27, .cls-28, .cls-29, .cls-30, .cls-31, .cls-32, .cls-33, .cls-34, .cls-35, .cls-36, .cls-37, .cls-38, .cls-39, .cls-40, .cls-41, .cls-42, .cls-43, .cls-44, .cls-45, .cls-46, .cls-47, .cls-48, .cls-49 {
        stroke-width: 0px;
      }

      .cls-2 {
        fill: url(#_Безымянный_градиент_57-40);
      }

      .cls-3 {
        fill: url(#_Безымянный_градиент_57-31);
      }

      .cls-4 {
        fill: url(#_Безымянный_градиент_57-30);
      }

      .cls-5 {
        fill: url(#_Безымянный_градиент_57-35);
      }

      .cls-6 {
        fill: url(#_Безымянный_градиент_57-37);
      }

      .cls-7 {
        fill: url(#_Безымянный_градиент_57-38);
      }

      .cls-8 {
        fill: url(#_Безымянный_градиент_57-39);
      }

      .cls-9 {
        fill: url(#_Безымянный_градиент_57-33);
      }

      .cls-10 {
        fill: url(#_Безымянный_градиент_57-34);
      }

      .cls-11 {
        fill: url(#_Безымянный_градиент_57-32);
      }

      .cls-12 {
        fill: url(#_Безымянный_градиент_57-28);
      }

      .cls-13 {
        fill: url(#_Безымянный_градиент_57-29);
      }

      .cls-14 {
        fill: url(#_Безымянный_градиент_57-24);
      }

      .cls-15 {
        fill: url(#_Безымянный_градиент_57-25);
      }

      .cls-16 {
        fill: url(#_Безымянный_градиент_57-22);
      }

      .cls-17 {
        fill: url(#_Безымянный_градиент_57-26);
      }

      .cls-18 {
        fill: url(#_Безымянный_градиент_57-27);
      }

      .cls-19 {
        fill: url(#_Безымянный_градиент_57-20);
      }

      .cls-20 {
        fill: url(#_Безымянный_градиент_57-21);
      }

      .cls-21 {
        fill: url(#_Безымянный_градиент_57-23);
      }

      .cls-22 {
        fill: url(#_Безымянный_градиент_57-36);
      }

      .cls-23 {
        fill: url(#_Безымянный_градиент_57-19);
      }

      .cls-24 {
        fill: url(#_Безымянный_градиент_57-17);
      }

      .cls-25 {
        fill: url(#_Безымянный_градиент_57-18);
      }

      .cls-26 {
        fill: url(#_Безымянный_градиент_57-15);
      }

      .cls-27 {
        fill: url(#_Безымянный_градиент_57-13);
      }

      .cls-28 {
        fill: url(#_Безымянный_градиент_57-16);
      }

      .cls-29 {
        fill: url(#_Безымянный_градиент_57-12);
      }

      .cls-30 {
        fill: url(#_Безымянный_градиент_57-14);
      }

      .cls-31 {
        fill: url(#_Безымянный_градиент_57-11);
      }

      .cls-32 {
        fill: url(#_Безымянный_градиент_57-10);
      }

      .cls-33 {
        fill: #be1622;
      }

      .cls-50 {
        clip-path: url(#clippath);
      }

      .cls-34 {
        fill: none;
      }

      .cls-35 {
        fill: url(#_Безымянный_градиент_46-5);
      }

      .cls-36 {
        fill: url(#_Безымянный_градиент_46-6);
      }

      .cls-37 {
        fill: url(#_Безымянный_градиент_46-2);
      }

      .cls-38 {
        fill: url(#_Безымянный_градиент_46-4);
      }

      .cls-39 {
        fill: url(#_Безымянный_градиент_46-3);
      }

      .cls-40 {
        fill: url(#_Безымянный_градиент_57-5);
      }

      .cls-41 {
        fill: url(#_Безымянный_градиент_57-9);
      }

      .cls-42 {
        fill: url(#_Безымянный_градиент_57-4);
      }

      .cls-43 {
        fill: url(#_Безымянный_градиент_57-2);
      }

      .cls-44 {
        fill: url(#_Безымянный_градиент_57-3);
      }

      .cls-45 {
        fill: url(#_Безымянный_градиент_57-6);
      }

      .cls-46 {
        fill: url(#_Безымянный_градиент_57-7);
      }

      .cls-47 {
        fill: url(#_Безымянный_градиент_57-8);
      }

      .cls-51 {
        clip-path: url(#clippath-1);
      }

      .cls-52 {
        clip-path: url(#clippath-4);
      }

      .cls-53 {
        clip-path: url(#clippath-3);
      }

      .cls-54 {
        clip-path: url(#clippath-2);
      }

      .cls-55 {
        clip-path: url(#clippath-7);
      }

      .cls-56 {
        clip-path: url(#clippath-8);
      }

      .cls-57 {
        clip-path: url(#clippath-6);
      }

      .cls-58 {
        clip-path: url(#clippath-5);
      }

      .cls-59 {
        clip-path: url(#clippath-9);
      }

      .cls-60 {
        clip-path: url(#clippath-20);
      }

      .cls-61 {
        clip-path: url(#clippath-21);
      }

      .cls-62 {
        clip-path: url(#clippath-24);
      }

      .cls-63 {
        clip-path: url(#clippath-23);
      }

      .cls-64 {
        clip-path: url(#clippath-22);
      }

      .cls-65 {
        clip-path: url(#clippath-25);
      }

      .cls-66 {
        clip-path: url(#clippath-44);
      }

      .cls-67 {
        clip-path: url(#clippath-45);
      }

      .cls-68 {
        clip-path: url(#clippath-40);
      }

      .cls-69 {
        clip-path: url(#clippath-42);
      }

      .cls-70 {
        clip-path: url(#clippath-41);
      }

      .cls-71 {
        clip-path: url(#clippath-43);
      }

      .cls-72 {
        clip-path: url(#clippath-27);
      }

      .cls-73 {
        clip-path: url(#clippath-28);
      }

      .cls-74 {
        clip-path: url(#clippath-26);
      }

      .cls-75 {
        clip-path: url(#clippath-29);
      }

      .cls-76 {
        clip-path: url(#clippath-34);
      }

      .cls-77 {
        clip-path: url(#clippath-35);
      }

      .cls-78 {
        clip-path: url(#clippath-36);
      }

      .cls-79 {
        clip-path: url(#clippath-37);
      }

      .cls-80 {
        clip-path: url(#clippath-39);
      }

      .cls-81 {
        clip-path: url(#clippath-33);
      }

      .cls-82 {
        clip-path: url(#clippath-32);
      }

      .cls-83 {
        clip-path: url(#clippath-30);
      }

      .cls-84 {
        clip-path: url(#clippath-38);
      }

      .cls-85 {
        clip-path: url(#clippath-31);
      }

      .cls-86 {
        clip-path: url(#clippath-14);
      }

      .cls-87 {
        clip-path: url(#clippath-13);
      }

      .cls-88 {
        clip-path: url(#clippath-12);
      }

      .cls-89 {
        clip-path: url(#clippath-10);
      }

      .cls-90 {
        clip-path: url(#clippath-15);
      }

      .cls-91 {
        clip-path: url(#clippath-17);
      }

      .cls-92 {
        clip-path: url(#clippath-16);
      }

      .cls-93 {
        clip-path: url(#clippath-19);
      }

      .cls-94 {
        clip-path: url(#clippath-11);
      }

      .cls-95 {
        clip-path: url(#clippath-18);
      }

      .cls-48 {
        fill: url(#_Безымянный_градиент_57);
      }

      .cls-49 {
        fill: url(#_Безымянный_градиент_46);
      }
    </style>
    <clipPath id="clippath">
      <polygon class="cls-34" points="2.6 226.1 2.6 241.7 6.4 241.7 6.4 229.38 12.44 229.38 12.44 226.1 2.6 226.1"/>
    </clipPath>
    <linearGradient id="_Безымянный_градиент_57" data-name="Безымянный градиент 57" x1="-102.36" y1="370.7" x2="-100.84" y2="370.7" gradientTransform="translate(20861.33 75817.51) scale(203.89 -203.89)" gradientUnits="userSpaceOnUse">
      <stop offset="0" stop-color="#0575d3"/>
      <stop offset="1" stop-color="#053e8d"/>
    </linearGradient>
    <clipPath id="clippath-1">
      <path class="cls-34" d="M20.43,238.32c-.54-.24-1.01-.58-1.4-1-.39-.43-.7-.94-.92-1.53-.22-.59-.33-1.25-.33-1.95s.11-1.31.32-1.9c.21-.59.52-1.09.92-1.51s.87-.75,1.41-.99c.54-.24,1.15-.36,1.81-.36s1.27.12,1.82.36c.55.24,1.02.57,1.41.99.39.42.7.92.92,1.51.22.59.33,1.22.33,1.9s-.11,1.36-.33,1.95c-.22.6-.53,1.11-.93,1.53-.4.43-.87.76-1.41,1-.54.24-1.15.36-1.81.36s-1.26-.12-1.81-.36M18.86,226.25c-1.04.38-1.93.93-2.69,1.63-.76.7-1.35,1.56-1.78,2.57-.43,1.01-.64,2.14-.64,3.38s.21,2.36.64,3.38c.43,1.02,1.02,1.9,1.78,2.62.76.73,1.65,1.29,2.69,1.69,1.04.4,2.16.59,3.38.59s2.35-.2,3.4-.59c1.04-.4,1.94-.96,2.7-1.69.76-.73,1.35-1.6,1.78-2.62.43-1.02.64-2.15.64-3.38s-.21-2.38-.64-3.38c-.43-1.01-1.02-1.86-1.78-2.57-.76-.71-1.66-1.25-2.7-1.63-1.04-.38-2.18-.57-3.4-.57s-2.35.19-3.38.57"/>
    </clipPath>
    <linearGradient id="_Безымянный_градиент_57-2" data-name="Безымянный градиент 57" x1="-102.36" x2="-100.84" xlink:href="#_Безымянный_градиент_57"/>
    <clipPath id="clippath-2">
      <path class="cls-34" d="M40.75,230.33l2.58,8.2h-5.16l2.58-8.2ZM39.01,226.1l-4.72,12.43h-2.69v6.24h3.09v-3.06h12.35v3.06h3.09v-6.24h-2.78l-4.67-12.43h-3.66Z"/>
    </clipPath>
    <linearGradient id="_Безымянный_градиент_57-3" data-name="Безымянный градиент 57" x1="-102.36" y1="370.7" x2="-100.84" y2="370.7" gradientTransform="translate(20861.33 75818.52) scale(203.89 -203.89)" xlink:href="#_Безымянный_градиент_57"/>
    <clipPath id="clippath-3">
      <path class="cls-34" d="M65,230.33l2.58,8.2h-5.16l2.58-8.2ZM63.26,226.1l-4.72,12.43h-2.69v6.24h3.09v-3.06h12.35v3.06h3.09v-6.24h-2.78l-4.67-12.43h-3.66Z"/>
    </clipPath>
    <linearGradient id="_Безымянный_градиент_57-4" data-name="Безымянный градиент 57" x1="-102.36" y1="370.7" x2="-100.84" y2="370.7" gradientTransform="translate(20861.33 75818.52) scale(203.89 -203.89)" xlink:href="#_Безымянный_градиент_57"/>
    <clipPath id="clippath-4">
      <polygon class="cls-34" points="76.15 226.1 76.15 241.7 87.04 241.7 87.04 238.49 79.79 238.49 79.79 235.25 86.27 235.25 86.27 232.23 79.79 232.23 79.79 229.27 86.64 229.27 86.64 226.1 76.15 226.1"/>
    </clipPath>
    <linearGradient id="_Безымянный_градиент_57-5" data-name="Безымянный градиент 57" x1="-102.36" x2="-100.84" xlink:href="#_Безымянный_градиент_57"/>
    <clipPath id="clippath-5">
      <polygon class="cls-34" points="88.36 226.1 88.36 229.31 92.77 229.31 92.77 241.7 96.54 241.7 96.54 229.31 100.95 229.31 100.95 226.1 88.36 226.1"/>
    </clipPath>
    <linearGradient id="_Безымянный_градиент_57-6" data-name="Безымянный градиент 57" x1="-102.36" x2="-100.84" xlink:href="#_Безымянный_градиент_57"/>
    <clipPath id="clippath-6">
      <path class="cls-34" d="M107.05,226.25c-1.03.38-1.93.93-2.69,1.64-.76.71-1.36,1.58-1.8,2.59-.43,1.01-.65,2.14-.65,3.39s.21,2.34.64,3.35c.43,1.01,1.02,1.88,1.76,2.61.75.73,1.63,1.29,2.66,1.69,1.02.4,2.14.59,3.34.59,1.32,0,2.49-.23,3.51-.69,1.01-.46,1.86-1.09,2.56-1.88l-2.62-2.47c-.34.47-.79.85-1.34,1.15-.56.29-1.21.44-1.96.44-.65,0-1.24-.12-1.79-.35-.54-.23-1.01-.56-1.4-.98-.39-.42-.69-.92-.92-1.51-.22-.59-.33-1.24-.33-1.94s.11-1.33.33-1.91c.22-.58.53-1.08.93-1.51.4-.42.87-.76,1.42-1,.55-.24,1.16-.36,1.82-.36.6,0,1.19.12,1.76.35.57.24,1.03.6,1.39,1.08l2.56-2.56c-.66-.75-1.52-1.32-2.59-1.71-1.07-.39-2.15-.58-3.25-.58-1.19,0-2.3.19-3.33.57"/>
    </clipPath>
    <linearGradient id="_Безымянный_градиент_57-7" data-name="Безымянный градиент 57" x1="-102.36" x2="-100.84" xlink:href="#_Безымянный_градиент_57"/>
    <clipPath id="clippath-7">
      <path class="cls-34" d="M127.93,226.1l-4.78,5.71c-.19-.02-.38-.03-.58-.03-.2,0-.4-.01-.61-.01v-5.67h-3.75v15.61h3.75v-6.77c.9-.03,1.68.08,2.36.34.67.26,1.25.66,1.74,1.21.49.55.89,1.26,1.22,2.13.33.86.61,1.9.83,3.09h4.1c-.24-1.25-.52-2.36-.86-3.34-.34-.98-.73-1.83-1.19-2.57-.46-.74-.96-1.36-1.52-1.86-.56-.51-1.17-.92-1.83-1.25l5.23-6.59h-4.1Z"/>
    </clipPath>
    <linearGradient id="_Безымянный_градиент_57-8" data-name="Безымянный градиент 57" x1="-102.36" x2="-100.84" xlink:href="#_Безымянный_градиент_57"/>
    <clipPath id="clippath-8">
      <path class="cls-34" d="M139.52,238.32c-.54-.24-1.01-.58-1.4-1-.39-.43-.69-.94-.92-1.53-.22-.59-.33-1.25-.33-1.95s.11-1.31.32-1.9c.21-.59.52-1.09.92-1.51.4-.42.87-.75,1.41-.99.54-.24,1.15-.36,1.81-.36s1.27.12,1.82.36c.55.24,1.02.57,1.41.99.39.42.69.92.91,1.51.22.59.33,1.22.33,1.9s-.11,1.36-.33,1.95c-.22.6-.53,1.11-.93,1.53-.4.43-.87.76-1.41,1-.55.24-1.15.36-1.81.36s-1.26-.12-1.81-.36M137.95,226.25c-1.04.38-1.93.93-2.69,1.63-.76.7-1.35,1.56-1.77,2.57-.43,1.01-.64,2.14-.64,3.38s.21,2.36.64,3.38c.42,1.02,1.02,1.9,1.77,2.62.76.73,1.65,1.29,2.69,1.69,1.03.4,2.16.59,3.38.59s2.35-.2,3.4-.59c1.04-.4,1.94-.96,2.7-1.69.75-.73,1.35-1.6,1.77-2.62.42-1.02.64-2.15.64-3.38s-.21-2.38-.64-3.38c-.43-1.01-1.02-1.86-1.77-2.57-.76-.71-1.66-1.25-2.7-1.63-1.04-.38-2.17-.57-3.4-.57s-2.35.19-3.38.57"/>
    </clipPath>
    <linearGradient id="_Безымянный_градиент_57-9" data-name="Безымянный градиент 57" x1="-102.36" x2="-100.84" xlink:href="#_Безымянный_градиент_57"/>
    <clipPath id="clippath-9">
      <polygon class="cls-34" points="152.25 226.1 152.25 241.7 156.04 241.7 156.04 229.38 162.08 229.38 162.08 226.1 152.25 226.1"/>
    </clipPath>
    <linearGradient id="_Безымянный_градиент_57-10" data-name="Безымянный градиент 57" x1="-102.36" x2="-100.84" xlink:href="#_Безымянный_градиент_57"/>
    <clipPath id="clippath-10">
      <path class="cls-34" d="M170.08,238.32c-.54-.24-1.01-.58-1.4-1-.39-.43-.69-.94-.92-1.53-.22-.59-.33-1.25-.33-1.95s.11-1.31.32-1.9c.21-.59.52-1.09.92-1.51.4-.42.87-.75,1.41-.99.54-.24,1.15-.36,1.81-.36s1.27.12,1.82.36c.55.24,1.02.57,1.41.99.39.42.7.92.92,1.51.22.59.33,1.22.33,1.9s-.11,1.36-.33,1.95c-.22.6-.53,1.11-.93,1.53-.4.43-.87.76-1.41,1s-1.15.36-1.81.36-1.26-.12-1.81-.36M168.5,226.25c-1.03.38-1.93.93-2.69,1.63-.76.7-1.35,1.56-1.78,2.57-.43,1.01-.64,2.14-.64,3.38s.21,2.36.64,3.38c.43,1.02,1.02,1.9,1.78,2.62.76.73,1.65,1.29,2.69,1.69,1.04.4,2.17.59,3.39.59s2.35-.2,3.4-.59c1.04-.4,1.94-.96,2.7-1.69.76-.73,1.35-1.6,1.78-2.62.42-1.02.64-2.15.64-3.38s-.21-2.38-.64-3.38c-.43-1.01-1.02-1.86-1.78-2.57-.76-.71-1.66-1.25-2.7-1.63-1.05-.38-2.18-.57-3.4-.57s-2.35.19-3.39.57"/>
    </clipPath>
    <linearGradient id="_Безымянный_градиент_57-11" data-name="Безымянный градиент 57" x1="-102.36" x2="-100.84" xlink:href="#_Безымянный_градиент_57"/>
    <clipPath id="clippath-11">
      <path class="cls-34" d="M194.79,238.32c-.54-.24-1.01-.58-1.4-1-.39-.43-.69-.94-.92-1.53-.22-.59-.33-1.25-.33-1.95s.11-1.31.32-1.9c.21-.59.52-1.09.92-1.51.39-.42.87-.75,1.41-.99.54-.24,1.15-.36,1.81-.36s1.27.12,1.82.36c.55.24,1.02.57,1.41.99.39.42.69.92.92,1.51.22.59.33,1.22.33,1.9s-.11,1.36-.33,1.95c-.22.6-.53,1.11-.93,1.53-.4.43-.87.76-1.41,1-.54.24-1.15.36-1.81.36s-1.27-.12-1.81-.36M193.22,226.25c-1.04.38-1.93.93-2.69,1.63-.76.7-1.35,1.56-1.78,2.57-.42,1.01-.64,2.14-.64,3.38s.21,2.36.64,3.38c.43,1.02,1.02,1.9,1.78,2.62.76.73,1.65,1.29,2.69,1.69,1.04.4,2.16.59,3.38.59s2.35-.2,3.39-.59c1.04-.4,1.94-.96,2.7-1.69.76-.73,1.35-1.6,1.78-2.62.42-1.02.64-2.15.64-3.38s-.21-2.38-.64-3.38c-.43-1.01-1.02-1.86-1.78-2.57-.76-.71-1.66-1.25-2.7-1.63-1.04-.38-2.18-.57-3.39-.57s-2.35.19-3.38.57"/>
    </clipPath>
    <linearGradient id="_Безымянный_градиент_57-12" data-name="Безымянный градиент 57" x1="-102.36" x2="-100.84" xlink:href="#_Безымянный_градиент_57"/>
    <clipPath id="clippath-12">
      <polygon class="cls-34" points="206.09 226.1 206.09 229.31 210.5 229.31 210.5 241.7 214.27 241.7 214.27 229.31 218.68 229.31 218.68 226.1 206.09 226.1"/>
    </clipPath>
    <linearGradient id="_Безымянный_градиент_57-13" data-name="Безымянный градиент 57" x1="-102.36" x2="-100.84" xlink:href="#_Безымянный_градиент_57"/>
    <clipPath id="clippath-13">
      <path class="cls-34" d="M226.63,230.33l2.58,8.2h-5.16l2.58-8.2ZM224.89,226.1l-4.72,12.43h-2.69v6.24h3.09v-3.06h12.35v3.06h3.09v-6.24h-2.78l-4.67-12.43h-3.66Z"/>
    </clipPath>
    <linearGradient id="_Безымянный_градиент_57-14" data-name="Безымянный градиент 57" x1="-102.36" y1="370.7" x2="-100.84" y2="370.7" gradientTransform="translate(20861.33 75818.52) scale(203.89 -203.89)" xlink:href="#_Безымянный_градиент_57"/>
    <clipPath id="clippath-14">
      <path class="cls-34" d="M241.53,234.96h1.26c.47,0,.86.05,1.18.13.32.09.56.21.75.36.18.15.32.34.4.54.08.21.12.43.12.68,0,.56-.17,1.01-.52,1.34-.35.34-.99.51-1.93.51h-1.26v-3.57ZM237.78,226.1v15.61h4.65c.91,0,1.77-.11,2.57-.32.8-.21,1.5-.53,2.11-.96.6-.42,1.08-.97,1.42-1.63.35-.66.52-1.44.52-2.34s-.17-1.65-.52-2.25c-.35-.6-.81-1.08-1.4-1.45-.59-.36-1.28-.61-2.08-.76-.8-.15-1.65-.22-2.55-.22h-.97v-5.69h-3.75ZM250.02,241.7h3.75v-15.61h-3.75v15.61Z"/>
    </clipPath>
    <linearGradient id="_Безымянный_градиент_57-15" data-name="Безымянный градиент 57" x1="-102.36" x2="-100.84" xlink:href="#_Безымянный_градиент_57"/>
    <clipPath id="clippath-15">
      <polygon class="cls-34" points="266.27 226.1 263.4 230.95 260.49 226.1 255.95 226.1 260.98 233.46 255.51 241.7 260.01 241.7 263.29 236.19 266.71 241.7 271.36 241.7 265.72 233.46 270.66 226.1 266.27 226.1"/>
    </clipPath>
    <linearGradient id="_Безымянный_градиент_57-16" data-name="Безымянный градиент 57" x1="-102.36" x2="-100.84" xlink:href="#_Безымянный_градиент_57"/>
    <clipPath id="clippath-16">
      <path class="cls-34" d="M280.47,230.26l1.94,5.36h-3.92l1.98-5.36ZM278.7,226.1l-6.55,15.61h4.1l1.15-3.06h6.04l1.21,3.06h4.19l-6.48-15.61h-3.66Z"/>
    </clipPath>
    <linearGradient id="_Безымянный_градиент_57-17" data-name="Безымянный градиент 57" x1="-102.36" x2="-100.84" xlink:href="#_Безымянный_градиент_57"/>
    <clipPath id="clippath-17">
      <path class="cls-34" d="M4.63,261.37h2.82c1.09,0,1.95.21,2.58.63.63.42.94,1.08.94,1.97,0,.49-.1.9-.31,1.24-.2.33-.48.6-.82.81-.34.21-.74.36-1.19.45-.45.09-.91.14-1.39.14h-2.63v-5.24ZM4.63,255.07h2.42c.46,0,.89.04,1.28.13.39.08.74.22,1.03.41.3.19.52.43.68.72.16.29.24.64.24,1.07s-.08.81-.25,1.11c-.17.3-.39.54-.65.73-.27.19-.58.32-.93.4-.35.08-.7.13-1.05.13h-2.78v-4.69ZM2.6,253.36v14.96h4.82c.82,0,1.57-.09,2.26-.27.69-.18,1.29-.45,1.79-.81.5-.36.89-.8,1.16-1.32.27-.52.41-1.12.41-1.8,0-.52-.08-1-.25-1.43-.17-.43-.4-.8-.7-1.11-.3-.31-.64-.56-1.05-.75-.4-.19-.84-.31-1.32-.37v-.04c.79-.2,1.42-.59,1.89-1.16.47-.58.71-1.27.71-2.07,0-.75-.15-1.37-.45-1.86-.29-.49-.68-.88-1.14-1.17s-.99-.49-1.58-.61c-.58-.12-1.16-.18-1.72-.18H2.6Z"/>
    </clipPath>
    <linearGradient id="_Безымянный_градиент_57-18" data-name="Безымянный градиент 57" x1="-102.34" y1="370.64" x2="-100.82" y2="370.64" gradientTransform="translate(20000.22 72703.05) scale(195.45 -195.45)" xlink:href="#_Безымянный_градиент_57"/>
    <clipPath id="clippath-18">
      <path class="cls-34" d="M25.87,253.56c-.96.39-1.79.93-2.49,1.63-.7.7-1.26,1.52-1.66,2.48s-.6,2.01-.6,3.17.2,2.19.59,3.16c.39.97.94,1.8,1.64,2.49.7.7,1.52,1.24,2.48,1.63.96.39,2.01.58,3.15.58.66,0,1.28-.07,1.85-.21.57-.14,1.09-.34,1.56-.58.47-.25.9-.53,1.28-.85.38-.32.7-.68.97-1.06l-1.54-1.16c-.46.69-1.05,1.2-1.76,1.53-.71.33-1.48.5-2.31.5-.87,0-1.66-.16-2.37-.48-.7-.32-1.3-.75-1.8-1.3-.49-.55-.87-1.19-1.14-1.91-.27-.73-.4-1.5-.4-2.34s.13-1.59.4-2.32c.27-.73.65-1.37,1.14-1.92s1.09-.99,1.8-1.31c.7-.33,1.5-.49,2.39-.49s1.62.18,2.29.55c.67.37,1.16.79,1.49,1.27l1.56-1.31c-.27-.37-.6-.69-.99-.98-.39-.29-.83-.53-1.3-.73-.47-.2-.97-.35-1.5-.46-.53-.1-1.06-.16-1.59-.16-1.13,0-2.17.19-3.13.58"/>
    </clipPath>
    <linearGradient id="_Безымянный_градиент_57-19" data-name="Безымянный градиент 57" x1="-102.34" y1="370.64" x2="-100.82" y2="370.64" gradientTransform="translate(20000.22 72703.05) scale(195.45 -195.45)" xlink:href="#_Безымянный_градиент_57"/>
    <clipPath id="clippath-19">
      <polygon class="cls-34" points="47.14 253.36 39.07 265.39 39.03 265.39 39.03 253.36 37 253.36 37 268.32 39.45 268.32 47.53 256.23 47.57 256.23 47.57 268.32 49.6 268.32 49.6 253.36 47.14 253.36"/>
    </clipPath>
    <linearGradient id="_Безымянный_градиент_57-20" data-name="Безымянный градиент 57" x1="-102.34" y1="370.64" x2="-100.82" y2="370.64" gradientTransform="translate(20000.22 72703.05) scale(195.45 -195.45)" xlink:href="#_Безымянный_градиент_57"/>
    <clipPath id="clippath-20">
      <path class="cls-34" d="M57.17,253.56c-.96.39-1.79.93-2.49,1.63-.7.7-1.26,1.52-1.66,2.48-.4.96-.6,2.01-.6,3.17s.2,2.19.59,3.16c.39.97.94,1.8,1.64,2.49.7.7,1.52,1.24,2.48,1.63.96.39,2.01.58,3.15.58.66,0,1.28-.07,1.85-.21.57-.14,1.09-.34,1.57-.58.47-.25.9-.53,1.28-.85.38-.32.7-.68.97-1.06l-1.54-1.16c-.47.69-1.05,1.2-1.76,1.53-.71.33-1.48.5-2.31.5-.87,0-1.66-.16-2.37-.48-.71-.32-1.31-.75-1.8-1.3-.49-.55-.87-1.19-1.14-1.91-.27-.73-.4-1.5-.4-2.34s.13-1.59.4-2.32c.27-.73.65-1.37,1.14-1.92.49-.55,1.09-.99,1.8-1.31.7-.33,1.5-.49,2.39-.49s1.62.18,2.29.55c.67.37,1.17.79,1.49,1.27l1.56-1.31c-.27-.37-.6-.69-.99-.98-.4-.29-.83-.53-1.3-.73-.47-.2-.97-.35-1.5-.46-.53-.1-1.06-.16-1.6-.16-1.13,0-2.17.19-3.13.58"/>
    </clipPath>
    <linearGradient id="_Безымянный_градиент_57-21" data-name="Безымянный градиент 57" x1="-102.34" y1="370.64" x2="-100.82" y2="370.64" gradientTransform="translate(20000.22 72703.05) scale(195.45 -195.45)" xlink:href="#_Безымянный_градиент_57"/>
    <clipPath id="clippath-21">
      <polygon class="cls-34" points="67.34 253.36 67.34 255.16 72.16 255.16 72.16 268.32 74.19 268.32 74.19 255.16 79.01 255.16 79.01 253.36 67.34 253.36"/>
    </clipPath>
    <linearGradient id="_Безымянный_градиент_57-22" data-name="Безымянный градиент 57" x1="-102.34" y1="370.64" x2="-100.82" y2="370.64" gradientTransform="translate(20000.22 72703.05) scale(195.45 -195.45)" xlink:href="#_Безымянный_градиент_57"/>
    <clipPath id="clippath-22">
      <polygon class="cls-34" points="81.25 253.36 81.25 268.32 91.04 268.32 91.04 266.53 83.28 266.53 83.28 261.43 90.28 261.43 90.28 259.7 83.28 259.7 83.28 255.16 90.74 255.16 90.74 253.36 81.25 253.36"/>
    </clipPath>
    <linearGradient id="_Безымянный_градиент_57-23" data-name="Безымянный градиент 57" x1="-102.34" y1="370.64" x2="-100.82" y2="370.64" gradientTransform="translate(20000.22 72703.05) scale(195.45 -195.45)" xlink:href="#_Безымянный_градиент_57"/>
    <clipPath id="clippath-23">
      <polygon class="cls-34" points="105.9 253.36 101.34 265.03 101.3 265.03 96.67 253.36 93.62 253.36 93.62 268.32 95.61 268.32 95.59 255.94 95.65 255.94 100.64 268.32 101.89 268.32 106.9 255.94 106.96 255.94 106.94 268.32 108.97 268.32 108.97 253.36 105.9 253.36"/>
    </clipPath>
    <linearGradient id="_Безымянный_градиент_57-24" data-name="Безымянный градиент 57" x1="-102.34" y1="370.64" x2="-100.82" y2="370.64" gradientTransform="translate(20000.22 72703.05) scale(195.45 -195.45)" xlink:href="#_Безымянный_градиент_57"/>
    <clipPath id="clippath-24">
      <polygon class="cls-34" points="112.59 253.36 112.59 268.32 122.38 268.32 122.38 266.53 114.62 266.53 114.62 261.43 121.61 261.43 121.61 259.7 114.62 259.7 114.62 255.16 122.08 255.16 122.08 253.36 112.59 253.36"/>
    </clipPath>
    <linearGradient id="_Безымянный_градиент_57-25" data-name="Безымянный градиент 57" x1="-102.34" y1="370.64" x2="-100.82" y2="370.64" gradientTransform="translate(20000.22 72703.05) scale(195.45 -195.45)" xlink:href="#_Безымянный_градиент_57"/>
    <clipPath id="clippath-25">
      <path class="cls-34" d="M135.63,266.39c-.71-.32-1.3-.75-1.8-1.3-.49-.55-.87-1.19-1.14-1.92-.27-.73-.4-1.51-.4-2.35s.13-1.59.4-2.31c.27-.73.65-1.36,1.14-1.91.49-.55,1.09-.99,1.8-1.31.7-.33,1.49-.49,2.37-.49s1.66.16,2.37.49c.7.32,1.3.76,1.8,1.31s.87,1.19,1.14,1.91c.27.73.4,1.5.4,2.31s-.14,1.61-.4,2.35c-.27.73-.65,1.37-1.14,1.92-.49.55-1.09.98-1.8,1.3-.71.32-1.49.48-2.37.48s-1.66-.16-2.37-.48M134.85,253.56c-.96.39-1.8.93-2.5,1.62-.7.69-1.25,1.52-1.65,2.47-.39.96-.59,2.02-.59,3.17s.2,2.22.59,3.18c.39.97.94,1.8,1.65,2.49s1.54,1.24,2.5,1.63c.97.39,2.01.58,3.14.58s2.17-.19,3.14-.58c.97-.39,1.8-.93,2.5-1.63.71-.7,1.25-1.53,1.65-2.49.39-.97.59-2.02.59-3.18s-.2-2.21-.59-3.17c-.4-.96-.94-1.78-1.65-2.47-.7-.69-1.54-1.23-2.5-1.62s-2.01-.58-3.14-.58-2.17.19-3.14.58"/>
    </clipPath>
    <linearGradient id="_Безымянный_градиент_57-26" data-name="Безымянный градиент 57" x1="-102.34" y1="370.64" x2="-100.82" y2="370.64" gradientTransform="translate(20000.22 72703.05) scale(195.45 -195.45)" xlink:href="#_Безымянный_градиент_57"/>
    <clipPath id="clippath-26">
      <path class="cls-34" d="M150.71,261.41h2.63c1.02,0,1.84.2,2.47.61.63.41.94,1.04.94,1.9s-.31,1.45-.92,1.9c-.62.45-1.45.68-2.51.68h-2.61v-5.09ZM148.68,253.36v14.96h4.79c.76,0,1.47-.09,2.12-.27.65-.18,1.21-.46,1.68-.83.47-.37.84-.83,1.11-1.38.27-.55.4-1.18.4-1.9s-.13-1.35-.38-1.88c-.26-.54-.62-.99-1.08-1.35-.47-.37-1.02-.64-1.67-.82-.64-.19-1.36-.27-2.14-.27h-2.8v-4.42h7v-1.82h-9.03Z"/>
    </clipPath>
    <linearGradient id="_Безымянный_градиент_57-27" data-name="Безымянный градиент 57" x1="-102.34" y1="370.64" x2="-100.82" y2="370.64" gradientTransform="translate(20000.22 72703.05) scale(195.45 -195.45)" xlink:href="#_Безымянный_градиент_57"/>
    <clipPath id="clippath-27">
      <path class="cls-34" d="M163.55,255.07h2.33c1.03,0,1.85.19,2.46.57.61.38.91,1.01.91,1.89s-.3,1.48-.9,1.89c-.6.41-1.43.62-2.49.62h-2.31v-4.97ZM161.52,253.36v14.96h2.03v-6.61h2.44c.76,0,1.47-.08,2.13-.25.66-.17,1.22-.43,1.7-.77.47-.35.84-.78,1.11-1.31.27-.53.41-1.15.41-1.87s-.13-1.34-.38-1.86c-.25-.52-.61-.95-1.08-1.29-.46-.34-1.02-.59-1.67-.75-.65-.16-1.36-.24-2.14-.24h-4.54Z"/>
    </clipPath>
    <linearGradient id="_Безымянный_градиент_57-28" data-name="Безымянный градиент 57" x1="-102.34" y1="370.64" x2="-100.82" y2="370.64" gradientTransform="translate(20000.22 72703.05) scale(195.45 -195.45)" xlink:href="#_Безымянный_градиент_57"/>
    <clipPath id="clippath-28">
      <path class="cls-34" d="M178.32,255.64l2.92,7.23h-5.88l2.96-7.23ZM177.37,253.36l-6.42,14.96h2.24l1.5-3.68h7.23l1.52,3.68h2.3l-6.38-14.96h-1.99Z"/>
    </clipPath>
    <linearGradient id="_Безымянный_градиент_57-29" data-name="Безымянный градиент 57" x1="-102.34" y1="370.64" x2="-100.82" y2="370.64" gradientTransform="translate(20000.22 72703.05) scale(195.45 -195.45)" xlink:href="#_Безымянный_градиент_57"/>
    <clipPath id="clippath-29">
      <path class="cls-34" d="M189.33,253.68c-.8.47-1.42,1.14-1.86,2.03l1.69.93c.25-.59.62-1.06,1.11-1.41.49-.35,1.07-.52,1.75-.52.86,0,1.55.22,2.08.65.53.43.79,1.05.79,1.85,0,.44-.09.81-.28,1.13-.18.32-.43.58-.75.78-.32.2-.69.36-1.12.46-.43.1-.88.15-1.36.15h-1.08v1.61h1.02c.65,0,1.24.05,1.78.15.53.1,1,.26,1.38.49.39.22.69.51.9.87.21.35.32.79.32,1.31,0,.85-.29,1.53-.89,2.05-.59.52-1.43.78-2.51.78-.97,0-1.73-.22-2.27-.66-.54-.44-.97-1.03-1.28-1.8l-1.8.85c.21.49.47.94.77,1.35.3.41.66.76,1.09,1.06.42.3.91.53,1.47.69.56.16,1.19.24,1.89.24.77,0,1.5-.11,2.19-.32.68-.21,1.28-.51,1.78-.91.51-.39.91-.87,1.19-1.44.29-.56.43-1.2.43-1.9,0-.65-.12-1.19-.36-1.64-.24-.44-.54-.81-.91-1.1-.37-.29-.77-.51-1.2-.65-.44-.15-.86-.24-1.27-.29v-.04c.35-.08.71-.23,1.07-.42.36-.2.68-.44.96-.72.28-.28.51-.61.7-.99.18-.38.27-.8.27-1.25,0-.66-.12-1.25-.36-1.75-.24-.51-.58-.93-1.01-1.27-.44-.34-.95-.59-1.54-.77-.59-.18-1.23-.26-1.92-.26-1.1,0-2.05.23-2.85.7"/>
    </clipPath>
    <linearGradient id="_Безымянный_градиент_57-30" data-name="Безымянный градиент 57" x1="-102.34" y1="370.64" x2="-100.82" y2="370.64" gradientTransform="translate(20000.22 72703.05) scale(195.45 -195.45)" xlink:href="#_Безымянный_градиент_57"/>
    <clipPath id="clippath-30">
      <path class="cls-34" d="M205.49,266.39c-.71-.32-1.3-.75-1.8-1.3-.49-.55-.87-1.19-1.14-1.92-.27-.73-.4-1.51-.4-2.35s.13-1.59.4-2.31c.27-.73.65-1.36,1.14-1.91.49-.55,1.09-.99,1.8-1.31.7-.33,1.49-.49,2.37-.49s1.66.16,2.37.49c.7.32,1.3.76,1.8,1.31.49.55.87,1.19,1.14,1.91.27.73.4,1.5.4,2.31s-.13,1.61-.4,2.35c-.27.73-.65,1.37-1.14,1.92-.49.55-1.09.98-1.8,1.3-.71.32-1.49.48-2.37.48s-1.66-.16-2.37-.48M204.72,253.56c-.97.39-1.8.93-2.51,1.62-.7.69-1.25,1.52-1.65,2.47-.39.96-.59,2.02-.59,3.17s.2,2.22.59,3.18c.39.97.94,1.8,1.65,2.49s1.54,1.24,2.51,1.63c.96.39,2.01.58,3.14.58s2.17-.19,3.14-.58c.96-.39,1.8-.93,2.51-1.63.7-.7,1.25-1.53,1.65-2.49.39-.97.59-2.02.59-3.18s-.2-2.21-.59-3.17c-.39-.96-.95-1.78-1.65-2.47-.71-.69-1.54-1.23-2.51-1.62-.97-.39-2.01-.58-3.14-.58s-2.17.19-3.14.58"/>
    </clipPath>
    <linearGradient id="_Безымянный_градиент_57-31" data-name="Безымянный градиент 57" x1="-102.34" y1="370.64" x2="-100.82" y2="370.64" gradientTransform="translate(20000.22 72703.05) scale(195.45 -195.45)" xlink:href="#_Безымянный_градиент_57"/>
    <clipPath id="clippath-31">
      <path class="cls-34" d="M220.58,261.37h2.82c1.1,0,1.95.21,2.58.63.63.42.94,1.08.94,1.97,0,.49-.1.9-.31,1.24-.2.33-.48.6-.82.81-.34.21-.74.36-1.19.45-.45.09-.91.14-1.39.14h-2.63v-5.24ZM220.58,255.07h2.42c.46,0,.89.04,1.29.13.39.08.74.22,1.03.41.29.19.52.43.68.72.16.29.24.64.24,1.07s-.08.81-.25,1.11c-.17.3-.39.54-.65.73-.27.19-.58.32-.93.4-.35.08-.7.13-1.05.13h-2.78v-4.69ZM218.55,253.36v14.96h4.82c.82,0,1.57-.09,2.26-.27.69-.18,1.28-.45,1.79-.81.5-.36.89-.8,1.16-1.32.27-.52.41-1.12.41-1.8,0-.52-.08-1-.25-1.43-.17-.43-.4-.8-.7-1.11-.29-.31-.64-.56-1.05-.75-.4-.19-.84-.31-1.32-.37v-.04c.79-.2,1.42-.59,1.89-1.16.47-.58.71-1.27.71-2.07,0-.75-.15-1.37-.44-1.86-.3-.49-.68-.88-1.14-1.17-.46-.29-.99-.49-1.57-.61-.59-.12-1.16-.18-1.72-.18h-4.84Z"/>
    </clipPath>
    <linearGradient id="_Безымянный_градиент_57-32" data-name="Безымянный градиент 57" x1="-102.34" y1="370.64" x2="-100.82" y2="370.64" gradientTransform="translate(20000.22 72703.05) scale(195.45 -195.45)" xlink:href="#_Безымянный_градиент_57"/>
    <clipPath id="clippath-32">
      <path class="cls-34" d="M237.6,255.64l2.92,7.23h-5.87l2.96-7.23ZM236.65,253.36l-6.43,14.96h2.24l1.5-3.68h7.23l1.52,3.68h2.31l-6.38-14.96h-1.99Z"/>
    </clipPath>
    <linearGradient id="_Безымянный_градиент_57-33" data-name="Безымянный градиент 57" x1="-102.34" y1="370.64" x2="-100.82" y2="370.64" gradientTransform="translate(20000.22 72703.05) scale(195.45 -195.45)" xlink:href="#_Безымянный_градиент_57"/>
    <clipPath id="clippath-33">
      <polygon class="cls-34" points="256.8 253.36 256.8 259.64 249.21 259.64 249.21 253.36 247.18 253.36 247.18 268.32 249.21 268.32 249.21 261.45 256.8 261.45 256.8 268.32 258.82 268.32 258.82 253.36 256.8 253.36"/>
    </clipPath>
    <linearGradient id="_Безымянный_градиент_57-34" data-name="Безымянный градиент 57" x1="-102.34" y1="370.64" x2="-100.82" y2="370.64" gradientTransform="translate(20000.22 72703.05) scale(195.45 -195.45)" xlink:href="#_Безымянный_градиент_57"/>
    <clipPath id="clippath-34">
      <polygon class="cls-34" points="272.6 253.36 264.53 265.39 264.49 265.39 264.49 253.36 262.46 253.36 262.46 268.32 264.91 268.32 272.98 256.23 273.03 256.23 273.03 268.32 275.05 268.32 275.05 253.36 272.6 253.36"/>
    </clipPath>
    <linearGradient id="_Безымянный_градиент_57-35" data-name="Безымянный градиент 57" x1="-102.34" y1="370.64" x2="-100.82" y2="370.64" gradientTransform="translate(20000.22 72703.05) scale(195.45 -195.45)" xlink:href="#_Безымянный_градиент_57"/>
    <clipPath id="clippath-35">
      <path class="cls-34" d="M281.48,259.3c-.64-.42-.96-1.01-.96-1.75,0-.83.32-1.43.97-1.81.65-.37,1.61-.56,2.87-.56h2.45v4.76h-2.45c-1.28,0-2.24-.21-2.88-.63M284.16,253.36c-1.81,0-3.24.35-4.28,1.05-1.04.7-1.56,1.73-1.56,3.1.01,1,.32,1.79.93,2.37.61.58,1.42.95,2.43,1.12v.04c-.55.25-1.06.6-1.52,1.05-.46.45-.88.99-1.24,1.62-.36.63-.65,1.33-.88,2.11-.23.78-.37,1.62-.42,2.5h2.24c.11-1.2.31-2.22.6-3.05.29-.84.66-1.52,1.11-2.04.45-.52.98-.9,1.59-1.13.61-.23,1.29-.35,2.04-.35h1.61v6.57h2.03v-14.96h-4.68Z"/>
    </clipPath>
    <linearGradient id="_Безымянный_градиент_57-36" data-name="Безымянный градиент 57" x1="-102.34" y1="370.64" x2="-100.82" y2="370.64" gradientTransform="translate(20000.22 72703.05) scale(195.45 -195.45)" xlink:href="#_Безымянный_градиент_57"/>
    <clipPath id="clippath-36">
      <path class="cls-34" d="M129.69,182.03c-.38.14-.72.33-1.02.57-.3.24-.56.53-.76.87-.21.34-.35.7-.42,1.09l1.13.22c.12-.58.38-1.06.79-1.43.41-.37.92-.56,1.52-.56.3,0,.58.05.85.15.27.1.51.24.71.43.21.19.37.41.48.67.12.26.17.56.17.89,0,.25-.04.5-.11.74-.07.24-.17.46-.3.67-.12.21-.27.41-.43.61-.16.2-.33.38-.5.55l-4.59,4.64v1.19h7.16v-1.01h-5.94l4.04-4.01c.24-.24.47-.49.7-.74.22-.25.42-.51.58-.78.16-.27.3-.56.4-.87.1-.31.15-.64.15-1,0-.51-.09-.95-.27-1.34-.18-.39-.42-.71-.73-.97-.31-.26-.66-.46-1.07-.59-.41-.13-.84-.2-1.29-.2s-.85.07-1.24.21"/>
    </clipPath>
    <linearGradient id="_Безымянный_градиент_57-37" data-name="Безымянный градиент 57" x1="-103.4" y1="371.51" x2="-101.88" y2="371.51" gradientTransform="translate(-19365.06 -70427.59) rotate(-180) scale(190.08 -190.08)" xlink:href="#_Безымянный_градиент_57"/>
    <clipPath id="clippath-37">
      <path class="cls-34" d="M138.93,192.18c-.33-.3-.59-.68-.78-1.16-.19-.47-.32-.99-.4-1.58-.08-.58-.11-1.15-.11-1.71s.03-1.13.11-1.72c.07-.59.21-1.12.4-1.59.19-.48.45-.86.78-1.17.33-.31.74-.46,1.24-.46s.89.15,1.22.46c.33.31.59.7.78,1.17.19.47.32,1.01.41,1.59.08.59.12,1.16.12,1.72s-.04,1.13-.12,1.71c-.08.58-.21,1.11-.41,1.58-.19.47-.45.86-.78,1.16-.33.3-.74.45-1.22.45s-.91-.15-1.24-.45M138.41,182.34c-.47.34-.85.79-1.13,1.35-.28.55-.48,1.19-.6,1.89-.12.71-.17,1.42-.17,2.15s.06,1.44.17,2.15c.12.7.32,1.33.6,1.88.29.55.66,1,1.13,1.34.47.34,1.06.51,1.76.51s1.28-.17,1.75-.51c.47-.34.85-.78,1.13-1.34.28-.55.49-1.18.61-1.88.12-.7.18-1.42.18-2.15s-.06-1.45-.18-2.15c-.12-.71-.32-1.34-.61-1.89-.29-.55-.66-1-1.13-1.35-.47-.34-1.05-.52-1.75-.52s-1.29.17-1.76.52"/>
    </clipPath>
    <linearGradient id="_Безымянный_градиент_57-38" data-name="Безымянный градиент 57" x1="-103.4" y1="371.51" x2="-101.88" y2="371.51" gradientTransform="translate(-19365.06 -70427.5) rotate(-180) scale(190.08 -190.08)" xlink:href="#_Безымянный_градиент_57"/>
    <clipPath id="clippath-38">
      <path class="cls-34" d="M148.07,182.03c-.38.14-.72.33-1.02.57-.3.24-.56.53-.76.87-.21.34-.35.7-.42,1.09l1.13.22c.12-.58.38-1.06.79-1.43.41-.37.92-.56,1.52-.56.29,0,.58.05.85.15.27.1.51.24.71.43.21.19.37.41.48.67.12.26.17.56.17.89,0,.25-.04.5-.11.74-.08.24-.17.46-.3.67-.13.21-.27.41-.44.61s-.33.38-.5.55l-4.59,4.64v1.19h7.16v-1.01h-5.94l4.04-4.01c.24-.24.47-.49.7-.74.22-.25.41-.51.58-.78.16-.27.3-.56.39-.87.1-.31.15-.64.15-1,0-.51-.09-.95-.27-1.34-.18-.39-.42-.71-.73-.97-.3-.26-.66-.46-1.06-.59-.41-.13-.84-.2-1.29-.2s-.86.07-1.24.21"/>
    </clipPath>
    <linearGradient id="_Безымянный_градиент_57-39" data-name="Безымянный градиент 57" x1="-103.4" y1="371.51" x2="-101.88" y2="371.51" gradientTransform="translate(-19365.06 -70427.59) rotate(-180) scale(190.08 -190.08)" xlink:href="#_Безымянный_градиент_57"/>
    <clipPath id="clippath-39">
      <path class="cls-34" d="M155.76,182.11l-.11,5.78c.36-.19.74-.34,1.13-.45.4-.11.79-.17,1.2-.17s.77.06,1.11.19c.34.13.63.31.88.54.25.23.44.51.59.85.14.33.21.7.21,1.12,0,.38-.07.73-.2,1.06-.13.33-.32.61-.55.85-.23.24-.51.42-.83.56-.32.13-.67.2-1.05.2-.5,0-.95-.14-1.35-.41-.41-.27-.71-.64-.91-1.11l-1.03.46c.31.62.74,1.12,1.3,1.49.56.37,1.25.55,2.06.55.55,0,1.05-.1,1.51-.29.46-.19.85-.45,1.18-.78.32-.33.58-.73.75-1.19.18-.46.27-.96.27-1.5s-.09-.99-.27-1.42c-.18-.43-.43-.8-.76-1.12-.33-.31-.71-.55-1.15-.72-.44-.17-.93-.25-1.45-.25-.25,0-.51.02-.78.06-.27.04-.52.1-.77.19l.08-3.47h4.67v-1.01h-5.72Z"/>
    </clipPath>
    <linearGradient id="_Безымянный_градиент_57-40" data-name="Безымянный градиент 57" x1="-103.4" y1="371.51" x2="-101.88" y2="371.51" gradientTransform="translate(-19365.06 -70427.4) rotate(-180) scale(190.08 -190.08)" xlink:href="#_Безымянный_градиент_57"/>
    <clipPath id="clippath-40">
      <path class="cls-34" d="M177.15,114.57c-4.05-3.96-8.06-7.96-11.41-12.55-3.05-4.18-5-8.9-6.42-13.82-1.31-4.52-2.27-9.14-3.37-13.71-.04-.15-.02-.32-.03-.48.08-.04.17-.07.25-.11,4.48,14.97,11.43,28.64,21.45,40.7-.07.04-.14.09-.21.14-.08-.05-.18-.09-.25-.16M146.57,141.54c1.05-1.05,2.03-2.16,3.14-3.13,3.1-2.71,6.75-4.5,10.57-5.89,4.66-1.69,9.39-3.2,14.07-4.85,2.76-.97,5.46-2.12,7.71-4.08,2.06-1.8,2.99-4.03,2.58-6.79-.4-2.72-1.64-5.07-3.09-7.33-2.95-4.6-6.08-9.09-8.89-13.77-5.44-9.09-9.59-18.8-13.6-28.58-3.66-8.93-7.33-17.85-11.77-26.44-.21-.4-.43-.8-.73-1.37v102.23Z"/>
    </clipPath>
    <linearGradient id="_Безымянный_градиент_46" data-name="Безымянный градиент 46" x1="-103.4" y1="371.33" x2="-101.88" y2="371.33" gradientTransform="translate(-19365.06 -70491.61) rotate(-180) scale(190.08 -190.08)" gradientUnits="userSpaceOnUse">
      <stop offset="0" stop-color="#053e8d"/>
      <stop offset="1" stop-color="#0575d3"/>
    </linearGradient>
    <clipPath id="clippath-41">
      <path class="cls-34" d="M72.09,67.86c.91,5.14,1.58,10.32,1.7,15.54.05,2.25-.06,4.53-.36,6.77-.51,3.85-2.31,7.22-4.41,10.43-2.09,3.18-4.31,6.28-6.29,9.53-2.05,3.37-2.91,7.11-2.38,11.05.99,7.45,4.43,13.63,10.29,18.31,8,6.38,16.58,11.81,26.34,15.18,3.13,1.08,6.29,2.06,9.44,3.09-.17-.35-.41-.54-.64-.73-3.92-3.13-7.56-6.55-10.61-10.55-3.16-4.14-5.41-8.6-4.91-14.02.27-3.01,1.09-5.83,2.76-8.39,1.13-1.73,2.29-3.47,3.14-5.33,1.92-4.21,2.53-8.62,1.19-13.15-.85-2.85-2.33-5.42-3.85-7.95-5.18-8.67-11.19-16.76-17.29-24.79-1.31-1.73-2.66-3.44-4.02-5.21-.05.15-.08.2-.07.24"/>
    </clipPath>
    <linearGradient id="_Безымянный_градиент_46-2" data-name="Безымянный градиент 46" x1="-103.4" y1="371.37" x2="-101.88" y2="371.37" gradientTransform="translate(-19365.06 -70476.94) rotate(-180) scale(190.08 -190.08)" xlink:href="#_Безымянный_градиент_46"/>
    <clipPath id="clippath-42">
      <path class="cls-34" d="M125.96,163.52c-7.29.64-14.53,1.63-21.71,2.99-11.22,2.13-22.18,5.15-32.75,9.5-8.23,3.38-16.06,7.48-23.11,12.95-1.91,1.48-3.7,3.09-5.55,4.65.04.05.08.11.12.17.14-.07.29-.13.43-.2,9.09-4.53,18.6-7.96,28.36-10.69,15.24-4.27,30.76-6.96,46.52-8.27,7.32-.61,14.66-1.05,21.99-1.26,10.86-.31,21.72-.05,32.54.92,5.06.45,10.13.85,15.15,1.57,6.55.93,13.09,2.01,19.57,3.28,11.6,2.28,22.95,5.51,33.92,9.93,2.9,1.17,5.76,2.47,8.73,3.75-.17-.18-.25-.31-.37-.4-2.61-2.05-5.12-4.22-7.84-6.1-8.3-5.72-17.43-9.82-26.92-13.13-13.82-4.81-28.07-7.73-42.6-9.21-6.92-.7-13.88-1.06-20.83-1.31-1.91-.07-3.81-.1-5.72-.1-6.65,0-13.31.38-19.94.97"/>
    </clipPath>
    <linearGradient id="_Безымянный_градиент_46-3" data-name="Безымянный градиент 46" y1="371.49" x2="-101.88" y2="371.49" gradientTransform="translate(-19365.06 -70433.79) rotate(-180) scale(190.08 -190.08)" xlink:href="#_Безымянный_градиент_46"/>
    <clipPath id="clippath-43">
      <path class="cls-34" d="M219.78,78.4c-4.29,4.8-8.63,9.54-12.85,14.4-3.68,4.23-7.18,8.61-10.26,13.31-1.99,3.04-3.32,6.27-3.24,9.98.06,3.04.8,5.89,2.11,8.6.64,1.31,1.51,2.52,2.03,3.88,2.01,5.19,1.69,10.21-1.36,14.95-2.25,3.5-5.21,6.35-8.45,8.92-1.86,1.47-3.8,2.83-5.74,4.26.21-.05.39-.1.58-.14,11.27-1.85,21.6-6.13,31.27-12.1,4.76-2.94,8.72-6.64,11.19-11.78,2.78-5.79,3.14-11.53-.06-17.28-1.45-2.6-2.94-5.19-4.37-7.79-2.23-4.04-3.6-8.32-3.14-12.99.32-3.2.83-6.39,1.38-9.57.43-2.43,1.06-4.82,1.61-7.23-.06-.06-.12-.12-.18-.18-.17.25-.31.53-.51.75"/>
    </clipPath>
    <linearGradient id="_Безымянный_градиент_46-4" data-name="Безымянный градиент 46" x1="-103.4" y1="371.38" x2="-101.88" y2="371.38" gradientTransform="translate(-19365.06 -70473.99) rotate(-180) scale(190.08 -190.08)" xlink:href="#_Безымянный_градиент_46"/>
    <clipPath id="clippath-44">
      <path class="cls-34" d="M253.36,145.2c-2.09.18-4.19.38-6.23.81-7.71,1.64-13.68,5.88-17.81,12.57-2.27,3.68-3.64,7.78-4.88,11.9-.03.1-.02.22-.04.4,1.15-.74,2.2-1.45,3.28-2.1,3.73-2.24,7.54-4.29,11.89-5.02,3.67-.61,6.84.32,9.21,3.36.12.15.25.29.41.41,4.72,3.45,9.83,4.97,15.46,2.61,4.37-1.83,8.66-3.86,12.9-5.97,3.77-1.88,7.42-4.01,11.28-6.12-3.44-.51-6.66-1-9.88-1.45-4.17-.58-7.91-2.13-11.2-4.77-1.44-1.16-2.91-2.29-4.39-3.39-2.67-1.99-5.59-3.28-8.9-3.28-.36,0-.73.02-1.11.05"/>
    </clipPath>
    <linearGradient id="_Безымянный_градиент_46-5" data-name="Безымянный градиент 46" y1="371.46" x2="-101.88" y2="371.46" gradientTransform="translate(-19365.06 -70446.94) rotate(-180) scale(190.08 -190.08)" xlink:href="#_Безымянный_градиент_46"/>
    <clipPath id="clippath-45">
      <path class="cls-34" d="M36.59,146.8c-2.1.05-4.17.36-6,1.36-2.19,1.2-4.28,2.61-6.37,3.97-2.17,1.41-4.24,2.98-6.46,4.32-3,1.8-6.44,2.37-9.81,3.11-2.39.53-4.79.96-7.19,1.43,0,.05-.02.11-.03.16.75.34,1.49.69,2.24,1.03,5.97,2.72,11.99,5.31,18.23,7.37,3.84,1.26,7.67,1.81,11.58.38,2.85-1.04,5.49-2.36,7.67-4.57,1.85-1.87,4.22-2.75,6.86-2.88,2.52-.12,4.97.33,7.29,1.23,3.05,1.19,6.01,2.57,9.04,3.88-.52-1.65-1.06-3.43-1.63-5.21-2.22-7.01-6.83-11.71-13.75-14.15-3.27-1.15-6.64-1.46-10.05-1.46-.54,0-1.08,0-1.63.02"/>
    </clipPath>
    <linearGradient id="_Безымянный_градиент_46-6" data-name="Безымянный градиент 46" x1="-103.4" y1="371.46" x2="-101.88" y2="371.46" gradientTransform="translate(-19365.06 -70446.56) rotate(-180) scale(190.08 -190.08)" xlink:href="#_Безымянный_градиент_46"/>
    <linearGradient id="_Безымянный_градиент_57-41" data-name="Безымянный градиент 57" x1="-102.33" y1="370.72" x2="-100.81" y2="370.72" gradientTransform="translate(19630.4 71330.03) scale(191.84 -191.84)" xlink:href="#_Безымянный_градиент_57"/>
  </defs>
  <g id="_Слой_1" data-name="Слой 1">
    <g>
      <g class="cls-50">
        <rect class="cls-48" x="2.6" y="226.1" width="9.83" height="15.61"/>
      </g>
      <g class="cls-51">
        <rect class="cls-43" x="13.75" y="225.68" width="17" height="16.45"/>
      </g>
      <g class="cls-54">
        <rect class="cls-44" x="31.6" y="226.1" width="18.52" height="18.67"/>
      </g>
      <g class="cls-53">
        <rect class="cls-42" x="55.85" y="226.1" width="18.52" height="18.67"/>
      </g>
      <g class="cls-52">
        <rect class="cls-40" x="76.15" y="226.1" width="10.89" height="15.61"/>
      </g>
      <g class="cls-58">
        <rect class="cls-45" x="88.36" y="226.1" width="12.59" height="15.61"/>
      </g>
      <g class="cls-57">
        <rect class="cls-46" x="101.92" y="225.68" width="14.46" height="16.45"/>
      </g>
      <g class="cls-55">
        <rect class="cls-47" x="118.21" y="226.1" width="14" height="15.61"/>
      </g>
      <g class="cls-56">
        <rect class="cls-41" x="132.84" y="225.68" width="17" height="16.45"/>
      </g>
      <g class="cls-59">
        <rect class="cls-32" x="152.25" y="226.1" width="9.83" height="15.61"/>
      </g>
      <g class="cls-89">
        <rect class="cls-31" x="163.4" y="225.68" width="17" height="16.45"/>
      </g>
      <g class="cls-94">
        <rect class="cls-29" x="188.11" y="225.68" width="17" height="16.45"/>
      </g>
      <g class="cls-88">
        <rect class="cls-27" x="206.09" y="226.1" width="12.59" height="15.61"/>
      </g>
      <g class="cls-87">
        <rect class="cls-30" x="217.48" y="226.1" width="18.52" height="18.67"/>
      </g>
      <g class="cls-86">
        <rect class="cls-26" x="237.78" y="226.1" width="15.99" height="15.61"/>
      </g>
      <g class="cls-90">
        <rect class="cls-28" x="255.51" y="226.1" width="15.85" height="15.61"/>
      </g>
      <g class="cls-92">
        <rect class="cls-24" x="272.15" y="226.1" width="16.69" height="15.61"/>
      </g>
      <g class="cls-91">
        <rect class="cls-25" x="2.6" y="253.36" width="10.44" height="14.96"/>
      </g>
      <g class="cls-95">
        <rect class="cls-23" x="21.12" y="252.98" width="13.53" height="15.72"/>
      </g>
      <g class="cls-93">
        <rect class="cls-19" x="37" y="253.36" width="12.6" height="14.96"/>
      </g>
      <g class="cls-60">
        <rect class="cls-20" x="52.42" y="252.98" width="13.53" height="15.72"/>
      </g>
      <g class="cls-61">
        <rect class="cls-16" x="67.34" y="253.36" width="11.67" height="14.96"/>
      </g>
      <g class="cls-64">
        <rect class="cls-21" x="81.25" y="253.36" width="9.78" height="14.96"/>
      </g>
      <g class="cls-63">
        <rect class="cls-14" x="93.62" y="253.36" width="15.34" height="14.96"/>
      </g>
      <g class="cls-62">
        <rect class="cls-15" x="112.59" y="253.36" width="9.79" height="14.96"/>
      </g>
      <g class="cls-65">
        <rect class="cls-17" x="130.11" y="252.98" width="15.77" height="15.72"/>
      </g>
      <g class="cls-74">
        <rect class="cls-18" x="148.68" y="253.36" width="10.1" height="14.96"/>
      </g>
      <g class="cls-72">
        <rect class="cls-12" x="161.52" y="253.36" width="9.81" height="14.96"/>
      </g>
      <g class="cls-73">
        <rect class="cls-13" x="170.94" y="253.36" width="14.79" height="14.96"/>
      </g>
      <g class="cls-75">
        <rect class="cls-4" x="186.94" y="252.98" width="10.82" height="15.72"/>
      </g>
      <g class="cls-83">
        <rect class="cls-3" x="199.97" y="252.98" width="15.77" height="15.72"/>
      </g>
      <g class="cls-85">
        <rect class="cls-11" x="218.55" y="253.36" width="10.44" height="14.96"/>
      </g>
      <g class="cls-82">
        <rect class="cls-9" x="230.22" y="253.36" width="14.8" height="14.96"/>
      </g>
      <g class="cls-81">
        <rect class="cls-10" x="247.18" y="253.36" width="11.65" height="14.96"/>
      </g>
      <g class="cls-76">
        <rect class="cls-5" x="262.46" y="253.36" width="12.6" height="14.96"/>
      </g>
      <g class="cls-77">
        <rect class="cls-22" x="277.62" y="253.36" width="11.22" height="14.96"/>
      </g>
      <g class="cls-78">
        <rect class="cls-6" x="127.21" y="181.83" width="7.16" height="11.5"/>
      </g>
      <g class="cls-79">
        <rect class="cls-7" x="136.5" y="181.83" width="7.33" height="11.78"/>
      </g>
      <g class="cls-84">
        <rect class="cls-8" x="145.58" y="181.83" width="7.16" height="11.5"/>
      </g>
      <g class="cls-80">
        <rect class="cls-2" x="154.84" y="182.11" width="7.07" height="11.5"/>
      </g>
      <path class="cls-33" d="M142.98,0v141.61c-1.2-1.66-2.59-2.84-4.17-3.8-2.99-1.81-6.25-3.02-9.53-4.17-4.89-1.72-9.81-3.37-14.66-5.18-2.67-1-5.16-2.38-7.36-4.24-3.74-3.17-4.7-7.09-3.25-11.7.86-2.72,2.41-5.07,3.81-7.51,3.06-5.34,6.17-10.64,9.11-16.05,2.47-4.55,3.93-9.52,5.48-14.44,3.2-10.14,6.5-20.26,9.49-30.46,4.18-14.26,7.66-28.7,10.83-43.22.05-.21.12-.41.24-.84M136.26,44.72s-.08,0-.13-.02c-1.24,4.99-2.37,10-3.74,14.95-1.37,4.97-2.81,9.92-4.51,14.78-1.71,4.86-3.66,9.64-5.75,14.35-2.06,4.67-4.42,9.22-6.65,13.82.28-.15.46-.36.61-.58,1.23-1.83,2.49-3.65,3.69-5.5,2.82-4.36,5.55-8.77,7.7-13.51,2.45-5.4,4.06-11.08,5.23-16.87,1.21-6,2.14-12.05,3.17-18.08.19-1.1.26-2.23.38-3.34"/>
      <g class="cls-68">
        <rect class="cls-49" x="146.57" y="39.31" width="38.47" height="102.23"/>
      </g>
      <g class="cls-70">
        <rect class="cls-37" x="59.82" y="67.63" width="46.59" height="90.11"/>
      </g>
      <g class="cls-69">
        <rect class="cls-39" x="42.83" y="162.55" width="207.34" height="31.22"/>
      </g>
      <g class="cls-71">
        <rect class="cls-38" x="182.03" y="77.64" width="46.17" height="79.05"/>
      </g>
      <g class="cls-66">
        <rect class="cls-35" x="224.41" y="145.15" width="64.43" height="27.34"/>
      </g>
      <g class="cls-67">
        <rect class="cls-36" x=".73" y="146.78" width="62.92" height="24.58"/>
      </g>
      <path class="cls-33" d="M176.39,142.48c-2.57,1.81-5.09,3.56-7.58,5.34-3.26,2.32-6.83,3.85-10.77,4.62-4.35.85-8.7,1.53-13.13,1.37-5.92-.21-11.76-1-17.35-3.09-4.12-1.54-7.72-3.9-10.68-7.19-.27-.3-.52-.63-.94-1.13,20.28,3.17,40.36,2.89,60.45.07"/>
      <path class="cls-1" d="M.76,209.61h288.08c.42,0,.76.34.76.76s-.34.76-.76.76H.76c-.42,0-.76-.34-.76-.76s.34-.76.76-.76"/>
    </g>
  </g>
</svg>