<?xml version="1.0" encoding="UTF-8"?>
<svg id="Layer_2" data-name="Layer 2" xmlns="http://www.w3.org/2000/svg" viewBox="0 0 288.57 64.1">
  <defs>
    <style>
      .cls-1 {
        fill: none;
        stroke: #fff;
        stroke-linecap: round;
        stroke-linejoin: round;
      }

      .cls-2 {
        fill: #fff;
        stroke-width: 0px;
      }
    </style>
  </defs>
  <g id="_Слой_1" data-name="Слой 1">
    <g>
      <path class="cls-2" d="M39.84,60.79h-2.13v-.35l1.37-1.38c.05-.05.1-.1.15-.16.05-.06.09-.12.13-.18.04-.06.07-.13.09-.2.02-.07.03-.14.03-.22,0-.1-.02-.19-.05-.26-.03-.08-.08-.15-.14-.2-.06-.05-.13-.1-.21-.13-.08-.03-.16-.04-.25-.04-.18,0-.33.06-.45.17-.12.11-.2.25-.24.43l-.34-.07c.02-.12.07-.22.13-.32.06-.1.14-.19.23-.26.09-.07.19-.13.3-.17.11-.04.24-.06.37-.06s.26.02.38.06c.12.04.23.1.32.17.09.08.16.17.22.29.05.12.08.25.08.4,0,.11-.02.21-.04.3-.03.09-.07.18-.12.26s-.11.16-.17.23c-.07.07-.14.15-.21.22l-1.2,1.19h1.77v.3Z"/>
      <path class="cls-2" d="M41.57,57.36c.21,0,.38.05.52.15.14.1.25.24.34.4s.15.35.18.56c.04.21.05.42.05.64s-.02.43-.05.64c-.04.21-.1.4-.18.56-.08.17-.2.3-.34.4-.14.1-.31.15-.52.15s-.39-.05-.53-.15c-.14-.1-.25-.23-.34-.4-.08-.17-.14-.35-.18-.56-.03-.21-.05-.42-.05-.64s.02-.43.05-.64c.03-.21.09-.4.18-.56s.2-.3.34-.4c.14-.1.31-.15.53-.15M41.57,57.65c-.15,0-.27.05-.37.14-.1.09-.18.21-.23.35-.06.14-.1.3-.12.47-.02.17-.03.35-.03.51s.01.34.03.51c.02.17.06.33.12.47.06.14.13.25.23.35.1.09.22.13.37.13s.27-.04.36-.13c.1-.09.18-.2.23-.35.06-.14.1-.3.12-.47.02-.17.03-.34.03-.51s-.01-.34-.03-.51c-.02-.17-.06-.33-.12-.47-.06-.14-.13-.26-.23-.35-.1-.09-.22-.14-.36-.14"/>
      <path class="cls-2" d="M45.32,60.79h-2.13v-.35l1.37-1.38c.05-.05.1-.1.15-.16.05-.06.09-.12.13-.18.04-.06.07-.13.09-.2.02-.07.03-.14.03-.22,0-.1-.02-.19-.05-.26-.03-.08-.08-.15-.14-.2-.06-.05-.13-.1-.21-.13-.08-.03-.16-.04-.25-.04-.18,0-.33.06-.45.17-.12.11-.2.25-.24.43l-.34-.07c.02-.12.07-.22.13-.32.06-.1.14-.19.23-.26.09-.07.19-.13.3-.17.11-.04.24-.06.37-.06s.26.02.38.06c.12.04.23.1.32.17.09.08.16.17.22.29.05.12.08.25.08.4,0,.11-.02.21-.04.3-.03.09-.07.18-.12.26s-.11.16-.17.23c-.07.07-.14.15-.21.22l-1.2,1.19h1.77v.3Z"/>
      <path class="cls-2" d="M47.92,57.75h-1.39l-.02,1.03c.07-.02.15-.04.23-.06.08-.01.16-.02.23-.02.16,0,.3.02.43.07.13.05.25.12.34.22.1.09.17.2.23.33.05.13.08.27.08.42,0,.16-.03.31-.08.45-.05.14-.13.25-.22.35-.1.1-.21.18-.35.23-.14.06-.29.08-.45.08-.24,0-.45-.05-.61-.17-.17-.11-.3-.26-.39-.44l.31-.14c.06.14.15.25.27.33.12.08.26.12.4.12.11,0,.22-.02.31-.06.1-.04.18-.09.25-.17.07-.07.12-.15.16-.25.04-.1.06-.2.06-.32,0-.12-.02-.23-.06-.33-.04-.1-.1-.18-.17-.25-.07-.07-.16-.12-.26-.16-.1-.04-.21-.06-.33-.06s-.24.02-.36.05c-.12.03-.23.08-.34.14l.03-1.72h1.7v.3Z"/>
      <path class="cls-2" d="M42.41,3.16v42.22c-.36-.49-.77-.85-1.24-1.13-.89-.54-1.86-.9-2.84-1.24-1.46-.51-2.92-1-4.37-1.54-.8-.3-1.54-.71-2.19-1.27-1.12-.94-1.4-2.11-.97-3.49.25-.81.72-1.51,1.14-2.24.91-1.59,1.84-3.17,2.71-4.78.74-1.36,1.17-2.84,1.63-4.3.95-3.02,1.94-6.04,2.83-9.08,1.25-4.25,2.28-8.56,3.23-12.88.01-.06.03-.12.07-.25M40.4,16.49s-.02,0-.04,0c-.37,1.49-.71,2.98-1.11,4.46-.41,1.48-.84,2.96-1.35,4.41-.51,1.45-1.09,2.87-1.71,4.28-.61,1.39-1.32,2.75-1.98,4.12.08-.04.14-.11.18-.17.37-.54.74-1.09,1.1-1.64.84-1.3,1.65-2.61,2.29-4.03.73-1.61,1.21-3.31,1.56-5.03.36-1.79.64-3.59.94-5.39.06-.33.08-.66.11-1"/>
      <path class="cls-2" d="M43.48,45.35V14.87c.09.17.15.29.22.41,1.32,2.56,2.42,5.22,3.51,7.88,1.2,2.92,2.43,5.81,4.05,8.52.84,1.4,1.77,2.74,2.65,4.11.43.67.8,1.37.92,2.19.12.82-.16,1.49-.77,2.03-.67.58-1.48.92-2.3,1.22-1.39.49-2.8.94-4.19,1.44-1.14.42-2.23.95-3.15,1.76-.33.29-.62.62-.94.93M46.34,25.19s-.05.02-.08.03c0,.05,0,.1,0,.14.33,1.36.62,2.74,1.01,4.09.42,1.46,1,2.87,1.91,4.12,1,1.37,2.19,2.56,3.4,3.74.02.02.05.03.07.05.02-.01.04-.03.06-.04-2.99-3.59-5.06-7.67-6.39-12.13"/>
      <path class="cls-2" d="M21.3,23.32c.41.53.81,1.04,1.2,1.55,1.82,2.39,3.61,4.81,5.15,7.39.45.76.9,1.52,1.15,2.37.4,1.35.22,2.66-.35,3.92-.25.56-.6,1.07-.94,1.59-.5.76-.74,1.6-.82,2.5-.15,1.62.52,2.95,1.47,4.18.91,1.19,1.99,2.21,3.16,3.14.07.06.14.11.19.22-.94-.31-1.88-.6-2.81-.92-2.91-1-5.47-2.62-7.85-4.53-1.75-1.39-2.77-3.24-3.07-5.46-.16-1.18.1-2.29.71-3.29.59-.97,1.25-1.89,1.88-2.84.63-.96,1.16-1.96,1.32-3.11.09-.67.12-1.34.11-2.02-.03-1.56-.24-3.1-.51-4.63,0-.01,0-.03.02-.07"/>
      <path class="cls-2" d="M74.36,60.63c-.89-.38-1.74-.77-2.6-1.12-3.27-1.32-6.65-2.28-10.11-2.96-1.93-.38-3.88-.7-5.84-.98-1.5-.21-3.01-.33-4.52-.47-3.23-.29-6.46-.37-9.7-.27-2.19.06-4.38.2-6.56.38-4.7.39-9.33,1.19-13.87,2.47-2.91.81-5.75,1.84-8.46,3.19-.04.02-.08.04-.13.06-.01-.02-.02-.03-.04-.05.55-.46,1.09-.95,1.65-1.39,2.1-1.63,4.44-2.85,6.89-3.86,3.15-1.3,6.42-2.2,9.76-2.83,2.14-.41,4.3-.7,6.47-.89,2.54-.22,5.1-.35,7.65-.26,2.07.07,4.15.18,6.21.39,4.33.44,8.58,1.31,12.7,2.75,2.83.98,5.55,2.21,8.03,3.91.81.56,1.56,1.21,2.34,1.82.03.03.06.07.11.12"/>
      <path class="cls-2" d="M54.05,49.87c.58-.43,1.16-.83,1.71-1.27.97-.76,1.85-1.61,2.52-2.66.91-1.41,1-2.91.41-4.46-.16-.4-.42-.76-.61-1.15-.39-.81-.61-1.66-.63-2.57-.02-1.11.37-2.07.97-2.98.92-1.4,1.96-2.71,3.06-3.97,1.26-1.45,2.55-2.86,3.83-4.29.06-.07.1-.15.15-.22l.05.05c-.16.72-.35,1.43-.48,2.16-.17.95-.32,1.9-.41,2.85-.14,1.39.27,2.67.94,3.87.43.78.87,1.55,1.31,2.32.95,1.71.85,3.42.02,5.15-.74,1.53-1.92,2.63-3.34,3.51-2.88,1.78-5.96,3.06-9.32,3.61-.05,0-.11.02-.17.04"/>
      <path class="cls-2" d="M85.89,50.27c-1.15.63-2.24,1.26-3.36,1.82-1.26.63-2.54,1.24-3.85,1.78-1.68.7-3.2.25-4.61-.78-.05-.03-.09-.08-.12-.12-.71-.91-1.65-1.19-2.75-1-1.3.22-2.44.83-3.55,1.5-.32.19-.64.41-.98.63,0-.05,0-.09.01-.12.37-1.23.78-2.45,1.46-3.55,1.23-1.99,3.01-3.26,5.31-3.75.61-.13,1.24-.19,1.86-.24,1.12-.1,2.1.3,2.98.96.44.33.88.67,1.31,1.01.98.79,2.1,1.25,3.34,1.42.96.13,1.92.28,2.95.43"/>
      <path class="cls-2" d="M0,51.15c.71-.14,1.43-.27,2.14-.43,1-.22,2.03-.39,2.92-.93.66-.4,1.28-.86,1.93-1.29.63-.41,1.25-.83,1.9-1.19.55-.3,1.16-.39,1.79-.41,1.18-.03,2.35.03,3.48.43,2.07.73,3.44,2.13,4.1,4.22.17.53.33,1.06.49,1.55-.9-.39-1.79-.8-2.7-1.16-.69-.27-1.42-.41-2.17-.37-.79.04-1.49.3-2.05.86-.65.66-1.44,1.05-2.29,1.36-1.17.42-2.31.26-3.45-.11-1.86-.61-3.66-1.38-5.44-2.2-.22-.1-.45-.2-.67-.31,0-.02,0-.03,0-.05"/>
      <path class="cls-2" d="M52.37,45.63c-.77.54-1.52,1.06-2.26,1.59-.97.69-2.04,1.15-3.21,1.38-1.3.25-2.59.46-3.92.41-1.76-.06-3.51-.3-5.17-.92-1.23-.46-2.3-1.16-3.19-2.14-.08-.09-.16-.19-.28-.34,6.05.95,12.03.86,18.02.02"/>
      <polygon class="cls-2" points="127.47 20.55 127.47 22.38 124.1 22.38 124.1 29.26 121.98 29.26 121.98 20.55 127.47 20.55"/>
      <path class="cls-2" d="M137.68,24.87c0,.69-.12,1.32-.36,1.89-.24.57-.57,1.06-.99,1.46-.42.41-.93.72-1.51.94-.58.22-1.21.33-1.9.33s-1.31-.11-1.89-.33c-.58-.22-1.08-.53-1.5-.94-.42-.41-.75-.89-.99-1.46-.24-.57-.36-1.2-.36-1.89s.12-1.33.36-1.89c.24-.56.57-1.04.99-1.43.42-.39.92-.7,1.5-.91.58-.21,1.21-.32,1.89-.32s1.31.11,1.9.32c.58.21,1.08.52,1.51.91.42.39.75.87.99,1.43.24.56.36,1.19.36,1.89M135.43,24.87c0-.38-.06-.73-.19-1.06-.12-.33-.29-.61-.51-.84-.22-.23-.48-.42-.79-.55-.31-.14-.64-.2-1.02-.2s-.71.07-1.01.2c-.3.14-.57.32-.79.55-.22.24-.39.52-.51.84-.12.33-.18.68-.18,1.06s.06.76.18,1.09c.12.33.29.62.51.86.22.24.48.42.78.56.3.14.64.2,1.01.2s.71-.07,1.01-.2c.3-.14.57-.32.79-.56.22-.24.39-.52.52-.86.12-.33.19-.7.19-1.09"/>
      <path class="cls-2" d="M139.86,29.26v1.71h-1.72v-3.48h1.5l2.63-6.94h2.04l2.61,6.94h1.55v3.48h-1.72v-1.71h-6.89ZM141.81,27.49h2.88l-1.44-4.58-1.44,4.58Z"/>
      <path class="cls-2" d="M153.39,29.26v1.71h-1.72v-3.48h1.5l2.63-6.94h2.04l2.61,6.94h1.55v3.48h-1.72v-1.71h-6.89ZM155.34,27.49h2.88l-1.44-4.58-1.44,4.58Z"/>
      <polygon class="cls-2" points="162.99 29.26 162.99 20.55 168.84 20.55 168.84 22.32 165.02 22.32 165.02 23.97 168.63 23.97 168.63 25.66 165.02 25.66 165.02 27.46 169.06 27.46 169.06 29.26 162.99 29.26"/>
      <polygon class="cls-2" points="174.35 22.35 174.35 29.26 172.25 29.26 172.25 22.35 169.79 22.35 169.79 20.55 176.81 20.55 176.81 22.35 174.35 22.35"/>
      <path class="cls-2" d="M183.98,29.11c-.57.26-1.22.39-1.96.39-.67,0-1.29-.11-1.86-.33-.57-.22-1.06-.54-1.48-.94-.42-.41-.75-.89-.98-1.46-.24-.57-.36-1.19-.36-1.87s.12-1.33.36-1.89c.24-.57.58-1.05,1-1.45.43-.4.93-.7,1.5-.92.57-.21,1.19-.32,1.86-.32.62,0,1.22.11,1.81.32.59.22,1.08.54,1.45.95l-1.43,1.43c-.2-.27-.46-.47-.78-.6-.32-.13-.65-.2-.98-.2-.37,0-.71.07-1.02.2-.31.14-.57.32-.79.56s-.39.52-.52.84c-.12.32-.19.68-.19,1.06s.06.76.19,1.08.29.61.51.84.48.42.78.55c.3.13.64.2,1,.2.42,0,.78-.08,1.09-.25.31-.16.56-.38.75-.64l1.46,1.38c-.39.44-.86.79-1.43,1.05"/>
      <path class="cls-2" d="M186.42,29.26v-8.71h2.09v3.16c.12,0,.23,0,.34,0,.11,0,.22.01.33.02l2.67-3.19h2.29l-2.92,3.68c.37.18.71.41,1.02.7.31.28.59.63.85,1.04.25.41.47.89.66,1.43.19.54.35,1.17.48,1.86h-2.29c-.12-.66-.28-1.24-.46-1.72-.19-.48-.41-.88-.68-1.19-.27-.31-.59-.53-.97-.68-.38-.14-.82-.21-1.32-.19v3.78h-2.09Z"/>
      <path class="cls-2" d="M204.05,24.87c0,.69-.12,1.32-.36,1.89-.24.57-.57,1.06-.99,1.46-.42.41-.93.72-1.51.94-.58.22-1.21.33-1.9.33s-1.31-.11-1.89-.33c-.58-.22-1.08-.53-1.5-.94-.42-.41-.75-.89-.99-1.46-.24-.57-.36-1.2-.36-1.89s.12-1.33.36-1.89c.24-.56.57-1.04.99-1.43.42-.39.92-.7,1.5-.91.58-.21,1.21-.32,1.89-.32s1.31.11,1.9.32c.58.21,1.08.52,1.51.91.42.39.75.87.99,1.43.24.56.36,1.19.36,1.89M201.8,24.87c0-.38-.06-.73-.19-1.06-.12-.33-.29-.61-.51-.84-.22-.23-.48-.42-.79-.55-.31-.14-.64-.2-1.02-.2s-.71.07-1.01.2c-.3.14-.57.32-.79.55-.22.24-.39.52-.51.84-.12.33-.18.68-.18,1.06s.06.76.18,1.09c.12.33.29.62.51.86.22.24.48.42.78.56.3.14.64.2,1.01.2s.71-.07,1.01-.2c.3-.14.57-.32.79-.56.22-.24.39-.52.52-.86.12-.33.19-.7.19-1.09"/>
      <polygon class="cls-2" points="210.87 20.55 210.87 22.38 207.5 22.38 207.5 29.26 205.39 29.26 205.39 20.55 210.87 20.55"/>
      <path class="cls-2" d="M221.08,24.87c0,.69-.12,1.32-.36,1.89-.24.57-.57,1.06-.99,1.46-.42.41-.93.72-1.51.94-.58.22-1.21.33-1.9.33s-1.31-.11-1.89-.33c-.58-.22-1.08-.53-1.5-.94-.42-.41-.75-.89-.99-1.46-.24-.57-.36-1.2-.36-1.89s.12-1.33.36-1.89c.24-.56.57-1.04.99-1.43.42-.39.92-.7,1.5-.91.58-.21,1.21-.32,1.89-.32s1.31.11,1.9.32c.58.21,1.08.52,1.51.91.42.39.75.87.99,1.43.24.56.36,1.19.36,1.89M218.83,24.87c0-.38-.06-.73-.19-1.06-.12-.33-.29-.61-.51-.84-.22-.23-.48-.42-.79-.55-.31-.14-.65-.2-1.02-.2s-.71.07-1.01.2c-.3.14-.57.32-.79.55-.22.24-.39.52-.51.84-.12.33-.18.68-.18,1.06s.06.76.18,1.09c.12.33.29.62.51.86.22.24.48.42.78.56.3.14.64.2,1.01.2s.71-.07,1.01-.2c.3-.14.57-.32.79-.56.22-.24.39-.52.52-.86.12-.33.19-.7.19-1.09"/>
      <path class="cls-2" d="M234.87,24.87c0,.69-.12,1.32-.36,1.89-.24.57-.57,1.06-.99,1.46-.42.41-.93.72-1.51.94-.58.22-1.21.33-1.9.33s-1.31-.11-1.89-.33c-.58-.22-1.08-.53-1.5-.94-.42-.41-.75-.89-.99-1.46-.24-.57-.36-1.2-.36-1.89s.12-1.33.36-1.89c.24-.56.57-1.04.99-1.43.42-.39.92-.7,1.5-.91.58-.21,1.21-.32,1.89-.32s1.31.11,1.9.32c.58.21,1.08.52,1.51.91.42.39.75.87.99,1.43.24.56.36,1.19.36,1.89M232.62,24.87c0-.38-.06-.73-.19-1.06-.12-.33-.29-.61-.51-.84-.22-.23-.48-.42-.79-.55-.31-.14-.64-.2-1.02-.2s-.71.07-1.01.2c-.3.14-.57.32-.79.55-.22.24-.39.52-.51.84-.12.33-.18.68-.18,1.06s.06.76.18,1.09c.12.33.29.62.51.86.22.24.48.42.78.56.3.14.64.2,1.01.2s.71-.07,1.01-.2c.3-.14.57-.32.79-.56.22-.24.39-.52.52-.86.12-.33.19-.7.19-1.09"/>
      <polygon class="cls-2" points="239.97 22.35 239.97 29.26 237.87 29.26 237.87 22.35 235.4 22.35 235.4 20.55 242.43 20.55 242.43 22.35 239.97 22.35"/>
      <path class="cls-2" d="M243.47,29.26v1.71h-1.72v-3.48h1.5l2.63-6.94h2.04l2.61,6.94h1.55v3.48h-1.72v-1.71h-6.89ZM245.41,27.49h2.88l-1.44-4.58-1.44,4.58Z"/>
      <path class="cls-2" d="M255.15,20.55v3.17h.54c.5,0,.97.04,1.42.12.45.08.83.22,1.16.42.33.2.59.47.78.81.19.34.29.75.29,1.25s-.1.93-.29,1.3c-.19.37-.46.67-.79.91-.34.24-.73.42-1.18.54-.45.12-.92.18-1.43.18h-2.59v-8.71h2.09ZM255.15,27.49h.7c.52,0,.88-.09,1.08-.28.19-.19.29-.44.29-.75,0-.14-.02-.27-.07-.38-.05-.11-.12-.21-.22-.3-.1-.09-.24-.15-.42-.2-.18-.05-.39-.07-.66-.07h-.7v1.99ZM261.98,29.26h-2.09v-8.71h2.09v8.71Z"/>
      <polygon class="cls-2" points="269.19 29.26 267.28 26.19 265.45 29.26 262.94 29.26 265.99 24.66 263.18 20.55 265.72 20.55 267.34 23.26 268.94 20.55 271.39 20.55 268.63 24.66 271.78 29.26 269.19 29.26"/>
      <path class="cls-2" d="M274.5,29.26h-2.29l3.65-8.71h2.04l3.62,8.71h-2.34l-.68-1.71h-3.37l-.64,1.71ZM275.75,25.87h2.19l-1.08-2.99-1.11,2.99Z"/>
      <path class="cls-2" d="M122.18,35.31h2.82c.33,0,.66.03,1,.1.34.07.65.19.92.36s.49.4.66.68c.17.29.26.65.26,1.08,0,.47-.14.87-.41,1.21-.27.34-.64.56-1.1.68v.02c.28.03.53.1.77.22.24.11.44.26.61.44.17.18.31.39.41.64.1.25.15.53.15.83,0,.39-.08.74-.24,1.05-.16.3-.39.56-.68.77-.29.21-.64.37-1.04.47-.4.11-.84.16-1.32.16h-2.8v-8.71ZM123.36,39.04h1.62c.2,0,.41-.02.61-.07.2-.05.38-.13.54-.23.16-.11.28-.25.38-.42.1-.18.15-.39.15-.65s-.05-.45-.14-.62-.23-.31-.4-.42c-.17-.11-.37-.19-.6-.24-.23-.05-.48-.07-.75-.07h-1.41v2.73ZM123.36,43.03h1.53c.28,0,.55-.03.81-.08.26-.05.49-.14.69-.26.2-.12.36-.28.48-.47.12-.19.18-.43.18-.72,0-.52-.18-.9-.55-1.14-.36-.25-.86-.37-1.5-.37h-1.64v3.05Z"/>
      <path class="cls-2" d="M140.83,42.67c-.16.22-.34.43-.57.61-.22.19-.47.36-.74.5-.27.14-.58.25-.91.34-.33.08-.69.12-1.08.12-.66,0-1.27-.11-1.83-.34-.56-.23-1.04-.54-1.45-.95-.41-.41-.72-.89-.95-1.45-.23-.56-.34-1.17-.34-1.84s.12-1.29.35-1.85c.23-.56.56-1.04.97-1.45.41-.41.89-.72,1.45-.95.56-.22,1.16-.34,1.82-.34.31,0,.62.03.93.09.31.06.6.15.87.26.27.12.53.26.76.42.23.17.42.36.58.57l-.91.76c-.19-.28-.48-.53-.87-.74-.39-.21-.83-.32-1.33-.32s-.98.1-1.39.28c-.41.19-.76.44-1.05.76-.29.32-.51.69-.66,1.12-.16.43-.23.88-.23,1.35s.08.94.23,1.36c.15.42.38.79.66,1.11.29.32.64.57,1.05.76.41.19.87.28,1.38.28s.93-.1,1.35-.29.76-.49,1.03-.89l.9.68Z"/>
      <polygon class="cls-2" points="143.4 42.31 148.1 35.31 149.52 35.31 149.52 44.02 148.34 44.02 148.34 36.99 148.32 36.99 143.62 44.02 142.19 44.02 142.19 35.31 143.37 35.31 143.37 42.31 143.4 42.31"/>
      <path class="cls-2" d="M159.02,42.67c-.16.22-.34.43-.57.61-.22.19-.47.36-.74.5-.27.14-.58.25-.91.34-.33.08-.69.12-1.08.12-.66,0-1.27-.11-1.83-.34-.56-.23-1.04-.54-1.45-.95-.41-.41-.72-.89-.95-1.45-.23-.56-.34-1.17-.34-1.84s.12-1.29.35-1.85c.23-.56.56-1.04.97-1.45.41-.41.89-.72,1.45-.95.56-.22,1.16-.34,1.82-.34.31,0,.62.03.93.09.31.06.6.15.87.26.27.12.53.26.76.42.23.17.42.36.58.57l-.91.76c-.19-.28-.48-.53-.87-.74-.39-.21-.83-.32-1.33-.32s-.98.1-1.39.28c-.41.19-.76.44-1.05.76-.29.32-.51.69-.66,1.12-.16.43-.23.88-.23,1.35s.08.94.23,1.36c.15.42.38.79.66,1.11.29.32.64.57,1.05.76.41.19.87.28,1.38.28s.93-.1,1.35-.29.76-.49,1.03-.89l.9.68Z"/>
      <polygon class="cls-2" points="163.81 44.02 162.63 44.02 162.63 36.36 159.82 36.36 159.82 35.31 166.62 35.31 166.62 36.36 163.81 36.36 163.81 44.02"/>
      <polygon class="cls-2" points="169.09 42.98 173.6 42.98 173.6 44.02 167.91 44.02 167.91 35.31 173.43 35.31 173.43 36.36 169.09 36.36 169.09 39.01 173.16 39.01 173.16 40.01 169.09 40.01 169.09 42.98"/>
      <polygon class="cls-2" points="179.56 42.1 179.59 42.1 182.24 35.31 184.03 35.31 184.03 44.02 182.85 44.02 182.86 36.81 182.82 36.81 179.91 44.02 179.18 44.02 176.28 36.81 176.24 36.81 176.25 44.02 175.09 44.02 175.09 35.31 176.87 35.31 179.56 42.1"/>
      <polygon class="cls-2" points="187.3 42.98 191.82 42.98 191.82 44.02 186.12 44.02 186.12 35.31 191.65 35.31 191.65 36.36 187.3 36.36 187.3 39.01 191.37 39.01 191.37 40.01 187.3 40.01 187.3 42.98"/>
      <path class="cls-2" d="M205.5,39.66c0,.67-.12,1.29-.34,1.85-.23.56-.55,1.05-.96,1.45-.41.41-.9.72-1.46.95-.56.22-1.17.34-1.83.34s-1.27-.11-1.83-.34c-.56-.23-1.05-.54-1.46-.95-.41-.41-.73-.89-.96-1.45-.23-.56-.34-1.18-.34-1.85s.12-1.29.34-1.85c.23-.56.55-1.04.96-1.44.41-.4.9-.71,1.46-.94.56-.22,1.17-.34,1.83-.34s1.27.11,1.83.34c.56.23,1.05.54,1.46.94.41.4.73.88.96,1.44.23.56.34,1.17.34,1.85M204.23,39.66c0-.48-.08-.92-.23-1.35-.16-.42-.38-.79-.66-1.11-.29-.32-.64-.58-1.05-.76-.41-.19-.87-.28-1.38-.28s-.97.09-1.38.28c-.41.19-.76.44-1.05.76-.29.32-.51.69-.66,1.11-.16.42-.23.87-.23,1.35s.08.94.23,1.37c.16.43.38.8.66,1.12.29.32.64.57,1.05.76.41.19.87.28,1.38.28s.97-.09,1.38-.28c.41-.18.76-.44,1.05-.76.29-.32.51-.69.66-1.12.15-.43.23-.88.23-1.37"/>
      <path class="cls-2" d="M207.12,44.02v-8.71h5.25v1.06h-4.07v2.57h1.63c.45,0,.87.05,1.24.16.37.11.7.27.97.48.27.21.48.47.63.79.15.31.22.68.22,1.1s-.08.79-.23,1.11c-.16.32-.37.59-.65.81-.27.22-.6.38-.98.49s-.79.16-1.23.16h-2.79ZM209.82,42.97c.62,0,1.1-.13,1.46-.39.36-.26.54-.63.54-1.11,0-.5-.18-.87-.55-1.11-.37-.24-.85-.36-1.44-.36h-1.53v2.97h1.52Z"/>
      <path class="cls-2" d="M214.57,35.31h2.65c.45,0,.86.05,1.24.14.38.1.7.24.97.44.27.2.48.45.63.75.15.3.22.66.22,1.08s-.08.78-.23,1.09c-.16.31-.37.56-.65.76-.28.2-.6.35-.99.45-.38.1-.8.15-1.24.15h-1.42v3.85h-1.18v-8.71ZM215.75,39.2h1.35c.62,0,1.1-.12,1.45-.36.35-.24.53-.61.53-1.1s-.18-.88-.53-1.1c-.36-.22-.83-.33-1.43-.33h-1.36v2.89Z"/>
      <path class="cls-2" d="M221.34,44.02h-1.3l3.74-8.71h1.16l3.72,8.71h-1.34l-.89-2.14h-4.21l-.87,2.14ZM222.61,40.85h3.42l-1.7-4.21-1.72,4.21Z"/>
      <path class="cls-2" d="M231.3,39.02h.63c.28,0,.54-.03.79-.09.25-.06.47-.15.65-.26.19-.12.33-.27.44-.46s.16-.4.16-.66c0-.47-.15-.83-.46-1.08-.31-.25-.71-.37-1.21-.37-.39,0-.73.1-1.02.3-.28.2-.5.47-.65.82l-.98-.54c.25-.52.61-.91,1.08-1.18.47-.27,1.02-.41,1.66-.41.4,0,.78.05,1.12.15.34.1.64.25.9.45s.45.44.59.74c.14.29.21.64.21,1.02,0,.26-.05.5-.16.73-.11.22-.24.41-.41.58s-.35.3-.56.42c-.21.12-.42.2-.62.25v.03c.24.02.48.08.74.17.25.09.49.21.7.38.21.17.39.38.53.64.14.26.21.58.21.95,0,.41-.08.78-.25,1.11-.17.33-.4.61-.7.84-.29.23-.64.41-1.04.53-.4.12-.82.19-1.27.19-.41,0-.78-.05-1.1-.14-.32-.09-.61-.23-.85-.4-.25-.17-.46-.38-.63-.61-.18-.24-.33-.5-.45-.79l1.05-.49c.18.44.43.79.75,1.05.32.25.76.38,1.32.38.63,0,1.12-.15,1.46-.46.34-.3.52-.7.52-1.19,0-.3-.06-.56-.18-.76-.12-.2-.3-.37-.52-.51-.23-.13-.49-.22-.81-.28-.31-.06-.66-.09-1.03-.09h-.59v-.93Z"/>
      <path class="cls-2" d="M246.09,39.66c0,.67-.12,1.29-.34,1.85-.23.56-.55,1.05-.96,1.45-.41.41-.9.72-1.46.95-.56.22-1.17.34-1.83.34s-1.27-.11-1.83-.34c-.56-.23-1.05-.54-1.46-.95-.41-.41-.73-.89-.96-1.45-.23-.56-.34-1.18-.34-1.85s.12-1.29.34-1.85c.23-.56.55-1.04.96-1.44.41-.4.9-.71,1.46-.94.56-.22,1.17-.34,1.83-.34s1.27.11,1.83.34c.56.23,1.05.54,1.46.94.41.4.73.88.96,1.44.23.56.34,1.17.34,1.85M244.82,39.66c0-.48-.08-.92-.23-1.35-.16-.42-.38-.79-.66-1.11-.29-.32-.64-.58-1.05-.76-.41-.19-.87-.28-1.38-.28s-.97.09-1.38.28c-.41.19-.76.44-1.05.76-.29.32-.51.69-.66,1.11-.16.42-.23.87-.23,1.35s.08.94.23,1.37c.16.43.38.8.66,1.12.29.32.64.57,1.05.76.41.19.87.28,1.38.28s.97-.09,1.38-.28c.41-.18.76-.44,1.05-.76.29-.32.51-.69.66-1.12.15-.43.23-.88.23-1.37"/>
      <path class="cls-2" d="M247.71,35.31h2.82c.33,0,.66.03,1,.1.34.07.64.19.92.36.27.17.49.4.66.68.17.29.26.65.26,1.08,0,.47-.14.87-.41,1.21-.27.34-.64.56-1.1.68v.02c.28.03.53.1.77.22.24.11.44.26.61.44.17.18.31.39.41.64.1.25.15.53.15.83,0,.39-.08.74-.24,1.05-.16.3-.39.56-.68.77-.29.21-.64.37-1.04.47-.4.11-.84.16-1.32.16h-2.81v-8.71ZM248.89,39.04h1.62c.2,0,.41-.02.61-.07.2-.05.38-.13.54-.23.16-.11.28-.25.38-.42.1-.18.15-.39.15-.65s-.05-.45-.14-.62-.23-.31-.4-.42c-.17-.11-.37-.19-.6-.24-.23-.05-.48-.07-.75-.07h-1.41v2.73ZM248.89,43.03h1.53c.28,0,.55-.03.81-.08.26-.05.49-.14.69-.26.2-.12.36-.28.48-.47.12-.19.18-.43.18-.72,0-.52-.18-.9-.55-1.14-.36-.25-.86-.37-1.5-.37h-1.64v3.05Z"/>
      <path class="cls-2" d="M255.79,44.02h-1.3l3.74-8.71h1.16l3.72,8.71h-1.34l-.89-2.14h-4.21l-.87,2.14ZM257.06,40.85h3.42l-1.7-4.21-1.72,4.21Z"/>
      <polygon class="cls-2" points="264.35 35.31 265.53 35.31 265.53 38.97 269.95 38.97 269.95 35.31 271.13 35.31 271.13 44.02 269.95 44.02 269.95 40.03 265.53 40.03 265.53 44.02 264.35 44.02 264.35 35.31"/>
      <polygon class="cls-2" points="274.43 42.31 279.13 35.31 280.56 35.31 280.56 44.02 279.38 44.02 279.38 36.99 279.35 36.99 274.65 44.02 273.23 44.02 273.23 35.31 274.41 35.31 274.41 42.31 274.43 42.31"/>
      <path class="cls-2" d="M284.4,39.75c-.59-.1-1.06-.32-1.41-.65-.35-.34-.53-.8-.54-1.38,0-.8.3-1.4.91-1.8s1.44-.61,2.49-.61h2.73v8.71h-1.18v-3.83h-.93c-.44,0-.83.07-1.19.2-.36.14-.67.36-.93.66-.26.3-.48.7-.65,1.19-.17.49-.29,1.08-.35,1.78h-1.3c.03-.52.11-1,.25-1.46.13-.46.3-.86.51-1.23.21-.36.45-.68.72-.94.27-.26.57-.47.89-.61v-.03ZM287.39,36.37h-1.43c-.74,0-1.3.11-1.67.33s-.57.57-.57,1.05c0,.44.19.78.56,1.02.37.25.93.37,1.68.37h1.43v-2.77Z"/>
      <line class="cls-1" x1="103.82" y1=".5" x2="103.82" y2="63.6"/>
    </g>
  </g>
</svg>